{"glyphs":{"0":{"ha":864,"x_min":75,"x_max":788,"o":"m 432 79 q 564 133 506 79 q 655 283 622 188 q 688 501 688 379 q 655 719 688 624 q 564 869 622 815 q 432 922 506 922 q 299 869 357 922 q 208 719 240 815 q 175 501 175 624 q 208 283 175 379 q 299 133 240 188 q 432 79 357 79 m 75 501 q 120 765 75 649 q 247 946 165 881 q 432 1011 328 1011 q 616 946 535 1011 q 742 765 697 881 q 788 501 788 649 q 742 237 788 353 q 616 56 697 121 q 432 -10 535 -10 q 247 56 328 -10 q 120 237 165 121 q 75 501 75 353 z "},"1":{"ha":518,"x_min":67,"x_max":378,"o":"m 378 0 l 278 0 l 278 888 l 122 779 l 67 856 l 278 1001 l 378 1001 l 378 0 z "},"2":{"ha":775,"x_min":78,"x_max":699,"o":"m 192 192 q 394 388 317 308 q 527 552 472 468 q 582 706 582 636 q 526 865 582 803 q 382 926 471 926 q 259 883 318 926 q 169 771 200 839 l 78 810 q 202 958 117 900 q 382 1015 288 1015 q 538 976 469 1015 q 644 866 606 936 q 682 706 682 796 q 623 521 682 617 q 482 340 564 425 q 272 138 400 256 l 218 88 l 699 88 l 699 -1 l 96 -1 l 82 88 l 192 192 z "},"3":{"ha":799,"x_min":76,"x_max":722,"o":"m 585 518 q 685 414 649 479 q 722 283 722 349 q 681 133 722 199 q 567 29 640 67 q 399 -8 493 -8 q 232 29 306 -8 q 117 133 158 67 q 76 283 76 199 l 176 283 q 238 138 176 194 q 399 81 300 81 q 560 137 497 81 q 622 282 622 193 q 560 420 622 367 q 401 474 499 474 l 328 474 l 328 565 l 401 565 q 550 615 492 565 q 608 740 608 664 q 552 872 608 821 q 407 922 496 922 q 261 871 318 922 q 204 738 204 819 l 104 738 q 143 879 104 817 q 251 976 182 942 q 407 1011 319 1011 q 563 976 494 1011 q 670 879 632 942 q 708 738 708 817 q 676 618 708 679 q 585 518 643 557 z "},"4":{"ha":854,"x_min":76,"x_max":778,"o":"m 629 371 l 778 371 l 778 282 l 629 282 l 629 0 l 529 0 l 529 282 l 90 282 l 76 371 l 532 1003 l 629 1003 l 629 371 m 529 371 l 529 828 l 200 371 l 529 371 z "},"5":{"ha":815,"x_min":78,"x_max":738,"o":"m 125 490 l 157 1004 l 657 1004 l 657 915 l 253 915 l 233 604 q 399 651 317 651 q 574 610 497 651 q 694 493 651 568 q 738 322 738 418 q 694 149 738 225 q 574 29 651 72 q 399 -14 497 -14 q 194 56 283 -14 q 78 238 104 126 l 175 260 q 256 131 193 181 q 399 81 318 81 q 522 111 468 81 q 607 197 576 142 q 638 322 638 253 q 607 444 638 390 q 522 527 576 497 q 399 557 468 557 q 306 533 354 557 q 225 474 257 510 l 125 490 z "},"6":{"ha":815,"x_min":76,"x_max":738,"o":"m 404 78 q 572 145 507 78 q 638 318 638 213 q 572 492 638 425 q 404 560 507 560 q 287 529 339 560 q 206 443 235 499 q 176 318 176 388 q 240 145 176 213 q 404 78 304 78 m 76 318 q 128 504 76 414 l 413 1003 l 528 1003 l 318 639 q 407 649 367 649 q 578 606 503 649 q 695 489 653 564 q 738 318 738 414 q 695 147 738 222 q 578 31 653 72 q 407 -11 503 -11 q 236 31 311 -11 q 119 147 161 72 q 76 318 76 222 z "},"7":{"ha":767,"x_min":94,"x_max":690,"o":"m 178 1 l 582 914 l 94 914 l 94 1003 l 676 1003 l 690 914 l 286 1 l 178 1 z "},"8":{"ha":806,"x_min":76,"x_max":729,"o":"m 403 76 q 566 135 503 76 q 629 285 629 193 q 566 428 629 372 q 403 483 503 483 q 240 428 303 483 q 176 285 176 372 q 240 135 176 193 q 403 76 303 76 m 76 288 q 122 421 76 353 q 239 531 167 489 q 141 631 179 571 q 103 746 103 692 q 141 888 103 825 q 247 985 179 950 q 403 1021 315 1021 q 559 985 490 1021 q 666 888 628 950 q 704 746 704 825 q 666 631 704 692 q 568 531 628 571 q 684 421 639 489 q 729 288 729 353 q 688 132 729 200 q 572 26 646 64 q 403 -12 497 -12 q 234 26 308 -12 q 118 132 160 64 q 76 288 76 200 m 203 749 q 258 622 203 671 q 403 574 314 574 q 548 623 492 574 q 604 749 604 672 q 548 881 604 829 q 403 932 492 932 q 258 881 314 932 q 203 749 203 829 z "},"9":{"ha":815,"x_min":76,"x_max":738,"o":"m 410 925 q 242 858 307 925 q 176 685 176 790 q 242 510 176 578 q 410 443 307 443 q 527 474 475 443 q 608 560 579 504 q 638 685 638 615 q 574 858 638 790 q 410 925 510 925 m 76 685 q 119 856 76 781 q 236 972 161 931 q 407 1014 311 1014 q 578 972 503 1014 q 695 856 653 931 q 738 685 738 781 q 686 499 738 589 l 401 0 l 286 0 l 496 364 q 407 354 447 354 q 236 397 311 354 q 119 514 161 439 q 76 685 76 589 z "}," ":{"ha":319,"x_min":0,"x_max":0,"o":""},"A":{"ha":1139,"x_min":99,"x_max":1040,"o":"m 1040 0 l 932 0 l 814 289 l 328 289 l 207 0 l 99 0 l 517 1003 l 628 1003 l 1040 0 m 776 378 l 572 875 l 364 378 l 776 378 z "},"B":{"ha":904,"x_min":122,"x_max":836,"o":"m 122 1003 l 496 1003 q 638 968 575 1003 q 735 872 700 933 q 771 731 771 810 q 745 628 771 682 q 678 536 719 575 l 703 522 q 799 415 761 483 q 836 279 836 347 q 801 135 836 199 q 703 35 765 71 q 560 0 640 0 l 122 0 l 122 1003 m 561 89 q 689 142 639 89 q 739 276 739 194 q 689 419 739 364 q 561 475 639 475 l 222 475 l 222 89 l 561 89 m 521 564 q 632 614 589 567 q 675 733 675 661 q 625 863 675 813 q 497 914 575 914 l 222 914 l 222 564 l 521 564 z "},"C":{"ha":1025,"x_min":110,"x_max":954,"o":"m 604 -11 q 349 54 461 -11 q 173 236 236 119 q 110 501 110 353 q 173 767 110 650 q 349 949 236 883 q 604 1014 461 1014 q 796 974 706 1014 q 954 864 886 935 l 886 808 q 759 894 833 864 q 604 925 685 925 q 401 871 490 925 q 261 720 311 817 q 211 501 211 624 q 261 283 211 379 q 401 132 311 186 q 604 78 490 78 q 757 108 685 78 q 883 194 829 139 l 954 139 q 796 28 886 68 q 604 -11 706 -11 z "},"D":{"ha":1038,"x_min":124,"x_max":926,"o":"m 426 89 q 635 142 543 89 q 778 288 726 194 q 829 501 829 382 q 778 715 829 621 q 635 861 726 808 q 426 914 543 914 l 224 914 l 224 89 l 426 89 m 124 1003 l 426 1003 q 685 939 571 1003 q 863 761 799 875 q 926 501 926 647 q 863 242 926 356 q 685 64 799 128 q 426 0 571 0 l 124 0 l 124 1003 z "},"E":{"ha":878,"x_min":107,"x_max":783,"o":"m 783 914 l 207 914 l 207 561 l 713 561 l 713 472 l 207 472 l 207 89 l 783 89 l 783 0 l 107 0 l 107 1003 l 783 1003 l 783 914 z "},"F":{"ha":850,"x_min":121,"x_max":783,"o":"m 783 914 l 221 914 l 221 547 l 690 547 l 690 460 l 221 460 l 221 0 l 121 0 l 121 1003 l 783 1003 l 783 914 z "},"G":{"ha":1210,"x_min":114,"x_max":1079,"o":"m 1078 439 q 1017 199 1078 299 q 849 45 956 99 q 607 -11 742 -8 q 352 54 464 -11 q 177 236 240 119 q 114 501 114 353 q 177 766 114 650 q 352 947 240 882 q 607 1013 464 1013 q 867 942 760 1013 q 1025 771 974 872 l 936 731 q 813 867 897 811 q 607 924 728 924 q 403 869 493 924 q 264 719 314 815 q 214 501 214 624 q 264 283 214 379 q 403 132 314 186 q 607 78 493 78 q 881 174 778 85 q 983 431 983 264 l 625 431 l 625 519 l 1079 519 l 1078 439 z "},"H":{"ha":1003,"x_min":124,"x_max":879,"o":"m 879 0 l 779 0 l 779 471 l 224 471 l 224 0 l 124 0 l 124 1003 l 224 1003 l 224 560 l 779 560 l 779 1003 l 879 1003 l 879 0 z "},"I":{"ha":347,"x_min":124,"x_max":224,"o":"m 224 1003 l 224 0 l 124 0 l 124 1003 l 224 1003 z "},"J":{"ha":769,"x_min":93,"x_max":649,"o":"m 649 293 q 611 137 649 206 q 508 29 574 68 q 357 -10 442 -10 q 203 41 278 -10 q 93 171 129 92 l 185 213 q 260 117 213 154 q 357 79 308 79 q 495 139 442 79 q 549 293 549 199 l 549 1003 l 649 1003 l 649 293 z "},"K":{"ha":975,"x_min":122,"x_max":879,"o":"m 469 558 l 879 0 l 753 0 l 400 482 l 222 283 l 222 0 l 122 0 l 122 1001 l 222 1001 l 222 435 l 733 1003 l 869 1003 l 469 558 z "},"L":{"ha":835,"x_min":121,"x_max":740,"o":"m 221 89 l 740 89 l 740 0 l 121 0 l 121 1003 l 221 1003 l 221 89 z "},"M":{"ha":1218,"x_min":122,"x_max":1096,"o":"m 222 808 l 222 0 l 122 0 l 122 1003 l 222 1003 l 608 343 l 994 1003 l 1096 1003 l 1096 0 l 996 0 l 996 810 l 608 160 l 222 808 z "},"N":{"ha":1049,"x_min":119,"x_max":929,"o":"m 929 0 l 829 0 l 219 833 l 219 0 l 119 0 l 119 1003 l 219 1003 l 829 169 l 829 1003 l 929 1003 l 929 0 z "},"O":{"ha":1214,"x_min":114,"x_max":1100,"o":"m 607 78 q 810 132 721 78 q 949 283 899 186 q 999 501 999 379 q 949 720 999 624 q 810 871 899 817 q 607 925 721 925 q 404 871 493 925 q 265 720 315 817 q 215 501 215 624 q 265 283 215 379 q 404 132 315 186 q 607 78 493 78 m 114 501 q 177 767 114 650 q 352 949 240 883 q 607 1014 464 1014 q 862 949 750 1014 q 1037 767 974 883 q 1100 501 1100 650 q 1037 236 1100 353 q 862 54 974 119 q 607 -11 750 -11 q 352 54 464 -11 q 177 236 240 119 q 114 501 114 353 z "},"P":{"ha":925,"x_min":122,"x_max":813,"o":"m 506 478 q 657 539 599 478 q 715 696 715 600 q 656 853 715 792 q 504 914 597 914 l 221 914 l 222 478 l 506 478 m 122 1003 l 508 1003 q 666 964 597 1003 q 774 855 735 925 q 813 696 813 785 q 774 537 813 607 q 666 428 735 467 q 508 389 597 389 l 222 389 l 222 0 l 122 0 l 122 1003 z "},"Q":{"ha":1226,"x_min":114,"x_max":1115,"o":"m 928 256 q 978 370 958 301 q 999 500 999 439 q 949 719 999 622 q 810 869 899 815 q 607 924 721 924 q 404 869 493 924 q 265 719 315 815 q 215 500 215 622 q 265 282 215 378 q 404 132 315 186 q 607 78 493 78 q 745 108 672 78 q 867 186 818 139 l 731 326 l 796 392 l 928 256 m 114 500 q 177 765 114 649 q 352 947 240 882 q 607 1013 464 1013 q 862 947 750 1013 q 1037 765 974 882 q 1100 500 1100 649 q 1072 331 1100 419 q 999 182 1043 243 l 1115 61 l 1049 -4 l 933 117 q 785 24 876 60 q 607 -11 694 -11 q 352 54 464 -11 q 177 235 240 119 q 114 500 114 351 z "},"R":{"ha":1000,"x_min":124,"x_max":876,"o":"m 521 476 q 671 538 613 476 q 729 697 729 600 q 671 853 729 793 q 521 914 613 914 l 224 914 l 224 476 l 521 476 m 124 1003 l 518 1003 q 680 963 610 1003 q 790 853 750 924 q 829 692 829 782 q 761 499 829 582 q 588 394 693 415 l 876 0 l 750 0 l 467 388 l 224 388 l 224 0 l 124 0 l 124 1003 z "},"S":{"ha":913,"x_min":115,"x_max":810,"o":"m 201 263 q 316 130 242 182 q 475 78 390 78 q 644 128 578 78 q 710 261 710 179 q 676 360 710 321 q 594 422 643 399 q 461 475 544 446 q 303 540 364 510 q 201 626 243 571 q 160 768 160 682 q 203 899 160 843 q 318 985 246 956 q 476 1014 390 1014 q 673 958 589 1014 q 792 797 757 903 l 700 765 q 618 881 681 836 q 479 925 556 925 q 323 883 386 925 q 260 767 260 840 q 292 670 260 708 q 374 608 325 632 q 506 556 424 585 q 665 490 604 521 q 767 403 725 460 q 810 260 810 347 q 767 119 810 181 q 649 23 725 57 q 478 -11 574 -11 q 271 47 364 -11 q 115 217 178 106 l 201 263 z "},"T":{"ha":915,"x_min":94,"x_max":821,"o":"m 821 914 l 507 914 l 507 0 l 407 0 l 407 914 l 94 914 l 94 1003 l 821 1003 l 821 914 z "},"U":{"ha":1040,"x_min":125,"x_max":922,"o":"m 524 -10 q 317 41 408 -10 q 176 183 226 92 q 125 390 125 274 l 125 1003 l 225 1003 l 225 389 q 263 228 225 299 q 369 119 301 158 q 524 79 438 79 q 678 119 610 79 q 784 228 746 158 q 822 389 822 299 l 822 1003 l 922 1003 l 922 390 q 872 183 922 274 q 730 41 821 92 q 524 -10 639 -10 z "},"V":{"ha":1132,"x_min":99,"x_max":1033,"o":"m 629 0 l 521 0 l 99 1003 l 207 1003 l 574 117 l 925 1003 l 1033 1003 l 629 0 z "},"W":{"ha":1542,"x_min":108,"x_max":1433,"o":"m 1128 0 l 1024 0 l 769 829 l 519 0 l 414 0 l 108 1003 l 213 1003 l 467 158 l 718 1003 l 821 1003 l 1075 158 l 1329 1003 l 1433 1003 l 1128 0 z "},"X":{"ha":1085,"x_min":99,"x_max":986,"o":"m 601 503 l 986 0 l 860 0 l 542 415 l 225 0 l 99 0 l 483 503 l 99 1003 l 225 1003 l 542 590 l 860 1003 l 986 1003 l 601 503 z "},"Y":{"ha":1094,"x_min":99,"x_max":996,"o":"m 597 392 l 597 0 l 497 0 l 497 392 l 99 1003 l 218 1003 l 547 485 l 876 1003 l 996 1003 l 597 392 z "},"Z":{"ha":860,"x_min":68,"x_max":792,"o":"m 792 904 l 185 89 l 792 89 l 792 0 l 68 0 l 68 99 l 675 914 l 68 914 l 68 1003 l 792 1003 l 792 904 z "},"a":{"ha":863,"x_min":81,"x_max":754,"o":"m 418 79 q 535 114 481 79 q 624 210 590 149 q 657 347 657 272 q 624 483 657 422 q 535 579 590 544 q 418 614 481 614 q 296 580 350 614 q 211 485 242 546 q 181 347 181 425 q 211 208 181 269 q 296 113 242 147 q 418 79 350 79 m 81 347 q 124 531 81 450 q 243 658 167 613 q 417 703 319 703 q 545 667 482 703 q 654 557 608 631 l 654 707 l 754 707 l 754 0 l 654 0 l 654 139 q 545 26 607 61 q 417 -10 483 -10 q 243 35 319 -10 q 124 162 167 81 q 81 347 81 243 z "},"b":{"ha":869,"x_min":108,"x_max":789,"o":"m 449 -11 q 317 24 382 -11 q 208 139 253 58 l 208 0 l 108 0 l 108 1003 l 208 1003 l 208 558 q 318 672 254 638 q 450 707 382 707 q 626 661 549 707 q 746 534 703 615 q 789 349 789 453 q 746 163 789 244 q 625 35 703 81 q 449 -11 547 -11 m 208 349 q 241 214 208 276 q 328 115 274 151 q 447 78 383 78 q 572 113 517 78 q 658 209 628 147 q 689 349 689 271 q 658 488 689 426 q 572 584 628 550 q 447 618 517 618 q 328 581 383 618 q 241 483 274 544 q 208 349 208 421 z "},"c":{"ha":699,"x_min":51,"x_max":667,"o":"m 406 88 q 507 109 454 88 q 594 165 560 131 l 667 101 q 548 24 619 54 q 411 -7 476 -7 q 225 39 307 -7 q 97 166 143 85 q 51 351 51 247 q 97 537 51 456 q 225 663 143 618 q 411 708 307 708 q 548 678 476 708 q 667 600 619 647 l 594 536 q 507 592 560 571 q 406 614 454 614 q 274 581 332 614 q 184 488 217 547 q 151 351 151 428 q 184 215 151 275 q 274 121 217 154 q 406 88 332 88 z "},"d":{"ha":869,"x_min":81,"x_max":761,"o":"m 418 -11 q 243 35 319 -11 q 124 163 167 81 q 81 349 81 244 q 124 535 81 453 q 243 663 167 617 q 418 708 319 708 q 555 671 490 708 q 661 557 619 633 l 661 1003 l 761 1003 l 761 0 l 661 0 l 661 140 q 553 26 618 64 q 418 -11 489 -11 m 181 349 q 211 209 181 271 q 297 113 242 147 q 422 78 353 78 q 540 115 485 78 q 628 214 596 151 q 661 349 661 276 q 628 483 661 421 q 540 583 596 546 q 422 619 485 619 q 297 585 353 619 q 211 488 242 550 q 181 349 181 426 z "},"e":{"ha":813,"x_min":81,"x_max":731,"o":"m 629 393 q 570 557 619 493 q 418 621 521 621 q 261 557 326 621 q 183 392 196 493 l 629 393 m 81 353 q 123 538 81 457 q 241 665 165 619 q 414 710 317 710 q 615 644 553 710 q 703 518 678 579 q 731 357 731 443 q 728 304 731 326 l 183 304 q 262 146 197 207 q 415 85 326 85 q 533 108 486 85 q 594 147 579 131 q 632 197 608 164 l 710 151 q 603 41 678 86 q 414 -4 528 -4 q 241 41 317 -4 q 123 167 165 86 q 81 353 81 249 z "},"f":{"ha":596,"x_min":61,"x_max":535,"o":"m 189 0 l 189 618 l 61 618 l 61 707 l 189 707 l 189 815 q 247 964 189 906 q 397 1022 306 1022 q 472 1008 436 1022 q 535 969 507 994 l 471 901 q 435 926 453 918 q 397 933 418 933 q 319 901 350 933 q 289 815 289 868 l 289 707 l 493 707 l 493 618 l 289 618 l 289 0 l 189 0 z "},"g":{"ha":863,"x_min":81,"x_max":754,"o":"m 418 79 q 537 116 482 79 q 623 215 592 153 q 654 347 654 276 q 622 478 654 417 q 536 576 590 539 q 418 613 482 613 q 296 578 350 613 q 211 484 242 544 q 181 347 181 424 q 211 208 181 269 q 296 113 242 147 q 418 79 350 79 m 81 347 q 124 531 81 450 q 243 656 167 611 q 417 701 319 701 q 559 663 496 701 q 654 556 622 624 l 654 707 l 754 707 l 754 35 q 710 -149 753 -68 q 590 -274 667 -229 q 410 -318 513 -318 q 251 -278 324 -318 q 125 -160 178 -239 l 207 -110 q 297 -199 244 -169 q 410 -229 349 -229 q 587 -156 521 -229 q 654 36 653 -82 l 654 142 q 551 33 618 76 q 417 -10 485 -10 q 243 35 319 -10 q 124 162 167 81 q 81 347 81 243 z "},"h":{"ha":817,"x_min":115,"x_max":701,"o":"m 601 397 q 551 553 601 493 q 424 614 501 614 q 320 581 368 614 q 244 491 272 547 q 215 369 215 435 l 215 0 l 115 0 l 115 1003 l 215 1003 l 215 574 q 299 666 242 629 q 424 703 356 703 q 567 665 504 703 q 666 558 631 626 q 701 403 701 490 l 701 0 l 601 0 l 601 397 z "},"i":{"ha":314,"x_min":99,"x_max":225,"o":"m 213 707 l 213 0 l 113 0 l 113 707 l 213 707 m 99 950 q 117 995 99 978 q 163 1013 135 1013 q 208 995 190 1013 q 225 950 225 978 q 208 904 225 922 q 163 886 190 886 q 117 904 135 886 q 99 950 99 922 z "},"j":{"ha":315,"x_min":-75,"x_max":229,"o":"m -58 -214 q -26 -220 -51 -215 q 25 -225 0 -225 q 90 -192 64 -225 q 115 -114 115 -160 l 115 707 l 215 707 l 215 -114 q 162 -260 215 -203 q 25 -317 108 -317 q -75 -306 -12 -317 l -58 -214 m 103 950 q 121 995 103 978 q 167 1013 139 1013 q 212 995 194 1013 q 229 950 229 978 q 212 904 229 922 q 167 886 194 886 q 121 904 139 886 q 103 950 103 922 z "},"k":{"ha":744,"x_min":114,"x_max":679,"o":"m 214 333 l 535 707 l 667 707 l 399 396 l 679 0 l 557 0 l 328 321 l 214 182 l 214 0 l 114 0 l 114 1003 l 214 1003 l 214 333 z "},"l":{"ha":292,"x_min":96,"x_max":196,"o":"m 196 1003 l 196 0 l 96 0 l 96 1003 l 196 1003 z "},"m":{"ha":1233,"x_min":117,"x_max":1129,"o":"m 1029 433 q 983 567 1029 515 q 864 618 936 618 q 726 570 779 618 q 672 447 672 522 l 672 0 l 572 0 l 572 433 q 527 567 572 515 q 410 618 482 618 q 310 590 354 618 q 242 515 267 561 q 217 417 217 469 l 217 0 l 117 0 l 117 707 l 217 707 l 217 586 q 301 673 247 639 q 410 707 356 707 q 542 667 479 707 q 632 565 604 628 q 729 667 664 628 q 864 707 794 707 q 1001 674 940 707 q 1095 581 1061 640 q 1129 444 1129 521 l 1129 0 l 1029 0 l 1029 433 z "},"n":{"ha":793,"x_min":107,"x_max":700,"o":"m 600 417 q 549 562 600 506 q 419 618 499 618 q 310 590 358 618 q 234 515 261 561 q 207 417 207 469 l 207 0 l 107 0 l 107 707 l 207 707 l 207 586 q 303 673 243 639 q 419 707 363 707 q 565 672 501 707 q 665 572 629 636 q 700 426 700 508 l 700 0 l 600 0 l 600 417 z "},"o":{"ha":835,"x_min":81,"x_max":754,"o":"m 417 83 q 539 117 485 83 q 624 213 593 151 q 654 353 654 275 q 624 492 654 431 q 539 588 593 554 q 417 622 485 622 q 294 588 349 622 q 210 492 240 554 q 181 353 181 431 q 210 213 181 275 q 294 117 240 151 q 417 83 349 83 m 81 353 q 124 538 81 457 q 243 665 167 619 q 417 711 319 711 q 592 665 515 711 q 711 538 668 619 q 754 353 754 457 q 711 167 754 249 q 592 40 668 86 q 417 -6 515 -6 q 243 40 319 -6 q 124 167 167 86 q 81 353 81 249 z "},"p":{"ha":874,"x_min":115,"x_max":793,"o":"m 454 78 q 578 113 524 78 q 663 209 632 147 q 693 349 693 271 q 663 488 693 426 q 578 583 632 549 q 454 617 524 617 q 337 580 392 617 q 249 482 282 543 q 217 349 217 421 q 249 214 217 276 q 337 115 282 151 q 454 78 392 78 m 115 707 l 215 707 l 215 557 q 316 667 247 628 q 456 706 385 706 q 631 660 554 706 q 750 534 707 615 q 793 349 793 453 q 750 163 793 244 q 631 35 707 81 q 456 -11 554 -11 q 318 31 388 -11 q 215 139 249 72 l 215 -319 l 115 -319 l 115 707 z "},"q":{"ha":853,"x_min":81,"x_max":758,"o":"m 419 92 q 538 125 483 92 q 624 217 592 158 q 657 349 657 276 q 624 482 657 421 q 537 580 592 543 q 419 617 482 617 q 296 583 350 617 q 211 488 242 549 q 181 349 181 426 q 211 215 181 274 q 296 124 242 157 q 419 92 350 92 m 81 349 q 124 534 81 453 q 243 660 167 615 q 418 706 319 706 q 558 667 489 706 q 658 557 626 628 l 658 707 l 758 707 l 758 -319 l 658 -319 l 658 139 q 556 31 625 72 q 418 -11 486 -11 q 243 35 319 -11 q 124 163 167 81 q 81 349 81 244 z "},"r":{"ha":511,"x_min":100,"x_max":451,"o":"m 200 558 q 299 670 229 626 q 451 714 369 714 l 451 617 q 328 582 386 617 q 235 489 269 547 q 200 364 200 431 l 200 0 l 100 0 l 100 707 l 200 707 l 200 558 z "},"s":{"ha":669,"x_min":81,"x_max":589,"o":"m 161 204 q 242 111 193 143 q 338 79 292 79 q 449 110 408 79 q 489 194 489 142 q 468 250 489 228 q 417 286 447 272 q 329 319 386 300 q 216 365 260 343 q 142 425 172 386 q 111 525 111 464 q 174 662 111 611 q 342 713 238 713 q 480 672 411 713 q 572 549 549 631 l 482 518 q 425 600 465 576 q 342 624 385 624 q 246 597 281 624 q 211 525 211 571 q 232 469 211 492 q 283 433 253 447 q 371 400 314 419 q 484 355 440 376 q 558 294 528 333 q 589 194 589 256 q 520 46 589 101 q 338 -10 451 -10 q 192 33 258 -10 q 81 156 126 75 l 161 204 z "},"t":{"ha":546,"x_min":54,"x_max":444,"o":"m 360 -3 q 225 51 278 -3 q 169 192 172 106 l 169 617 l 54 617 l 54 706 l 169 706 l 169 889 l 269 889 l 269 706 l 421 706 l 421 617 l 269 617 l 269 200 q 295 122 269 154 q 360 89 321 89 q 403 92 385 89 q 428 97 421 96 l 444 6 q 360 -3 397 -3 z "},"u":{"ha":793,"x_min":107,"x_max":700,"o":"m 207 290 q 258 139 207 200 q 389 78 310 78 q 541 133 482 78 q 600 275 600 188 l 600 707 l 700 707 l 700 0 l 600 0 l 600 106 q 506 22 565 54 q 389 -11 447 -11 q 244 27 308 -11 q 143 131 179 65 q 107 279 107 197 l 107 707 l 207 707 l 207 290 z "},"v":{"ha":818,"x_min":67,"x_max":751,"o":"m 458 0 l 361 0 l 67 707 l 175 707 l 410 129 l 643 707 l 751 707 l 458 0 z "},"w":{"ha":1083,"x_min":74,"x_max":1024,"o":"m 813 0 l 718 0 l 549 538 l 383 0 l 289 0 l 74 707 l 179 707 l 336 169 l 496 707 l 600 707 l 765 169 l 918 707 l 1024 707 l 813 0 z "},"x":{"ha":772,"x_min":67,"x_max":706,"o":"m 438 353 l 706 0 l 579 0 l 386 263 l 193 0 l 67 0 l 333 353 l 67 707 l 193 707 l 386 442 l 579 707 l 706 707 l 438 353 z "},"y":{"ha":815,"x_min":76,"x_max":749,"o":"m 232 -306 l 365 26 l 76 707 l 186 707 l 418 146 l 640 707 l 749 707 l 479 43 l 340 -306 l 232 -306 z "},"z":{"ha":675,"x_min":78,"x_max":597,"o":"m 597 607 l 196 89 l 597 89 l 597 0 l 78 0 l 78 100 l 479 618 l 78 618 l 78 707 l 597 707 l 597 607 z "},"가":{"ha":1214,"x_min":65,"x_max":1185,"o":"m 989 1115 l 989 618 l 1185 618 l 1185 531 l 989 531 l 989 -101 l 883 -101 l 883 1115 l 989 1115 m 65 213 q 425 504 297 329 q 571 897 553 679 l 121 897 l 121 983 l 676 983 q 542 494 676 714 q 124 132 407 274 l 65 213 z "},"각":{"ha":1214,"x_min":56,"x_max":1179,"o":"m 997 1114 l 997 804 l 1179 804 l 1179 717 l 997 717 l 997 400 l 893 400 l 893 1114 l 997 1114 m 56 497 q 410 676 279 557 q 557 950 542 794 l 110 950 l 110 1035 l 667 1035 q 517 649 667 810 q 99 414 368 488 l 56 497 m 211 344 l 997 344 l 997 -101 l 893 -101 l 893 258 l 211 258 l 211 344 z "},"갂":{"ha":1214,"x_min":0,"x_max":0,"o":""},"갃":{"ha":1214,"x_min":0,"x_max":0,"o":""},"간":{"ha":1214,"x_min":58,"x_max":1179,"o":"m 997 1114 l 997 743 l 1179 743 l 1179 656 l 997 656 l 997 225 l 893 225 l 893 1114 l 997 1114 m 58 450 q 410 644 278 518 q 560 933 543 771 l 108 933 l 108 1019 l 672 1019 q 521 619 672 789 q 103 365 369 450 l 58 450 m 243 315 l 347 315 l 347 13 l 1053 13 l 1053 -74 l 243 -74 l 243 315 z "},"갅":{"ha":1214,"x_min":0,"x_max":0,"o":""},"갆":{"ha":1214,"x_min":0,"x_max":0,"o":""},"갇":{"ha":1214,"x_min":57,"x_max":1179,"o":"m 997 1114 l 997 813 l 1179 813 l 1179 726 l 997 726 l 997 424 l 893 424 l 893 1114 l 997 1114 m 57 494 q 411 674 281 556 q 557 950 542 793 l 110 950 l 110 1035 l 668 1035 q 518 647 668 808 q 97 411 368 485 l 57 494 m 238 356 l 1003 356 l 1003 271 l 340 271 l 340 0 l 1026 0 l 1026 -85 l 238 -85 l 238 356 z "},"갈":{"ha":1214,"x_min":60,"x_max":1179,"o":"m 997 1114 l 997 839 l 1179 839 l 1179 751 l 997 751 l 997 496 l 893 496 l 893 1114 l 997 1114 m 60 551 q 413 712 283 603 q 556 968 542 821 l 111 968 l 111 1054 l 669 1054 q 519 680 669 831 q 99 465 368 529 l 60 551 m 229 439 l 997 439 l 997 140 l 335 140 l 335 -6 l 1042 -6 l 1042 -89 l 232 -89 l 232 222 l 894 222 l 894 356 l 229 356 l 229 439 z "},"갉":{"ha":1214,"x_min":60,"x_max":1181,"o":"m 997 1114 l 997 832 l 1181 832 l 1181 743 l 997 743 l 997 463 l 893 463 l 893 1114 l 997 1114 m 60 539 q 414 703 286 594 q 556 963 542 813 l 115 963 l 115 1049 l 671 1049 q 521 672 671 824 q 99 454 371 519 l 60 539 m 179 407 l 575 407 l 575 128 l 283 128 l 283 -7 q 495 -2 417 -7 q 654 19 574 3 l 665 -60 q 495 -83 579 -78 q 253 -87 411 -87 l 182 -87 l 182 204 l 474 204 l 474 325 l 179 325 l 179 407 m 626 407 l 997 407 l 997 -96 l 894 -96 l 894 322 l 626 322 l 626 407 z "},"갊":{"ha":1214,"x_min":60,"x_max":1179,"o":"m 543 408 l 543 133 l 264 133 l 264 -3 q 435 1 369 -3 q 569 19 500 6 l 579 -64 q 426 -82 500 -78 q 226 -86 351 -86 l 163 -86 l 163 210 l 442 210 l 442 326 l 160 326 l 160 408 l 543 408 m 60 547 q 413 707 285 599 q 554 963 542 815 l 114 963 l 114 1049 l 671 1049 q 520 675 671 825 q 99 461 369 525 l 60 547 m 617 408 l 997 408 l 997 -90 l 617 -90 l 617 408 m 906 -11 l 906 328 l 710 328 l 710 -11 l 906 -11 m 893 1114 l 997 1114 l 997 831 l 1179 831 l 1179 743 l 997 743 l 997 465 l 893 465 l 893 1114 z "},"갋":{"ha":1214,"x_min":60,"x_max":1179,"o":"m 997 1114 l 997 838 l 1179 838 l 1179 750 l 997 750 l 997 465 l 893 465 l 893 1114 l 997 1114 m 60 554 q 413 714 285 606 q 554 969 542 822 l 114 969 l 114 1056 l 671 1056 q 520 682 671 832 q 99 468 369 532 l 60 554 m 161 403 l 542 403 l 542 132 l 264 132 l 264 -3 q 435 1 369 -3 q 569 19 500 6 l 578 -60 q 429 -79 500 -75 q 225 -83 358 -83 l 164 -83 l 164 204 l 440 204 l 440 324 l 161 324 l 161 403 m 611 417 l 706 417 l 706 256 l 901 256 l 901 417 l 997 417 l 997 -85 l 611 -85 l 611 417 m 901 -1 l 901 176 l 706 176 l 706 -1 l 901 -1 z "},"갌":{"ha":1214,"x_min":0,"x_max":0,"o":""},"갍":{"ha":1214,"x_min":0,"x_max":0,"o":""},"갎":{"ha":1214,"x_min":0,"x_max":0,"o":""},"갏":{"ha":1214,"x_min":0,"x_max":0,"o":""},"감":{"ha":1214,"x_min":57,"x_max":1179,"o":"m 997 1114 l 997 815 l 1179 815 l 1179 728 l 997 728 l 997 424 l 893 424 l 893 1114 l 997 1114 m 57 496 q 410 674 279 556 q 557 950 542 793 l 110 950 l 110 1035 l 668 1035 q 518 647 668 808 q 97 413 368 486 l 57 496 m 235 367 l 997 367 l 997 -83 l 235 -83 l 235 367 m 894 1 l 894 282 l 338 282 l 338 1 l 894 1 z "},"갑":{"ha":1214,"x_min":60,"x_max":1179,"o":"m 997 1114 l 997 825 l 1179 825 l 1179 738 l 997 738 l 997 457 l 893 457 l 893 1114 l 997 1114 m 60 528 q 413 693 283 582 q 556 954 542 804 l 113 954 l 113 1040 l 669 1040 q 519 663 669 817 q 100 443 369 510 l 60 528 m 232 400 l 336 400 l 336 244 l 893 244 l 893 400 l 997 400 l 997 -85 l 232 -85 l 232 400 m 893 0 l 893 161 l 336 161 l 336 0 l 893 0 z "},"값":{"ha":1214,"x_min":60,"x_max":1179,"o":"m 997 1114 l 997 831 l 1179 831 l 1179 743 l 997 743 l 997 453 l 893 453 l 893 1114 l 997 1114 m 60 528 q 413 693 283 582 q 556 956 542 804 l 114 956 l 114 1040 l 669 1040 q 519 662 669 815 q 100 442 369 508 l 60 528 m 190 390 l 288 390 l 288 242 l 508 242 l 508 390 l 604 390 l 604 -83 l 190 -83 l 190 390 m 508 -3 l 508 160 l 288 160 l 288 -3 l 508 -3 m 614 -18 q 770 117 714 28 q 826 300 826 207 l 826 401 l 926 401 l 926 304 q 981 118 926 208 q 1136 -18 1036 28 l 1082 -96 q 956 -3 1008 -62 q 876 131 904 56 q 796 -2 849 57 q 669 -96 743 -61 l 614 -18 z "},"갓":{"ha":1214,"x_min":60,"x_max":1179,"o":"m 672 1019 q 522 622 672 789 q 104 372 372 454 l 60 456 q 414 648 282 522 q 561 935 546 774 l 114 935 l 114 1019 l 672 1019 m 174 -12 q 375 58 282 7 q 525 182 468 108 q 582 343 582 256 l 582 397 l 685 397 l 685 343 q 742 183 685 257 q 892 60 799 110 q 1092 -10 985 10 l 1047 -92 q 798 7 910 -65 q 633 183 686 79 q 468 6 581 78 q 215 -94 356 -67 l 174 -12 m 926 1117 l 1031 1117 l 1031 774 l 1179 774 l 1179 686 l 1031 686 l 1031 308 l 926 308 l 926 1117 z "},"갔":{"ha":1214,"x_min":57,"x_max":1179,"o":"m 997 1117 l 997 808 l 1179 808 l 1179 721 l 997 721 l 997 433 l 893 433 l 893 1117 l 997 1117 m 57 494 q 411 675 281 556 q 557 950 542 794 l 113 950 l 113 1035 l 669 1035 q 519 647 669 808 q 99 410 369 485 l 57 494 m 108 -11 q 238 65 182 15 q 323 176 293 115 q 353 296 353 236 l 353 386 l 453 386 l 453 296 q 497 131 453 210 q 625 3 542 51 q 753 138 707 56 q 800 296 800 221 l 800 386 l 901 386 l 901 296 q 968 113 901 199 q 1147 -11 1035 28 l 1094 -89 q 945 5 1008 -56 q 850 143 882 65 q 765 0 821 64 q 626 -99 708 -64 q 486 -3 543 -65 q 400 142 429 60 q 306 4 368 65 q 160 -89 244 -57 l 108 -11 z "},"강":{"ha":1214,"x_min":58,"x_max":1179,"o":"m 997 1114 l 997 796 l 1179 796 l 1179 708 l 997 708 l 997 385 l 893 385 l 893 1114 l 997 1114 m 58 468 q 410 656 279 533 q 557 938 542 778 l 111 938 l 111 1024 l 669 1024 q 519 628 669 794 q 103 383 369 463 l 58 468 m 224 135 q 330 306 224 243 q 618 369 436 369 q 905 306 799 369 q 1011 135 1011 243 q 905 -36 1011 26 q 618 -99 799 -99 q 330 -36 436 -99 q 224 135 224 26 m 326 135 q 406 26 326 67 q 618 -15 486 -15 q 831 26 751 -15 q 910 135 910 67 q 831 246 910 206 q 618 286 753 286 q 406 246 485 286 q 326 135 326 206 z "},"갖":{"ha":1214,"x_min":60,"x_max":1179,"o":"m 997 1117 l 997 800 l 1179 800 l 1179 713 l 997 713 l 997 417 l 893 417 l 893 1117 l 997 1117 m 60 506 q 413 681 285 565 q 557 950 542 796 l 113 950 l 113 1035 l 669 1035 q 520 651 669 808 q 99 421 371 493 l 60 506 m 179 -18 q 369 42 281 -1 q 513 145 458 85 q 568 272 567 206 l 226 272 l 226 357 l 1019 357 l 1019 272 l 678 272 q 735 146 681 207 q 877 42 789 85 q 1065 -19 965 -1 l 1025 -100 q 783 -10 892 -75 q 624 147 674 56 q 465 -9 574 56 q 221 -99 356 -74 l 179 -18 z "},"갗":{"ha":1214,"x_min":60,"x_max":1179,"o":"m 669 1033 q 521 655 669 808 q 100 433 372 501 l 60 519 q 415 687 286 574 q 556 949 543 800 l 114 949 l 114 1033 l 669 1033 m 176 -21 q 365 35 276 -6 q 508 135 453 76 q 568 257 564 193 l 215 257 l 215 342 l 568 342 l 568 488 l 672 488 l 672 342 l 1024 342 l 1024 257 l 674 257 q 733 133 678 192 q 876 35 788 75 q 1065 -21 965 -6 l 1025 -100 q 781 -15 892 -78 q 619 136 671 47 q 459 -15 568 47 q 217 -100 350 -78 l 176 -21 m 893 1114 l 997 1114 l 997 828 l 1179 828 l 1179 740 l 997 740 l 997 443 l 893 443 l 893 1114 z "},"갘":{"ha":1214,"x_min":0,"x_max":0,"o":""},"같":{"ha":1214,"x_min":63,"x_max":1179,"o":"m 997 1114 l 997 829 l 1179 829 l 1179 742 l 997 742 l 997 464 l 893 464 l 893 1114 l 997 1114 m 63 525 q 417 687 289 576 q 557 944 546 797 l 111 944 l 111 1029 l 674 1029 q 524 655 674 806 q 104 440 375 504 l 63 525 m 236 408 l 1003 408 l 1003 328 l 339 328 l 339 204 l 990 204 l 990 126 l 339 126 l 339 -4 l 1032 -4 l 1032 -85 l 236 -85 l 236 408 z "},"갚":{"ha":1214,"x_min":60,"x_max":1179,"o":"m 997 1114 l 997 821 l 1179 821 l 1179 735 l 997 735 l 997 436 l 893 436 l 893 1114 l 997 1114 m 60 515 q 410 685 278 571 q 557 949 543 799 l 117 949 l 117 1033 l 672 1033 q 518 654 672 811 q 100 428 364 497 l 60 515 m 215 6 l 396 6 l 396 292 l 225 292 l 225 376 l 1029 376 l 1029 292 l 860 292 l 860 6 l 1044 6 l 1044 -79 l 215 -79 l 215 6 m 758 6 l 758 292 l 499 292 l 499 6 l 758 6 z "},"갛":{"ha":1214,"x_min":60,"x_max":1179,"o":"m 997 1114 l 997 840 l 1179 840 l 1179 754 l 997 754 l 997 472 l 893 472 l 893 1114 l 997 1114 m 60 531 q 415 694 289 585 q 556 957 542 804 l 110 957 l 110 1043 l 669 1043 q 522 663 669 815 q 99 444 374 511 l 60 531 m 206 386 l 575 386 l 575 531 l 679 531 l 679 386 l 1051 386 l 1051 304 l 206 304 l 206 386 m 290 74 q 379 201 290 156 q 628 246 468 246 q 875 201 786 246 q 964 74 964 156 q 875 -55 964 -10 q 628 -100 786 -100 q 379 -55 468 -100 q 290 74 290 -10 m 389 74 q 452 1 389 26 q 628 -24 515 -24 q 803 1 740 -24 q 865 74 865 26 q 803 144 865 118 q 628 169 740 169 q 452 144 515 169 q 389 74 389 118 z "},"개":{"ha":1214,"x_min":57,"x_max":1083,"o":"m 1083 1114 l 1083 -101 l 982 -101 l 982 536 l 813 536 l 813 -40 l 713 -40 l 713 1082 l 813 1082 l 813 622 l 982 622 l 982 1114 l 1083 1114 m 57 236 q 471 869 443 450 l 101 869 l 101 956 l 574 956 q 469 501 574 704 q 118 160 364 299 l 57 236 z "},"객":{"ha":1214,"x_min":63,"x_max":1078,"o":"m 1078 1114 l 1078 397 l 978 397 l 978 719 l 811 719 l 811 404 l 713 404 l 713 1090 l 811 1090 l 811 806 l 978 806 l 978 1114 l 1078 1114 m 63 461 q 355 660 250 538 q 475 938 460 782 l 111 938 l 111 1024 l 583 1024 q 464 644 583 807 q 115 383 344 482 l 63 461 m 265 339 l 1078 339 l 1078 -101 l 974 -101 l 974 253 l 265 253 l 265 339 z "},"갞":{"ha":1214,"x_min":0,"x_max":0,"o":""},"갟":{"ha":1214,"x_min":0,"x_max":0,"o":""},"갠":{"ha":1214,"x_min":64,"x_max":1117,"o":"m 1078 1114 l 1078 207 l 979 207 l 979 654 l 811 654 l 811 247 l 713 247 l 713 1092 l 811 1092 l 811 740 l 979 740 l 979 1114 l 1078 1114 m 64 424 q 356 628 251 504 q 475 911 460 753 l 113 911 l 113 994 l 582 994 q 464 613 582 778 q 117 347 346 449 l 64 424 m 285 317 l 389 317 l 389 21 l 1117 21 l 1117 -64 l 285 -64 l 285 317 z "},"갡":{"ha":1214,"x_min":0,"x_max":0,"o":""},"갢":{"ha":1214,"x_min":0,"x_max":0,"o":""},"갣":{"ha":1214,"x_min":67,"x_max":1100,"o":"m 1085 336 l 1085 253 l 388 253 l 388 0 l 1100 0 l 1100 -85 l 283 -85 l 283 336 l 1085 336 m 67 465 q 358 662 254 542 q 476 938 461 782 l 113 938 l 113 1024 l 585 1024 q 467 647 585 807 q 121 388 350 486 l 67 465 m 713 1092 l 811 1092 l 811 808 l 978 808 l 978 1114 l 1078 1114 l 1078 410 l 978 410 l 978 722 l 811 722 l 811 419 l 713 419 l 713 1092 z "},"갤":{"ha":1214,"x_min":68,"x_max":1126,"o":"m 1078 1114 l 1078 490 l 979 490 l 979 751 l 813 751 l 813 499 l 714 499 l 714 1090 l 813 1090 l 813 836 l 979 836 l 979 1114 l 1078 1114 m 68 529 q 357 703 254 594 q 474 956 460 811 l 115 956 l 115 1040 l 582 1040 q 463 684 582 832 q 117 453 344 536 l 68 529 m 279 432 l 1078 432 l 1078 143 l 385 143 l 385 0 l 1126 0 l 1126 -85 l 283 -85 l 283 224 l 976 224 l 976 349 l 279 349 l 279 432 z "},"갥":{"ha":1214,"x_min":0,"x_max":0,"o":""},"갦":{"ha":1214,"x_min":0,"x_max":0,"o":""},"갧":{"ha":1214,"x_min":0,"x_max":0,"o":""},"갨":{"ha":1214,"x_min":0,"x_max":0,"o":""},"갩":{"ha":1214,"x_min":0,"x_max":0,"o":""},"갪":{"ha":1214,"x_min":0,"x_max":0,"o":""},"갫":{"ha":1214,"x_min":0,"x_max":0,"o":""},"갬":{"ha":1214,"x_min":67,"x_max":1078,"o":"m 1078 1114 l 1078 417 l 978 417 l 978 726 l 811 726 l 811 425 l 713 425 l 713 1090 l 811 1090 l 811 811 l 978 811 l 978 1114 l 1078 1114 m 67 465 q 358 662 254 542 q 476 938 461 782 l 113 938 l 113 1024 l 585 1024 q 467 647 585 808 q 121 388 349 486 l 67 465 m 282 353 l 1078 353 l 1078 -82 l 282 -82 l 282 353 m 975 3 l 975 268 l 385 268 l 385 3 l 975 3 z "},"갭":{"ha":1214,"x_min":67,"x_max":1078,"o":"m 1078 1114 l 1078 454 l 978 454 l 978 732 l 811 732 l 811 463 l 713 463 l 713 1090 l 811 1090 l 811 818 l 978 818 l 978 1114 l 1078 1114 m 67 490 q 357 678 254 563 q 475 947 460 794 l 115 947 l 115 1031 l 583 1031 q 466 661 583 817 q 119 411 349 506 l 67 490 m 285 399 l 389 399 l 389 250 l 976 250 l 976 399 l 1078 399 l 1078 -82 l 285 -82 l 285 399 m 976 1 l 976 167 l 389 167 l 389 1 l 976 1 z "},"갮":{"ha":1214,"x_min":0,"x_max":0,"o":""},"갯":{"ha":1214,"x_min":67,"x_max":1143,"o":"m 586 1000 q 471 615 586 781 q 121 347 356 449 l 67 425 q 361 630 258 506 q 479 915 464 754 l 118 915 l 118 1000 l 586 1000 m 211 -15 q 413 51 317 3 q 567 169 508 99 q 626 318 626 239 l 626 374 l 731 374 l 731 318 q 790 169 731 239 q 944 51 849 100 q 1143 -15 1039 3 l 1104 -97 q 848 0 964 -71 q 679 172 732 71 q 510 0 626 71 q 253 -97 393 -71 l 211 -15 m 714 1090 l 813 1090 l 813 790 l 979 790 l 979 1114 l 1078 1114 l 1078 319 l 979 319 l 979 704 l 813 704 l 813 432 l 714 432 l 714 1090 z "},"갰":{"ha":1214,"x_min":67,"x_max":1169,"o":"m 1079 1114 l 1079 415 l 979 415 l 979 718 l 813 718 l 813 421 l 714 421 l 714 1090 l 813 1090 l 813 804 l 979 804 l 979 1114 l 1079 1114 m 67 469 q 357 665 251 546 q 476 938 463 785 l 115 938 l 115 1024 l 585 1024 q 466 649 585 810 q 119 390 347 488 l 67 469 m 129 -21 q 259 56 203 6 q 346 166 315 106 q 376 286 376 226 l 376 368 l 476 368 l 476 286 q 520 122 476 200 q 647 -6 564 43 q 777 128 731 46 q 824 286 824 211 l 824 368 l 924 368 l 924 286 q 990 102 924 188 q 1169 -21 1057 17 l 1119 -99 q 967 -4 1031 -65 q 872 136 904 57 q 787 -8 843 57 q 650 -108 731 -72 q 508 -11 564 -74 q 424 133 451 51 q 328 -5 390 56 q 181 -99 265 -65 l 129 -21 z "},"갱":{"ha":1214,"x_min":64,"x_max":1092,"o":"m 1078 1114 l 1078 365 l 978 365 l 978 704 l 811 704 l 811 408 l 713 408 l 713 1090 l 811 1090 l 811 792 l 978 792 l 978 1114 l 1078 1114 m 64 449 q 356 649 250 526 q 476 928 461 771 l 115 928 l 115 1014 l 585 1014 q 465 633 585 797 q 117 371 346 469 l 64 449 m 269 128 q 379 293 269 233 q 681 353 489 353 q 981 293 871 353 q 1092 128 1092 233 q 981 -37 1092 22 q 681 -97 871 -97 q 379 -37 489 -97 q 269 128 269 22 m 372 128 q 456 23 372 61 q 681 -15 539 -15 q 904 23 822 -15 q 986 128 986 61 q 904 233 986 194 q 681 271 822 271 q 456 233 539 271 q 372 128 372 194 z "},"갲":{"ha":1214,"x_min":0,"x_max":0,"o":""},"갳":{"ha":1214,"x_min":0,"x_max":0,"o":""},"갴":{"ha":1214,"x_min":0,"x_max":0,"o":""},"갵":{"ha":1214,"x_min":0,"x_max":0,"o":""},"갶":{"ha":1214,"x_min":0,"x_max":0,"o":""},"갷":{"ha":1214,"x_min":0,"x_max":0,"o":""},"갸":{"ha":1214,"x_min":65,"x_max":1183,"o":"m 989 1115 l 989 785 l 1183 785 l 1183 697 l 989 697 l 989 421 l 1183 421 l 1183 333 l 989 333 l 989 -101 l 883 -101 l 883 1115 l 989 1115 m 65 213 q 425 504 297 329 q 571 897 553 679 l 121 897 l 121 983 l 676 983 q 542 494 676 714 q 124 132 407 274 l 65 213 z "},"갹":{"ha":1214,"x_min":56,"x_max":1179,"o":"m 997 1114 l 997 925 l 1179 925 l 1179 840 l 997 840 l 997 664 l 1179 664 l 1179 579 l 997 579 l 997 400 l 893 400 l 893 1114 l 997 1114 m 56 497 q 410 676 279 557 q 557 950 542 794 l 110 950 l 110 1035 l 667 1035 q 517 649 667 810 q 99 414 368 488 l 56 497 m 211 344 l 997 344 l 997 -101 l 893 -101 l 893 258 l 211 258 l 211 344 z "},"갺":{"ha":1214,"x_min":0,"x_max":0,"o":""},"갻":{"ha":1214,"x_min":0,"x_max":0,"o":""},"갼":{"ha":1214,"x_min":58,"x_max":1179,"o":"m 997 1114 l 997 882 l 1179 882 l 1179 796 l 997 796 l 997 583 l 1179 583 l 1179 497 l 997 497 l 997 225 l 893 225 l 893 1114 l 997 1114 m 58 450 q 410 644 278 518 q 560 933 543 771 l 108 933 l 108 1019 l 672 1019 q 521 619 672 789 q 103 365 369 450 l 58 450 m 243 315 l 347 315 l 347 13 l 1053 13 l 1053 -74 l 243 -74 l 243 315 z "},"갽":{"ha":1214,"x_min":0,"x_max":0,"o":""},"갾":{"ha":1214,"x_min":0,"x_max":0,"o":""},"갿":{"ha":1214,"x_min":0,"x_max":0,"o":""},"걀":{"ha":1214,"x_min":60,"x_max":1179,"o":"m 997 1114 l 997 960 l 1179 960 l 1179 874 l 997 874 l 997 719 l 1179 719 l 1179 635 l 997 635 l 997 496 l 893 496 l 893 1114 l 997 1114 m 60 551 q 413 712 283 603 q 556 968 542 821 l 111 968 l 111 1054 l 669 1054 q 519 680 669 831 q 99 465 368 529 l 60 551 m 229 439 l 997 439 l 997 140 l 335 140 l 335 -6 l 1042 -6 l 1042 -89 l 232 -89 l 232 222 l 894 222 l 894 356 l 229 356 l 229 439 z "},"걁":{"ha":1214,"x_min":0,"x_max":0,"o":""},"걂":{"ha":1214,"x_min":0,"x_max":0,"o":""},"걃":{"ha":1214,"x_min":0,"x_max":0,"o":""},"걄":{"ha":1214,"x_min":0,"x_max":0,"o":""},"걅":{"ha":1214,"x_min":0,"x_max":0,"o":""},"걆":{"ha":1214,"x_min":0,"x_max":0,"o":""},"걇":{"ha":1214,"x_min":0,"x_max":0,"o":""},"걈":{"ha":1214,"x_min":0,"x_max":0,"o":""},"걉":{"ha":1214,"x_min":0,"x_max":0,"o":""},"걊":{"ha":1214,"x_min":0,"x_max":0,"o":""},"걋":{"ha":1214,"x_min":60,"x_max":1179,"o":"m 997 1114 l 997 903 l 1179 903 l 1179 815 l 997 815 l 997 610 l 1179 610 l 1179 524 l 997 524 l 997 307 l 893 307 l 893 1114 l 997 1114 m 60 456 q 414 648 282 522 q 561 935 546 774 l 114 935 l 114 1019 l 672 1019 q 522 622 672 789 q 104 372 372 454 l 60 456 m 174 -14 q 375 56 282 6 q 525 181 468 107 q 582 342 582 254 l 582 396 l 685 396 l 685 342 q 742 182 685 256 q 892 58 799 108 q 1092 -11 985 8 l 1046 -93 q 797 6 908 -65 q 633 182 686 78 q 467 3 581 76 q 215 -97 354 -69 l 174 -14 z "},"걌":{"ha":1214,"x_min":0,"x_max":0,"o":""},"걍":{"ha":1214,"x_min":58,"x_max":1178,"o":"m 997 1114 l 997 919 l 1178 919 l 1178 833 l 997 833 l 997 653 l 1178 653 l 1178 567 l 997 567 l 997 385 l 893 385 l 893 1114 l 997 1114 m 58 468 q 410 656 279 533 q 557 938 542 778 l 111 938 l 111 1024 l 669 1024 q 519 628 669 794 q 103 383 369 463 l 58 468 m 224 135 q 330 306 224 243 q 618 369 436 369 q 905 306 799 369 q 1011 135 1011 243 q 905 -36 1011 26 q 618 -99 799 -99 q 330 -36 436 -99 q 224 135 224 26 m 326 135 q 406 26 326 67 q 618 -15 486 -15 q 831 26 751 -15 q 910 135 910 67 q 831 246 910 206 q 618 286 753 286 q 406 246 485 286 q 326 135 326 206 z "},"걎":{"ha":1214,"x_min":0,"x_max":0,"o":""},"걏":{"ha":1214,"x_min":0,"x_max":0,"o":""},"걐":{"ha":1214,"x_min":0,"x_max":0,"o":""},"걑":{"ha":1214,"x_min":0,"x_max":0,"o":""},"걒":{"ha":1214,"x_min":0,"x_max":0,"o":""},"걓":{"ha":1214,"x_min":0,"x_max":0,"o":""},"걔":{"ha":1214,"x_min":57,"x_max":1083,"o":"m 1083 1114 l 1083 -101 l 982 -101 l 982 365 l 813 365 l 813 -40 l 713 -40 l 713 1082 l 813 1082 l 813 794 l 982 794 l 982 1114 l 1083 1114 m 57 236 q 471 869 443 450 l 101 869 l 101 956 l 574 956 q 469 501 574 704 q 118 160 364 299 l 57 236 m 982 451 l 982 708 l 813 708 l 813 451 l 982 451 z "},"걕":{"ha":1214,"x_min":0,"x_max":0,"o":""},"걖":{"ha":1214,"x_min":0,"x_max":0,"o":""},"걗":{"ha":1214,"x_min":0,"x_max":0,"o":""},"걘":{"ha":1214,"x_min":64,"x_max":1117,"o":"m 1078 1114 l 1078 207 l 979 207 l 979 497 l 811 497 l 811 247 l 713 247 l 713 1092 l 811 1092 l 811 878 l 979 878 l 979 1114 l 1078 1114 m 64 424 q 356 628 251 504 q 475 911 460 753 l 113 911 l 113 994 l 582 994 q 464 613 582 778 q 117 347 346 449 l 64 424 m 285 317 l 389 317 l 389 21 l 1117 21 l 1117 -64 l 285 -64 l 285 317 m 979 582 l 979 793 l 811 793 l 811 582 l 979 582 z "},"걙":{"ha":1214,"x_min":0,"x_max":0,"o":""},"걚":{"ha":1214,"x_min":0,"x_max":0,"o":""},"걛":{"ha":1214,"x_min":0,"x_max":0,"o":""},"걜":{"ha":1214,"x_min":68,"x_max":1126,"o":"m 1078 1114 l 1078 490 l 979 490 l 979 635 l 813 635 l 813 499 l 714 499 l 714 1090 l 813 1090 l 813 944 l 979 944 l 979 1114 l 1078 1114 m 68 526 q 356 702 253 593 q 474 956 458 811 l 115 956 l 115 1042 l 582 1042 q 463 684 582 833 q 117 449 344 535 l 68 526 m 279 429 l 1078 429 l 1078 135 l 385 135 l 385 -8 l 1126 -8 l 1126 -93 l 283 -93 l 283 215 l 976 215 l 976 346 l 279 346 l 279 429 m 979 715 l 979 863 l 813 863 l 813 715 l 979 715 z "},"걝":{"ha":1214,"x_min":0,"x_max":0,"o":""},"걞":{"ha":1214,"x_min":0,"x_max":0,"o":""},"걟":{"ha":1214,"x_min":0,"x_max":0,"o":""},"걠":{"ha":1214,"x_min":0,"x_max":0,"o":""},"걡":{"ha":1214,"x_min":0,"x_max":0,"o":""},"걢":{"ha":1214,"x_min":0,"x_max":0,"o":""},"걣":{"ha":1214,"x_min":0,"x_max":0,"o":""},"걤":{"ha":1214,"x_min":0,"x_max":0,"o":""},"걥":{"ha":1214,"x_min":67,"x_max":1078,"o":"m 1078 1114 l 1078 454 l 978 454 l 978 611 l 811 611 l 811 463 l 713 463 l 713 1090 l 811 1090 l 811 940 l 978 940 l 978 1114 l 1078 1114 m 67 490 q 357 678 254 563 q 475 947 460 794 l 115 947 l 115 1031 l 583 1031 q 466 661 583 817 q 119 411 349 506 l 67 490 m 285 399 l 389 399 l 389 250 l 976 250 l 976 399 l 1078 399 l 1078 -82 l 285 -82 l 285 399 m 976 1 l 976 167 l 389 167 l 389 1 l 976 1 m 978 697 l 978 854 l 811 854 l 811 697 l 978 697 z "},"걦":{"ha":1214,"x_min":0,"x_max":0,"o":""},"걧":{"ha":1214,"x_min":0,"x_max":0,"o":""},"걨":{"ha":1214,"x_min":0,"x_max":0,"o":""},"걩":{"ha":1214,"x_min":0,"x_max":0,"o":""},"걪":{"ha":1214,"x_min":0,"x_max":0,"o":""},"걫":{"ha":1214,"x_min":0,"x_max":0,"o":""},"걬":{"ha":1214,"x_min":0,"x_max":0,"o":""},"걭":{"ha":1214,"x_min":0,"x_max":0,"o":""},"걮":{"ha":1214,"x_min":0,"x_max":0,"o":""},"걯":{"ha":1214,"x_min":0,"x_max":0,"o":""},"거":{"ha":1214,"x_min":56,"x_max":1050,"o":"m 1050 1114 l 1050 -101 l 947 -101 l 947 538 l 658 538 l 658 625 l 947 625 l 947 1114 l 1050 1114 m 56 213 q 557 897 524 443 l 107 897 l 107 983 l 661 983 q 114 132 661 404 l 56 213 z "},"걱":{"ha":1214,"x_min":69,"x_max":1053,"o":"m 678 1035 q 528 649 678 810 q 113 413 379 489 l 69 494 q 419 675 289 557 q 565 950 550 793 l 132 950 l 132 1035 l 678 1035 m 243 346 l 1053 346 l 1053 -99 l 949 -99 l 949 260 l 243 260 l 243 346 m 681 793 l 949 793 l 949 1114 l 1053 1114 l 1053 399 l 949 399 l 949 706 l 681 706 l 681 793 z "},"걲":{"ha":1214,"x_min":0,"x_max":0,"o":""},"걳":{"ha":1214,"x_min":0,"x_max":0,"o":""},"건":{"ha":1214,"x_min":74,"x_max":1083,"o":"m 1053 1114 l 1053 215 l 949 215 l 949 650 l 681 650 l 681 738 l 949 738 l 949 1114 l 1053 1114 m 74 440 q 422 641 289 513 q 571 933 554 769 l 135 933 l 135 1019 l 683 1019 q 532 617 683 790 q 118 356 381 444 l 74 440 m 288 307 l 393 307 l 393 13 l 1083 13 l 1083 -74 l 288 -74 l 288 307 z "},"걵":{"ha":1214,"x_min":0,"x_max":0,"o":""},"걶":{"ha":1214,"x_min":0,"x_max":0,"o":""},"걷":{"ha":1214,"x_min":69,"x_max":1076,"o":"m 676 1035 q 526 649 676 810 q 108 411 376 488 l 69 493 q 419 674 289 556 q 565 950 550 793 l 131 950 l 131 1035 l 676 1035 m 272 354 l 1056 354 l 1056 269 l 375 269 l 375 0 l 1076 0 l 1076 -85 l 272 -85 l 272 354 m 679 788 l 949 788 l 949 1114 l 1053 1114 l 1053 424 l 949 424 l 949 703 l 679 703 l 679 788 z "},"걸":{"ha":1214,"x_min":74,"x_max":1094,"o":"m 1053 1114 l 1053 490 l 949 490 l 949 733 l 679 733 l 679 818 l 949 818 l 949 1114 l 1053 1114 m 74 549 q 419 711 293 603 q 560 968 544 819 l 138 968 l 138 1054 l 671 1054 q 524 682 671 832 q 111 465 376 532 l 74 549 m 274 436 l 1053 436 l 1053 142 l 379 142 l 379 -6 l 1094 -6 l 1094 -89 l 276 -89 l 276 222 l 949 222 l 949 351 l 274 351 l 274 436 z "},"걹":{"ha":1214,"x_min":0,"x_max":0,"o":""},"걺":{"ha":1214,"x_min":72,"x_max":1053,"o":"m 1053 1114 l 1053 471 l 949 471 l 949 732 l 679 732 l 679 818 l 949 818 l 949 1114 l 1053 1114 m 72 543 q 422 708 294 600 q 565 965 550 817 l 133 965 l 133 1051 l 675 1051 q 527 678 675 829 q 111 461 379 528 l 72 543 m 203 417 l 592 417 l 592 138 l 306 138 l 306 -1 q 476 3 408 -1 q 618 21 544 8 l 628 -61 q 474 -81 549 -76 q 268 -85 399 -85 l 206 -85 l 206 214 l 490 214 l 490 335 l 203 335 l 203 417 m 668 417 l 1053 417 l 1053 -85 l 668 -85 l 668 417 m 960 -6 l 960 336 l 761 336 l 761 -6 l 960 -6 z "},"걻":{"ha":1214,"x_min":0,"x_max":0,"o":""},"걼":{"ha":1214,"x_min":0,"x_max":0,"o":""},"걽":{"ha":1214,"x_min":0,"x_max":0,"o":""},"걾":{"ha":1214,"x_min":0,"x_max":0,"o":""},"걿":{"ha":1214,"x_min":0,"x_max":0,"o":""},"검":{"ha":1214,"x_min":68,"x_max":1053,"o":"m 676 1035 q 527 649 676 810 q 111 413 378 489 l 68 494 q 418 675 288 557 q 564 950 549 793 l 131 950 l 131 1035 l 676 1035 m 271 368 l 1053 368 l 1053 -83 l 271 -83 l 271 368 m 950 1 l 950 283 l 372 283 l 372 1 l 950 1 m 678 799 l 949 799 l 949 1114 l 1053 1114 l 1053 419 l 949 419 l 949 711 l 678 711 l 678 799 z "},"겁":{"ha":1214,"x_min":71,"x_max":1051,"o":"m 1051 1114 l 1051 460 l 949 460 l 949 721 l 679 721 l 679 807 l 949 807 l 949 1114 l 1051 1114 m 71 518 q 423 688 294 575 q 567 953 551 800 l 132 953 l 132 1039 l 678 1039 q 530 660 678 814 q 111 435 382 506 l 71 518 m 269 399 l 372 399 l 372 243 l 949 243 l 949 399 l 1051 399 l 1051 -85 l 269 -85 l 269 399 m 949 0 l 949 160 l 372 160 l 372 0 l 949 0 z "},"겂":{"ha":1214,"x_min":0,"x_max":0,"o":""},"것":{"ha":1214,"x_min":76,"x_max":1121,"o":"m 1053 1114 l 1053 289 l 949 289 l 949 682 l 682 682 l 682 769 l 949 769 l 949 1114 l 1053 1114 m 76 453 q 423 646 296 522 q 565 932 550 769 l 135 932 l 135 1018 l 678 1018 q 532 622 678 788 q 122 369 386 456 l 76 453 m 203 -15 q 404 54 311 4 q 554 178 497 104 q 611 339 611 253 l 611 396 l 714 396 l 714 339 q 770 180 714 253 q 919 57 826 107 q 1121 -12 1013 7 l 1078 -94 q 827 3 939 -68 q 663 179 715 75 q 497 1 610 74 q 244 -99 385 -71 l 203 -15 z "},"겄":{"ha":1214,"x_min":71,"x_max":1163,"o":"m 679 1035 q 529 650 679 811 q 113 413 379 489 l 71 494 q 421 675 290 557 q 567 950 551 793 l 138 950 l 138 1035 l 679 1035 m 119 -11 q 249 67 193 17 q 335 177 304 117 q 365 296 365 238 l 365 388 l 465 388 l 465 296 q 510 131 465 210 q 638 4 556 51 q 769 138 722 56 q 815 296 815 219 l 815 388 l 915 388 l 915 296 q 982 113 915 199 q 1163 -11 1049 28 l 1110 -87 q 958 6 1021 -54 q 864 144 894 65 q 776 1 833 65 q 639 -99 719 -64 q 498 -3 554 -65 q 414 142 442 60 q 319 5 381 65 q 172 -87 257 -56 l 119 -11 m 683 800 l 950 800 l 950 1114 l 1054 1114 l 1054 419 l 950 419 l 950 713 l 683 713 l 683 800 z "},"겅":{"ha":1214,"x_min":71,"x_max":1058,"o":"m 1053 1114 l 1053 385 l 949 385 l 949 682 l 682 682 l 682 768 l 949 768 l 949 1114 l 1053 1114 m 71 469 q 422 656 292 535 q 568 936 553 776 l 133 936 l 133 1022 l 678 1022 q 528 629 678 793 q 114 386 379 465 l 71 469 m 257 138 q 365 309 257 246 q 658 372 474 372 q 951 309 843 372 q 1058 138 1058 246 q 951 -33 1058 29 q 658 -96 843 -96 q 365 -33 474 -96 q 257 138 257 29 m 360 138 q 440 28 360 68 q 658 -12 521 -12 q 876 28 796 -12 q 956 138 956 68 q 876 249 956 208 q 658 289 796 289 q 440 249 521 289 q 360 138 360 208 z "},"겆":{"ha":1214,"x_min":76,"x_max":1114,"o":"m 697 1035 q 543 650 697 808 q 117 421 389 492 l 76 504 q 438 679 304 563 q 586 950 572 796 l 133 950 l 133 1035 l 697 1035 m 225 -19 q 416 39 326 -3 q 560 141 506 81 q 615 268 614 201 l 274 268 l 274 354 l 1068 354 l 1068 268 l 724 268 q 780 142 725 203 q 924 40 835 82 q 1114 -19 1013 -3 l 1074 -99 q 829 -11 939 -75 q 669 143 719 53 q 510 -11 621 53 q 264 -99 400 -75 l 225 -19 m 681 792 l 949 792 l 949 1114 l 1053 1114 l 1053 417 l 949 417 l 949 704 l 681 704 l 681 792 z "},"겇":{"ha":1214,"x_min":0,"x_max":0,"o":""},"겈":{"ha":1214,"x_min":0,"x_max":0,"o":""},"겉":{"ha":1214,"x_min":72,"x_max":1081,"o":"m 1057 407 l 1057 328 l 382 328 l 382 203 l 1040 203 l 1040 125 l 382 125 l 382 -4 l 1081 -4 l 1081 -85 l 279 -85 l 279 407 l 1057 407 m 72 518 q 424 688 297 575 q 567 956 551 801 l 132 956 l 132 1040 l 679 1040 q 531 660 679 815 q 111 435 382 504 l 72 518 m 685 803 l 949 803 l 949 1114 l 1053 1114 l 1053 457 l 949 457 l 949 717 l 685 717 l 685 803 z "},"겊":{"ha":1214,"x_min":72,"x_max":1078,"o":"m 679 1033 q 528 653 679 811 q 113 421 376 494 l 72 506 q 421 679 290 564 q 568 949 551 794 l 132 949 l 132 1033 l 679 1033 m 238 3 l 425 3 l 425 288 l 249 288 l 249 372 l 1063 372 l 1063 288 l 888 288 l 888 3 l 1078 3 l 1078 -82 l 238 -82 l 238 3 m 785 3 l 785 288 l 526 288 l 526 3 l 785 3 m 679 794 l 949 794 l 949 1114 l 1053 1114 l 1053 432 l 949 432 l 949 708 l 679 708 l 679 794 z "},"겋":{"ha":1214,"x_min":71,"x_max":1078,"o":"m 669 1042 q 524 665 669 817 q 108 444 379 514 l 71 526 q 419 693 294 582 q 558 957 543 804 l 133 957 l 133 1042 l 669 1042 m 232 382 l 604 382 l 604 525 l 710 525 l 710 382 l 1078 382 l 1078 300 l 232 300 l 232 382 m 319 72 q 409 198 319 153 q 656 243 499 243 q 903 198 814 243 q 993 72 993 153 q 903 -53 993 -8 q 656 -99 814 -99 q 409 -53 499 -99 q 319 72 319 -8 m 426 72 q 488 1 426 26 q 656 -24 549 -24 q 824 1 763 -24 q 886 72 886 26 q 824 142 886 117 q 656 168 763 168 q 488 142 549 168 q 426 72 426 117 m 678 824 l 949 824 l 949 1114 l 1053 1114 l 1053 468 l 949 468 l 949 738 l 678 738 l 678 824 z "},"게":{"ha":1214,"x_min":57,"x_max":1086,"o":"m 1086 1114 l 1086 -101 l 986 -101 l 986 1114 l 1086 1114 m 57 238 q 353 515 250 353 q 471 872 456 676 l 107 872 l 107 958 l 575 958 q 514 614 575 772 l 733 614 l 733 1082 l 832 1082 l 832 -37 l 733 -37 l 733 529 l 476 529 q 118 161 360 306 l 57 238 z "},"겍":{"ha":1214,"x_min":0,"x_max":0,"o":""},"겎":{"ha":1214,"x_min":0,"x_max":0,"o":""},"겏":{"ha":1214,"x_min":0,"x_max":0,"o":""},"겐":{"ha":1214,"x_min":65,"x_max":1122,"o":"m 1078 1114 l 1078 200 l 979 200 l 979 1114 l 1078 1114 m 65 426 q 360 630 254 506 q 481 913 465 754 l 118 913 l 118 997 l 588 997 q 531 722 588 849 l 739 722 l 739 1089 l 836 1089 l 836 235 l 739 235 l 739 636 l 483 636 q 118 349 365 456 l 65 426 m 292 314 l 396 314 l 396 13 l 1122 13 l 1122 -74 l 292 -74 l 292 314 z "},"겑":{"ha":1214,"x_min":0,"x_max":0,"o":""},"겒":{"ha":1214,"x_min":0,"x_max":0,"o":""},"겓":{"ha":1214,"x_min":0,"x_max":0,"o":""},"겔":{"ha":1214,"x_min":71,"x_max":1126,"o":"m 1078 1114 l 1078 490 l 979 490 l 979 1114 l 1078 1114 m 71 526 q 362 701 258 593 q 481 956 465 810 l 121 956 l 121 1042 l 589 1042 q 546 814 589 914 l 739 814 l 739 1089 l 836 1089 l 836 497 l 739 497 l 739 729 l 503 729 q 122 450 386 546 l 71 526 m 279 429 l 1078 429 l 1078 140 l 386 140 l 386 0 l 1126 0 l 1126 -85 l 283 -85 l 283 219 l 976 219 l 976 346 l 279 346 l 279 429 z "},"겕":{"ha":1214,"x_min":0,"x_max":0,"o":""},"겖":{"ha":1214,"x_min":0,"x_max":0,"o":""},"겗":{"ha":1214,"x_min":0,"x_max":0,"o":""},"겘":{"ha":1214,"x_min":0,"x_max":0,"o":""},"겙":{"ha":1214,"x_min":0,"x_max":0,"o":""},"겚":{"ha":1214,"x_min":0,"x_max":0,"o":""},"겛":{"ha":1214,"x_min":0,"x_max":0,"o":""},"겜":{"ha":1214,"x_min":69,"x_max":1078,"o":"m 588 1024 q 542 778 588 890 l 738 778 l 738 1089 l 835 1089 l 835 428 l 738 428 l 738 693 l 500 693 q 124 389 382 500 l 69 465 q 361 662 256 542 q 482 938 467 782 l 119 938 l 119 1024 l 588 1024 m 283 356 l 1078 356 l 1078 -82 l 283 -82 l 283 356 m 976 3 l 976 272 l 386 272 l 386 3 l 976 3 m 978 1114 l 1078 1114 l 1078 414 l 978 414 l 978 1114 z "},"겝":{"ha":1214,"x_min":67,"x_max":1078,"o":"m 585 1028 q 540 786 585 899 l 738 786 l 738 1089 l 835 1089 l 835 454 l 738 454 l 738 700 l 496 700 q 118 413 382 517 l 67 490 q 360 676 257 561 q 478 943 463 790 l 121 943 l 121 1028 l 585 1028 m 285 394 l 389 394 l 389 246 l 976 246 l 976 394 l 1078 394 l 1078 -83 l 285 -83 l 285 394 m 976 0 l 976 161 l 389 161 l 389 0 l 976 0 m 978 1114 l 1078 1114 l 1078 446 l 978 446 l 978 1114 z "},"겞":{"ha":1214,"x_min":0,"x_max":0,"o":""},"겟":{"ha":1214,"x_min":68,"x_max":1143,"o":"m 1078 1114 l 1078 303 l 979 303 l 979 1114 l 1078 1114 m 68 425 q 359 631 254 506 q 479 915 464 756 l 117 915 l 117 1000 l 586 1000 q 542 753 586 869 l 739 753 l 739 1088 l 836 1088 l 836 408 l 739 408 l 739 667 l 500 667 q 121 347 383 467 l 68 425 m 207 -14 q 408 51 313 3 q 563 170 504 100 q 622 319 622 240 l 622 374 l 726 374 l 726 319 q 785 170 726 240 q 941 51 844 100 q 1143 -14 1038 3 l 1103 -96 q 846 0 964 -71 q 674 172 728 71 q 502 0 619 71 q 246 -96 385 -71 l 207 -14 z "},"겠":{"ha":1214,"x_min":69,"x_max":1169,"o":"m 590 1024 q 539 765 590 885 l 739 765 l 739 1088 l 836 1088 l 836 429 l 739 429 l 739 681 l 493 681 q 122 388 374 497 l 69 465 q 361 662 256 542 q 482 938 467 782 l 119 938 l 119 1024 l 590 1024 m 129 -21 q 259 56 203 6 q 346 166 315 106 q 376 286 376 226 l 376 368 l 476 368 l 476 286 q 520 122 476 200 q 647 -6 564 43 q 777 128 731 46 q 824 286 824 211 l 824 368 l 924 368 l 924 286 q 990 102 924 188 q 1169 -21 1057 17 l 1119 -99 q 967 -5 1031 -67 q 872 138 904 57 q 787 -8 843 57 q 650 -108 731 -72 q 508 -11 564 -74 q 424 133 451 51 q 328 -5 390 56 q 181 -99 265 -65 l 129 -21 m 979 1114 l 1079 1114 l 1079 411 l 979 411 l 979 1114 z "},"겡":{"ha":1214,"x_min":65,"x_max":1093,"o":"m 588 1014 q 540 764 588 876 l 738 764 l 738 1088 l 836 1088 l 836 410 l 738 410 l 738 679 l 499 679 q 118 371 382 485 l 65 449 q 359 649 253 526 q 481 928 465 771 l 117 928 l 117 1014 l 588 1014 m 271 128 q 381 293 271 233 q 682 353 490 353 q 983 293 874 353 q 1093 128 1093 233 q 983 -37 1093 22 q 682 -97 874 -97 q 381 -37 490 -97 q 271 128 271 22 m 374 128 q 457 23 374 61 q 682 -15 540 -15 q 906 23 824 -15 q 989 128 989 61 q 906 233 989 194 q 682 271 824 271 q 457 233 540 271 q 374 128 374 194 m 978 1114 l 1078 1114 l 1078 365 l 978 365 l 978 1114 z "},"겢":{"ha":1214,"x_min":0,"x_max":0,"o":""},"겣":{"ha":1214,"x_min":0,"x_max":0,"o":""},"겤":{"ha":1214,"x_min":0,"x_max":0,"o":""},"겥":{"ha":1214,"x_min":0,"x_max":0,"o":""},"겦":{"ha":1214,"x_min":0,"x_max":0,"o":""},"겧":{"ha":1214,"x_min":0,"x_max":0,"o":""},"겨":{"ha":1214,"x_min":57,"x_max":1050,"o":"m 665 983 q 646 779 665 872 l 947 779 l 947 1115 l 1050 1115 l 1050 -100 l 947 -100 l 947 368 l 607 368 l 607 454 l 947 454 l 947 694 l 625 694 q 111 131 513 328 l 57 213 q 419 503 293 329 q 561 897 544 676 l 108 897 l 108 983 l 665 983 z "},"격":{"ha":1214,"x_min":74,"x_max":1053,"o":"m 689 1032 q 674 894 689 963 l 949 894 l 949 1114 l 1053 1114 l 1053 389 l 949 389 l 949 551 l 628 551 l 628 638 l 949 638 l 949 810 l 646 810 q 449 564 585 667 q 115 407 313 461 l 74 489 q 428 670 296 550 q 578 947 561 790 l 135 947 l 135 1032 l 689 1032 m 243 335 l 1053 335 l 1053 -99 l 949 -99 l 949 250 l 243 250 l 243 335 z "},"겪":{"ha":1214,"x_min":74,"x_max":1053,"o":"m 688 1035 q 672 900 688 968 l 949 900 l 949 1114 l 1053 1114 l 1053 408 l 949 408 l 949 557 l 626 557 l 626 643 l 949 643 l 949 814 l 644 814 q 449 570 585 672 q 117 414 313 468 l 74 496 q 427 674 294 556 q 576 950 560 793 l 135 950 l 135 1035 l 688 1035 m 214 349 l 608 349 l 608 -101 l 504 -101 l 504 264 l 214 264 l 214 349 m 667 349 l 1053 349 l 1053 -101 l 949 -101 l 949 264 l 667 264 l 667 349 z "},"겫":{"ha":1214,"x_min":0,"x_max":0,"o":""},"견":{"ha":1214,"x_min":75,"x_max":1083,"o":"m 1054 1114 l 1054 208 l 949 208 l 949 503 l 622 503 l 622 589 l 949 589 l 949 776 l 639 776 q 442 526 576 633 q 121 356 308 418 l 75 440 q 426 640 292 511 q 576 933 560 769 l 136 933 l 136 1018 l 689 1018 q 669 863 689 940 l 949 863 l 949 1114 l 1054 1114 m 288 296 l 393 296 l 393 13 l 1083 13 l 1083 -74 l 288 -74 l 288 296 z "},"겭":{"ha":1214,"x_min":0,"x_max":0,"o":""},"겮":{"ha":1214,"x_min":0,"x_max":0,"o":""},"겯":{"ha":1214,"x_min":72,"x_max":1076,"o":"m 682 1035 q 669 911 682 969 l 949 911 l 949 1114 l 1053 1114 l 1053 424 l 949 424 l 949 567 l 625 567 l 625 653 l 949 653 l 949 825 l 643 825 q 449 574 585 679 q 113 414 313 469 l 72 496 q 424 675 292 557 q 571 950 556 793 l 131 950 l 131 1035 l 682 1035 m 272 354 l 1056 354 l 1056 269 l 375 269 l 375 0 l 1076 0 l 1076 -85 l 272 -85 l 272 354 z "},"결":{"ha":1214,"x_min":76,"x_max":1094,"o":"m 1053 1114 l 1053 493 l 949 493 l 949 621 l 625 621 l 625 704 l 949 704 l 949 853 l 643 853 q 453 613 589 711 q 113 465 317 515 l 76 550 q 424 710 299 603 q 565 967 550 818 l 138 967 l 138 1053 l 679 1053 q 668 935 679 994 l 949 935 l 949 1114 l 1053 1114 m 274 436 l 1053 436 l 1053 142 l 379 142 l 379 -6 l 1094 -6 l 1094 -89 l 276 -89 l 276 222 l 949 222 l 949 351 l 274 351 l 274 436 z "},"겱":{"ha":1214,"x_min":0,"x_max":0,"o":""},"겲":{"ha":1214,"x_min":0,"x_max":0,"o":""},"겳":{"ha":1214,"x_min":0,"x_max":0,"o":""},"겴":{"ha":1214,"x_min":0,"x_max":0,"o":""},"겵":{"ha":1214,"x_min":0,"x_max":0,"o":""},"겶":{"ha":1214,"x_min":0,"x_max":0,"o":""},"겷":{"ha":1214,"x_min":76,"x_max":1119,"o":"m 1053 1114 l 1053 493 l 949 493 l 949 626 l 624 626 l 624 707 l 949 707 l 949 857 l 643 857 q 451 621 586 717 q 113 478 315 525 l 76 563 q 424 717 297 613 q 565 969 550 822 l 138 969 l 138 1056 l 679 1056 q 668 939 679 999 l 949 939 l 949 1114 l 1053 1114 m 194 415 l 576 415 l 576 140 l 299 140 l 299 -3 q 478 2 408 -3 q 624 21 549 7 l 633 -61 q 474 -81 551 -76 q 261 -85 396 -85 l 197 -85 l 197 217 l 476 217 l 476 335 l 194 335 l 194 415 m 625 354 l 821 354 l 821 469 l 922 469 l 922 354 l 1119 354 l 1119 275 l 625 275 l 625 354 m 657 63 q 717 179 657 135 q 871 224 778 224 q 1024 179 964 224 q 1083 63 1083 135 q 1024 -56 1083 -11 q 871 -100 964 -100 q 717 -56 778 -100 q 657 63 657 -11 m 749 63 q 783 -3 749 21 q 871 -28 817 -28 q 958 -3 924 -28 q 992 63 992 21 q 958 126 992 101 q 871 151 924 151 q 783 126 817 151 q 749 63 749 101 z "},"겸":{"ha":1214,"x_min":69,"x_max":1053,"o":"m 949 661 l 949 825 l 640 825 q 447 574 583 679 q 111 413 311 468 l 69 494 q 420 675 289 557 q 567 950 551 793 l 131 950 l 131 1035 l 679 1035 q 667 910 679 971 l 949 910 l 949 1114 l 1053 1114 l 1053 418 l 949 418 l 949 574 l 625 574 l 625 661 l 949 661 m 271 367 l 1053 367 l 1053 -83 l 271 -83 l 271 367 m 950 1 l 950 282 l 372 282 l 372 1 l 950 1 z "},"겹":{"ha":1214,"x_min":71,"x_max":1051,"o":"m 949 674 l 949 835 l 643 835 q 451 589 588 690 q 113 435 315 488 l 71 518 q 424 688 296 575 q 567 953 551 800 l 132 953 l 132 1039 l 679 1039 q 668 919 679 979 l 949 919 l 949 1114 l 1051 1114 l 1051 460 l 949 460 l 949 588 l 628 588 l 628 674 l 949 674 m 269 399 l 372 399 l 372 243 l 949 243 l 949 399 l 1051 399 l 1051 -85 l 269 -85 l 269 399 m 949 0 l 949 160 l 372 160 l 372 0 l 949 0 z "},"겺":{"ha":1214,"x_min":0,"x_max":0,"o":""},"겻":{"ha":1214,"x_min":76,"x_max":1121,"o":"m 949 624 l 949 797 l 639 797 q 450 541 582 650 q 122 369 318 432 l 76 453 q 424 645 296 521 q 568 932 553 769 l 135 932 l 135 1018 l 679 1018 q 664 881 679 949 l 949 881 l 949 1114 l 1053 1114 l 1053 288 l 949 288 l 949 539 l 625 539 l 625 624 l 949 624 m 203 -15 q 404 55 311 4 q 554 179 497 106 q 611 340 611 253 l 611 394 l 714 394 l 714 340 q 770 181 714 254 q 919 57 826 107 q 1121 -12 1013 7 l 1078 -94 q 827 5 939 -67 q 663 181 715 76 q 497 3 610 75 q 244 -97 385 -69 l 203 -15 z "},"겼":{"ha":1214,"x_min":72,"x_max":1163,"o":"m 950 656 l 950 822 l 642 822 q 447 573 583 678 q 113 413 311 468 l 72 494 q 423 674 292 556 q 569 950 554 793 l 138 950 l 138 1035 l 682 1035 q 668 908 682 965 l 950 908 l 950 1114 l 1054 1114 l 1054 419 l 950 419 l 950 569 l 628 569 l 628 656 l 950 656 m 119 -11 q 249 67 193 17 q 335 177 304 117 q 365 296 365 238 l 365 388 l 465 388 l 465 296 q 510 131 465 210 q 638 3 554 51 q 768 138 721 56 q 815 296 815 221 l 815 388 l 915 388 l 915 296 q 982 113 915 199 q 1163 -11 1049 28 l 1110 -87 q 958 6 1021 -54 q 864 144 894 65 q 776 1 833 65 q 639 -99 719 -64 q 498 -3 554 -65 q 414 142 442 60 q 319 5 381 65 q 172 -87 257 -56 l 119 -11 z "},"경":{"ha":1214,"x_min":71,"x_max":1058,"o":"m 949 633 l 949 801 l 639 801 q 445 551 581 657 q 114 386 310 446 l 71 469 q 422 656 292 535 q 568 936 553 776 l 133 936 l 133 1022 l 681 1022 q 665 886 681 954 l 949 886 l 949 1114 l 1053 1114 l 1053 382 l 949 382 l 949 549 l 625 549 l 625 633 l 949 633 m 257 136 q 365 307 257 244 q 658 369 472 369 q 951 307 843 369 q 1058 136 1058 244 q 951 -34 1058 28 q 658 -96 843 -96 q 365 -34 472 -96 q 257 136 257 28 m 360 136 q 440 28 360 68 q 658 -12 521 -12 q 875 28 794 -12 q 956 136 956 68 q 876 247 956 207 q 658 286 796 286 q 440 247 521 286 q 360 136 360 207 z "},"겾":{"ha":1214,"x_min":0,"x_max":0,"o":""},"겿":{"ha":1214,"x_min":0,"x_max":0,"o":""},"곀":{"ha":1214,"x_min":0,"x_max":0,"o":""},"곁":{"ha":1214,"x_min":71,"x_max":1081,"o":"m 949 683 l 949 840 l 646 840 q 454 590 592 693 q 111 435 317 488 l 71 518 q 425 688 297 575 q 568 956 553 801 l 132 956 l 132 1040 l 681 1040 q 669 921 681 981 l 949 921 l 949 1114 l 1053 1114 l 1053 457 l 949 457 l 949 603 l 626 603 l 626 683 l 949 683 m 279 407 l 1057 407 l 1057 328 l 382 328 l 382 203 l 1040 203 l 1040 125 l 382 125 l 382 -4 l 1081 -4 l 1081 -85 l 279 -85 l 279 407 z "},"곂":{"ha":1214,"x_min":0,"x_max":0,"o":""},"곃":{"ha":1214,"x_min":0,"x_max":0,"o":""},"계":{"ha":1214,"x_min":56,"x_max":1086,"o":"m 743 469 l 743 689 l 536 689 q 117 161 442 356 l 56 238 q 351 515 247 353 q 469 872 454 676 l 107 872 l 107 958 l 572 958 q 556 774 572 864 l 743 774 l 743 1082 l 842 1082 l 842 -37 l 743 -37 l 743 385 l 517 385 l 517 469 l 743 469 m 986 1114 l 1086 1114 l 1086 -101 l 986 -101 l 986 1114 z "},"곅":{"ha":1214,"x_min":0,"x_max":0,"o":""},"곆":{"ha":1214,"x_min":0,"x_max":0,"o":""},"곇":{"ha":1214,"x_min":0,"x_max":0,"o":""},"곈":{"ha":1214,"x_min":64,"x_max":1119,"o":"m 746 575 l 746 757 l 543 757 q 115 342 443 485 l 64 418 q 358 625 253 499 q 479 913 464 751 l 118 913 l 118 997 l 585 997 q 568 842 585 917 l 746 842 l 746 1089 l 844 1089 l 844 239 l 746 239 l 746 490 l 522 490 l 522 575 l 746 575 m 290 319 l 394 319 l 394 13 l 1119 13 l 1119 -74 l 290 -74 l 290 319 m 979 1114 l 1078 1114 l 1078 210 l 979 210 l 979 1114 z "},"곉":{"ha":1214,"x_min":0,"x_max":0,"o":""},"곊":{"ha":1214,"x_min":0,"x_max":0,"o":""},"곋":{"ha":1214,"x_min":0,"x_max":0,"o":""},"곌":{"ha":1214,"x_min":71,"x_max":1126,"o":"m 746 701 l 746 843 l 556 843 q 122 450 464 576 l 71 526 q 360 701 257 593 q 479 956 464 810 l 121 956 l 121 1042 l 588 1042 q 578 925 588 978 l 746 925 l 746 1089 l 844 1089 l 844 493 l 746 493 l 746 619 l 543 619 l 543 701 l 746 701 m 279 429 l 1078 429 l 1078 140 l 386 140 l 386 -6 l 1126 -6 l 1126 -89 l 283 -89 l 283 218 l 976 218 l 976 346 l 279 346 l 279 429 m 979 1114 l 1078 1114 l 1078 485 l 979 485 l 979 1114 z "},"곍":{"ha":1214,"x_min":0,"x_max":0,"o":""},"곎":{"ha":1214,"x_min":0,"x_max":0,"o":""},"곏":{"ha":1214,"x_min":0,"x_max":0,"o":""},"곐":{"ha":1214,"x_min":0,"x_max":0,"o":""},"곑":{"ha":1214,"x_min":0,"x_max":0,"o":""},"곒":{"ha":1214,"x_min":0,"x_max":0,"o":""},"곓":{"ha":1214,"x_min":0,"x_max":0,"o":""},"곔":{"ha":1214,"x_min":0,"x_max":0,"o":""},"곕":{"ha":1214,"x_min":67,"x_max":1078,"o":"m 744 674 l 744 824 l 553 824 q 118 415 463 550 l 67 493 q 358 678 256 564 q 476 943 461 792 l 121 943 l 121 1028 l 583 1028 q 574 906 583 960 l 744 906 l 744 1089 l 844 1089 l 844 453 l 744 453 l 744 592 l 544 592 l 544 674 l 744 674 m 285 393 l 389 393 l 389 246 l 976 246 l 976 393 l 1078 393 l 1078 -82 l 285 -82 l 285 393 m 976 3 l 976 163 l 389 163 l 389 3 l 976 3 m 978 1114 l 1078 1114 l 1078 444 l 978 444 l 978 1114 z "},"곖":{"ha":1214,"x_min":0,"x_max":0,"o":""},"곗":{"ha":1214,"x_min":67,"x_max":1143,"o":"m 739 638 l 739 794 l 554 794 q 401 537 510 650 q 121 347 292 424 l 67 424 q 357 630 253 506 q 478 915 461 754 l 117 915 l 117 1000 l 585 1000 q 575 878 585 932 l 739 878 l 739 1088 l 836 1088 l 836 393 l 739 393 l 739 553 l 543 553 l 543 638 l 739 638 m 206 -15 q 408 49 311 1 q 563 166 504 97 q 622 314 622 235 l 622 363 l 726 363 l 726 314 q 785 166 726 235 q 940 49 844 97 q 1143 -15 1036 1 l 1103 -96 q 845 -3 963 -72 q 674 168 728 67 q 503 -3 621 67 q 244 -96 385 -72 l 206 -15 m 979 1114 l 1078 1114 l 1078 292 l 979 292 l 979 1114 z "},"곘":{"ha":1214,"x_min":0,"x_max":0,"o":""},"곙":{"ha":1214,"x_min":0,"x_max":0,"o":""},"곚":{"ha":1214,"x_min":0,"x_max":0,"o":""},"곛":{"ha":1214,"x_min":0,"x_max":0,"o":""},"곜":{"ha":1214,"x_min":0,"x_max":0,"o":""},"곝":{"ha":1214,"x_min":0,"x_max":0,"o":""},"곞":{"ha":1214,"x_min":0,"x_max":0,"o":""},"곟":{"ha":1214,"x_min":0,"x_max":0,"o":""},"고":{"ha":1214,"x_min":56,"x_max":1154,"o":"m 1019 990 l 1019 869 q 1013 594 1019 715 q 976 310 1006 472 l 871 322 q 908 597 900 476 q 915 869 915 718 l 915 904 l 172 904 l 172 990 l 1019 990 m 56 160 l 488 160 l 488 596 l 590 596 l 590 160 l 1154 160 l 1154 72 l 56 72 l 56 160 z "},"곡":{"ha":1214,"x_min":57,"x_max":1153,"o":"m 513 533 l 513 782 l 615 782 l 615 533 l 1153 533 l 1153 447 l 57 447 l 57 533 l 513 533 m 175 307 l 1014 307 l 1014 -103 l 908 -103 l 908 221 l 175 221 l 175 307 m 188 1047 l 1013 1047 l 1013 954 q 1008 785 1013 858 q 983 621 1003 711 l 879 631 q 905 791 900 719 q 910 954 910 863 l 910 961 l 188 961 l 188 1047 z "},"곢":{"ha":1214,"x_min":0,"x_max":0,"o":""},"곣":{"ha":1214,"x_min":0,"x_max":0,"o":""},"곤":{"ha":1214,"x_min":57,"x_max":1153,"o":"m 1013 1040 l 1013 956 q 1007 774 1013 856 q 981 589 1001 692 l 876 601 q 904 782 899 704 q 910 956 910 860 l 188 956 l 188 1040 l 1013 1040 m 57 504 l 513 504 l 513 757 l 615 757 l 615 504 l 1153 504 l 1153 419 l 57 419 l 57 504 m 197 293 l 301 293 l 301 11 l 1044 11 l 1044 -75 l 197 -75 l 197 293 z "},"곥":{"ha":1214,"x_min":0,"x_max":0,"o":""},"곦":{"ha":1214,"x_min":0,"x_max":0,"o":""},"곧":{"ha":1214,"x_min":57,"x_max":1153,"o":"m 1013 1057 l 1013 954 q 1007 785 1013 856 q 981 632 1001 715 l 878 644 q 904 794 899 726 q 910 954 910 861 l 910 974 l 188 974 l 188 1057 l 1013 1057 m 57 561 l 513 561 l 513 790 l 615 790 l 615 561 l 1153 561 l 1153 476 l 57 476 l 57 561 m 194 339 l 1011 339 l 1011 253 l 299 253 l 299 1 l 1029 1 l 1029 -85 l 194 -85 l 194 339 z "},"골":{"ha":1214,"x_min":57,"x_max":1153,"o":"m 1013 1064 l 1013 983 q 1008 839 1013 903 q 989 697 1004 775 l 888 706 q 906 842 903 781 q 910 979 910 903 l 188 979 l 188 1064 l 1013 1064 m 57 626 l 513 626 l 513 839 l 615 839 l 615 626 l 1153 626 l 1153 542 l 57 542 l 57 626 m 186 426 l 1018 426 l 1018 138 l 293 138 l 293 -3 l 1049 -3 l 1049 -87 l 190 -87 l 190 214 l 915 214 l 915 342 l 186 342 l 186 426 z "},"곩":{"ha":1214,"x_min":0,"x_max":0,"o":""},"곪":{"ha":1214,"x_min":57,"x_max":1153,"o":"m 1013 1057 l 1013 981 q 1008 824 1013 896 q 986 664 1004 751 l 885 675 q 905 828 900 760 q 910 974 910 897 l 188 974 l 188 1057 l 1013 1057 m 57 599 l 513 599 l 513 821 l 615 821 l 615 599 l 1153 599 l 1153 514 l 57 514 l 57 599 m 172 400 l 560 400 l 560 128 l 275 128 l 275 -8 q 453 -3 385 -8 q 590 14 521 1 l 600 -65 q 451 -85 524 -81 q 239 -89 379 -89 l 175 -89 l 175 204 l 460 204 l 460 321 l 172 321 l 172 400 m 640 400 l 1031 400 l 1031 -89 l 640 -89 l 640 400 m 939 -8 l 939 322 l 731 322 l 731 -8 l 939 -8 z "},"곫":{"ha":1214,"x_min":0,"x_max":0,"o":""},"곬":{"ha":1214,"x_min":57,"x_max":1153,"o":"m 899 424 l 899 306 q 953 115 899 206 q 1111 -19 1008 24 l 1054 -94 q 928 0 981 -60 q 849 136 876 60 q 769 0 821 60 q 644 -94 718 -60 l 588 -19 q 745 117 690 26 q 800 306 800 208 l 800 424 l 899 424 m 57 601 l 513 601 l 513 825 l 615 825 l 615 601 l 1153 601 l 1153 517 l 57 517 l 57 601 m 172 400 l 560 400 l 560 129 l 275 129 l 275 -8 q 444 -3 379 -8 q 576 14 508 1 l 585 -65 q 444 -84 511 -81 q 238 -87 378 -87 l 175 -87 l 175 203 l 460 203 l 460 322 l 172 322 l 172 400 m 188 1061 l 1013 1061 l 1013 967 q 1008 811 1013 876 q 988 669 1004 746 l 885 682 q 906 819 901 758 q 910 967 910 881 l 910 978 l 188 978 l 188 1061 z "},"곭":{"ha":1214,"x_min":0,"x_max":0,"o":""},"곮":{"ha":1214,"x_min":0,"x_max":0,"o":""},"곯":{"ha":1214,"x_min":57,"x_max":1153,"o":"m 794 340 l 794 451 l 894 451 l 894 340 l 1100 340 l 1100 261 l 592 261 l 592 340 l 794 340 m 57 613 l 513 613 l 513 836 l 615 836 l 615 613 l 1153 613 l 1153 528 l 57 528 l 57 613 m 169 411 l 544 411 l 544 136 l 269 136 l 269 -3 q 458 1 390 -3 q 597 18 526 6 l 608 -60 q 457 -79 531 -75 q 238 -83 383 -83 l 172 -83 l 172 211 l 447 211 l 447 332 l 169 332 l 169 411 m 188 1071 l 1013 1071 l 1013 997 q 1008 842 1013 913 q 986 683 1004 771 l 885 694 q 905 846 900 779 q 910 988 910 913 l 188 988 l 188 1071 m 642 56 q 699 171 642 128 q 844 214 756 214 q 992 171 935 214 q 1049 56 1049 128 q 992 -58 1049 -17 q 844 -100 935 -100 q 699 -58 756 -100 q 642 56 642 -17 m 732 56 q 763 -5 732 18 q 844 -28 794 -28 q 926 -6 896 -28 q 957 56 957 17 q 926 119 957 96 q 844 142 896 142 q 763 119 793 142 q 732 56 732 96 z "},"곰":{"ha":1214,"x_min":57,"x_max":1153,"o":"m 1017 340 l 1017 -86 l 190 -86 l 190 340 l 1017 340 m 57 564 l 513 564 l 513 800 l 615 800 l 615 564 l 1153 564 l 1153 479 l 57 479 l 57 564 m 188 1058 l 1013 1058 l 1013 957 q 1007 788 1013 858 q 981 636 1001 718 l 878 649 q 904 797 899 731 q 910 957 910 863 l 910 974 l 188 974 l 188 1058 m 915 -1 l 915 257 l 293 257 l 293 -1 l 915 -1 z "},"곱":{"ha":1214,"x_min":58,"x_max":1153,"o":"m 1013 1064 l 1013 975 q 1007 813 1013 883 q 981 657 1001 743 l 878 667 q 904 821 899 754 q 910 975 910 888 l 910 978 l 188 978 l 188 1064 l 1013 1064 m 58 590 l 513 590 l 513 807 l 615 807 l 615 590 l 1153 590 l 1153 506 l 58 506 l 58 590 m 201 400 l 304 400 l 304 249 l 906 249 l 906 400 l 1007 400 l 1007 -86 l 201 -86 l 201 400 m 906 0 l 906 167 l 304 167 l 304 0 l 906 0 z "},"곲":{"ha":1214,"x_min":0,"x_max":0,"o":""},"곳":{"ha":1214,"x_min":57,"x_max":1153,"o":"m 1013 1054 l 1013 969 q 1007 798 1013 874 q 981 626 1001 722 l 879 639 q 905 805 900 732 q 910 969 910 878 l 188 969 l 188 1054 l 1013 1054 m 57 540 l 513 540 l 513 788 l 615 788 l 615 540 l 1153 540 l 1153 457 l 57 457 l 57 540 m 136 -15 q 341 46 247 1 q 492 156 435 90 q 549 301 549 222 l 549 358 l 653 358 l 653 301 q 709 156 653 222 q 860 46 765 90 q 1064 -15 954 1 l 1025 -97 q 767 -7 881 -72 q 600 154 653 58 q 433 -7 547 58 q 176 -97 319 -72 l 136 -15 z "},"곴":{"ha":1214,"x_min":0,"x_max":0,"o":""},"공":{"ha":1214,"x_min":57,"x_max":1153,"o":"m 600 344 q 909 285 794 344 q 1024 122 1024 226 q 909 -41 1024 18 q 600 -100 794 -100 q 292 -41 406 -100 q 179 122 179 18 q 292 285 179 226 q 600 344 406 344 m 57 544 l 513 544 l 513 781 l 615 781 l 615 544 l 1153 544 l 1153 460 l 57 460 l 57 544 m 188 1051 l 1013 1051 l 1013 947 q 1007 779 1013 849 q 979 626 1001 710 l 878 638 q 904 788 899 721 q 910 947 910 854 l 910 965 l 188 965 l 188 1051 m 282 122 q 368 20 282 58 q 600 -18 454 -18 q 833 20 746 -18 q 919 122 919 58 q 833 226 919 188 q 600 264 746 264 q 368 226 454 264 q 282 122 282 188 z "},"곶":{"ha":1214,"x_min":57,"x_max":1153,"o":"m 1025 349 l 1025 264 l 661 264 q 728 133 669 192 q 877 36 786 75 q 1074 -17 968 -3 l 1036 -97 q 773 -11 889 -74 q 606 147 657 51 q 438 -11 554 51 q 176 -97 322 -74 l 139 -17 q 335 36 244 -3 q 485 133 426 75 q 551 264 543 192 l 186 264 l 186 349 l 1025 349 m 57 574 l 513 574 l 513 799 l 615 799 l 615 574 l 1153 574 l 1153 489 l 57 489 l 57 574 m 188 1061 l 1013 1061 l 1013 963 q 1007 799 1013 868 q 981 651 1001 731 l 878 663 q 904 808 899 743 q 910 963 910 872 l 910 976 l 188 976 l 188 1061 z "},"곷":{"ha":1214,"x_min":0,"x_max":0,"o":""},"곸":{"ha":1214,"x_min":0,"x_max":0,"o":""},"곹":{"ha":1214,"x_min":0,"x_max":0,"o":""},"곺":{"ha":1214,"x_min":0,"x_max":0,"o":""},"곻":{"ha":1214,"x_min":0,"x_max":0,"o":""},"과":{"ha":1214,"x_min":43,"x_max":1182,"o":"m 722 981 l 722 918 q 716 694 722 806 q 688 433 710 582 l 585 442 q 621 894 621 664 l 111 894 l 111 981 l 722 981 m 43 254 q 304 257 118 254 l 304 632 l 407 632 l 407 260 q 804 289 646 269 l 810 213 q 57 167 522 167 l 43 254 m 881 1114 l 983 1114 l 983 603 l 1182 603 l 1182 515 l 983 515 l 983 -101 l 881 -101 l 881 1114 z "},"곽":{"ha":1214,"x_min":49,"x_max":1175,"o":"m 722 1031 l 722 968 q 717 805 722 883 q 690 628 711 726 l 589 640 q 621 946 621 788 l 124 946 l 124 1031 l 722 1031 m 49 517 q 310 519 217 517 l 310 771 l 413 771 l 413 522 q 810 556 646 532 l 817 479 q 61 431 533 431 l 49 517 m 203 301 l 999 301 l 999 -93 l 894 -93 l 894 217 l 203 217 l 203 301 m 894 1114 l 999 1114 l 999 774 l 1175 774 l 1175 686 l 999 686 l 999 363 l 894 363 l 894 1114 z "},"곾":{"ha":1214,"x_min":0,"x_max":0,"o":""},"곿":{"ha":1214,"x_min":0,"x_max":0,"o":""},"관":{"ha":1214,"x_min":49,"x_max":1176,"o":"m 724 1019 l 724 956 q 718 784 724 867 q 692 596 713 701 l 589 607 q 622 933 622 767 l 124 933 l 124 1019 l 724 1019 m 49 482 q 310 485 217 482 l 310 750 l 413 750 l 413 488 q 811 521 647 497 l 818 444 q 61 396 535 396 l 49 482 m 236 282 l 339 282 l 339 13 l 1038 13 l 1038 -74 l 236 -74 l 236 282 m 894 1114 l 999 1114 l 999 715 l 1176 715 l 1176 629 l 999 629 l 999 199 l 894 199 l 894 1114 z "},"괁":{"ha":1214,"x_min":0,"x_max":0,"o":""},"괂":{"ha":1214,"x_min":0,"x_max":0,"o":""},"괃":{"ha":1214,"x_min":0,"x_max":0,"o":""},"괄":{"ha":1214,"x_min":50,"x_max":1175,"o":"m 722 1046 l 722 989 q 717 839 722 911 q 692 678 711 767 l 590 688 q 621 963 621 828 l 124 963 l 124 1046 l 722 1046 m 50 579 q 310 582 218 579 l 310 804 l 413 804 l 413 585 q 811 614 626 592 l 819 540 q 61 494 533 494 l 50 579 m 210 404 l 999 404 l 999 128 l 314 128 l 314 -7 l 1043 -7 l 1043 -87 l 211 -87 l 211 204 l 894 204 l 894 325 l 210 325 l 210 404 m 894 1114 l 999 1114 l 999 822 l 1175 822 l 1175 736 l 999 736 l 999 458 l 894 458 l 894 1114 z "},"괅":{"ha":1214,"x_min":0,"x_max":0,"o":""},"괆":{"ha":1214,"x_min":50,"x_max":1175,"o":"m 547 382 l 547 119 l 268 119 l 268 -7 q 442 -3 378 -7 q 571 15 506 1 l 581 -64 q 436 -83 506 -79 q 229 -87 367 -87 l 167 -87 l 167 193 l 447 193 l 447 304 l 164 304 l 164 382 l 547 382 m 50 583 q 310 586 217 583 l 310 807 l 413 807 l 413 589 q 811 619 631 596 l 819 544 q 465 507 650 515 q 61 499 279 499 l 50 583 m 124 1046 l 722 1046 l 722 989 q 717 839 722 911 q 692 678 711 767 l 590 689 q 621 963 621 829 l 124 963 l 124 1046 m 617 382 l 999 382 l 999 -87 l 617 -87 l 617 382 m 907 -8 l 907 303 l 708 303 l 708 -8 l 907 -8 m 894 1114 l 999 1114 l 999 814 l 1175 814 l 1175 728 l 999 728 l 999 442 l 894 442 l 894 1114 z "},"괇":{"ha":1214,"x_min":0,"x_max":0,"o":""},"괈":{"ha":1214,"x_min":0,"x_max":0,"o":""},"괉":{"ha":1214,"x_min":0,"x_max":0,"o":""},"괊":{"ha":1214,"x_min":0,"x_max":0,"o":""},"괋":{"ha":1214,"x_min":0,"x_max":0,"o":""},"괌":{"ha":1214,"x_min":49,"x_max":1175,"o":"m 722 1038 l 722 979 q 717 825 722 899 q 690 657 711 751 l 589 667 q 621 953 621 811 l 124 953 l 124 1038 l 722 1038 m 49 543 q 310 546 215 543 l 310 775 l 413 775 l 413 549 q 811 582 644 558 l 818 506 q 469 467 650 476 q 61 457 288 458 l 49 543 m 224 328 l 999 328 l 999 -82 l 224 -82 l 224 328 m 897 3 l 897 244 l 326 244 l 326 3 l 897 3 m 894 1114 l 999 1114 l 999 794 l 1175 794 l 1175 707 l 999 707 l 999 390 l 894 390 l 894 1114 z "},"괍":{"ha":1214,"x_min":49,"x_max":1175,"o":"m 722 1043 l 722 985 q 717 834 722 907 q 692 669 711 761 l 590 681 q 621 957 621 819 l 124 957 l 124 1043 l 722 1043 m 49 568 q 310 571 217 568 l 310 789 l 411 789 l 411 574 q 814 604 633 581 l 821 526 q 61 481 533 481 l 49 568 m 225 383 l 329 383 l 329 242 l 894 242 l 894 383 l 999 383 l 999 -85 l 225 -85 l 225 383 m 894 1 l 894 160 l 329 160 l 329 1 l 894 1 m 894 1114 l 999 1114 l 999 811 l 1175 811 l 1175 725 l 999 725 l 999 433 l 894 433 l 894 1114 z "},"괎":{"ha":1214,"x_min":0,"x_max":0,"o":""},"괏":{"ha":1214,"x_min":49,"x_max":1175,"o":"m 722 1035 l 722 976 q 717 815 722 893 q 689 639 711 738 l 586 649 q 621 950 621 800 l 124 950 l 124 1035 l 722 1035 m 49 517 q 310 519 217 517 l 310 767 l 413 767 l 413 522 q 811 556 647 532 l 818 478 q 462 441 650 450 q 61 432 274 432 l 49 517 m 169 -14 q 372 46 279 3 q 520 153 465 89 q 575 294 575 218 l 575 343 l 683 343 l 683 294 q 739 153 683 218 q 888 46 794 89 q 1090 -14 981 3 l 1050 -96 q 795 -9 908 -74 q 631 151 682 56 q 465 -9 578 56 q 210 -96 351 -74 l 169 -14 m 894 1114 l 999 1114 l 999 747 l 1175 747 l 1175 658 l 999 658 l 999 286 l 894 286 l 894 1114 z "},"괐":{"ha":1214,"x_min":49,"x_max":1175,"o":"m 440 338 l 440 292 q 485 131 440 210 q 613 4 529 51 q 742 132 696 53 q 788 292 788 211 l 788 338 l 889 338 l 889 296 q 954 115 889 199 q 1132 -6 1019 32 l 1081 -83 q 933 6 994 -51 q 838 140 871 64 q 753 -1 810 61 q 614 -97 696 -62 q 474 -2 531 -64 q 388 139 417 60 q 294 6 356 64 q 147 -83 232 -51 l 94 -6 q 273 117 207 33 q 339 296 339 200 l 339 338 l 440 338 m 49 542 q 310 543 217 542 l 310 775 l 413 775 l 413 546 q 811 578 658 556 l 818 501 q 464 464 649 472 q 61 456 279 456 l 49 542 m 124 1038 l 722 1038 l 722 979 q 717 825 722 899 q 690 657 711 751 l 589 667 q 621 953 621 811 l 124 953 l 124 1038 m 894 1114 l 999 1114 l 999 794 l 1175 794 l 1175 707 l 999 707 l 999 389 l 894 389 l 894 1114 z "},"광":{"ha":1214,"x_min":49,"x_max":1175,"o":"m 722 1036 l 722 972 q 717 813 722 889 q 690 643 711 738 l 589 651 q 621 951 621 796 l 124 951 l 124 1036 l 722 1036 m 49 528 q 310 531 217 528 l 310 775 l 413 775 l 413 533 q 811 564 658 543 l 818 488 q 61 440 524 440 l 49 528 m 208 122 q 315 281 208 224 q 608 339 422 339 q 903 281 796 339 q 1010 122 1010 224 q 903 -40 1010 18 q 608 -99 796 -99 q 315 -40 422 -99 q 208 122 208 18 m 313 122 q 392 22 313 58 q 608 -15 471 -15 q 826 22 746 -15 q 906 122 906 58 q 826 221 906 185 q 608 257 746 257 q 392 221 472 257 q 313 122 313 185 m 894 1114 l 999 1114 l 999 779 l 1175 779 l 1175 692 l 999 692 l 999 354 l 894 354 l 894 1114 z "},"괒":{"ha":1214,"x_min":0,"x_max":0,"o":""},"괓":{"ha":1214,"x_min":0,"x_max":0,"o":""},"괔":{"ha":1214,"x_min":0,"x_max":0,"o":""},"괕":{"ha":1214,"x_min":0,"x_max":0,"o":""},"괖":{"ha":1214,"x_min":0,"x_max":0,"o":""},"괗":{"ha":1214,"x_min":0,"x_max":0,"o":""},"괘":{"ha":1214,"x_min":40,"x_max":1081,"o":"m 607 974 l 607 893 q 602 679 607 779 q 578 450 597 579 l 482 457 q 506 680 501 582 q 511 889 511 778 l 96 889 l 96 974 l 607 974 m 40 281 q 249 282 172 281 l 249 633 l 346 633 l 346 286 q 665 311 546 293 l 671 235 q 56 192 436 192 l 40 281 m 729 1086 l 828 1086 l 828 599 l 981 599 l 981 1114 l 1081 1114 l 1081 -101 l 981 -101 l 981 511 l 828 511 l 828 -35 l 729 -35 l 729 1086 z "},"괙":{"ha":1214,"x_min":0,"x_max":0,"o":""},"괚":{"ha":1214,"x_min":0,"x_max":0,"o":""},"괛":{"ha":1214,"x_min":0,"x_max":0,"o":""},"괜":{"ha":1214,"x_min":43,"x_max":1110,"o":"m 613 1018 l 613 938 q 608 771 613 847 q 586 601 604 694 l 488 613 q 510 774 506 703 q 515 932 515 846 l 111 932 l 111 1018 l 613 1018 m 43 489 q 258 492 100 489 l 258 742 l 356 742 l 356 494 q 668 518 557 504 l 674 442 q 56 403 446 403 l 43 489 m 261 288 l 367 288 l 367 13 l 1110 13 l 1110 -74 l 261 -74 l 261 288 m 728 1092 l 825 1092 l 825 724 l 975 724 l 975 1114 l 1076 1114 l 1076 190 l 975 190 l 975 638 l 825 638 l 825 226 l 728 226 l 728 1092 z "},"괝":{"ha":1214,"x_min":0,"x_max":0,"o":""},"괞":{"ha":1214,"x_min":43,"x_max":1144,"o":"m 800 315 l 800 410 l 901 410 l 901 315 l 1144 315 l 1144 238 l 556 238 l 556 315 l 800 315 m 43 563 q 258 565 178 563 l 258 797 l 356 797 l 356 568 q 668 597 551 578 l 675 522 q 57 478 451 478 l 43 563 m 111 1043 l 614 1043 l 614 972 q 610 826 614 893 q 589 676 606 758 l 492 686 q 511 826 507 763 q 515 958 515 889 l 111 958 l 111 1043 m 211 343 l 313 343 l 313 14 q 446 32 379 18 q 554 74 513 46 l 583 -8 q 434 -60 521 -46 q 269 -74 347 -74 l 211 -74 l 211 343 m 622 50 q 685 157 622 117 q 851 197 749 197 q 1015 157 951 197 q 1078 50 1078 117 q 1015 -60 1078 -19 q 851 -100 951 -100 q 685 -60 749 -100 q 622 50 622 -19 m 715 50 q 753 -8 715 14 q 851 -29 790 -29 q 948 -8 911 -29 q 985 50 985 13 q 948 106 985 85 q 851 126 911 126 q 753 106 792 126 q 715 50 715 85 m 728 1090 l 826 1090 l 826 801 l 975 801 l 975 1114 l 1076 1114 l 1076 447 l 975 447 l 975 715 l 826 715 l 826 454 l 728 454 l 728 1090 z "},"괟":{"ha":1214,"x_min":0,"x_max":0,"o":""},"괠":{"ha":1214,"x_min":43,"x_max":1118,"o":"m 613 1043 l 613 972 q 608 826 613 893 q 589 676 604 758 l 492 686 q 511 827 507 764 q 515 960 515 890 l 111 960 l 111 1043 l 613 1043 m 43 574 q 258 576 100 574 l 258 797 l 356 797 l 356 579 q 668 604 560 590 l 674 528 q 56 489 438 489 l 43 574 m 256 394 l 1076 394 l 1076 122 l 361 122 l 361 -6 l 1118 -6 l 1118 -87 l 257 -87 l 257 200 l 974 200 l 974 314 l 256 314 l 256 394 m 728 1092 l 826 1092 l 826 813 l 975 813 l 975 1114 l 1076 1114 l 1076 447 l 975 447 l 975 728 l 826 728 l 826 454 l 728 454 l 728 1092 z "},"괡":{"ha":1214,"x_min":0,"x_max":0,"o":""},"괢":{"ha":1214,"x_min":43,"x_max":1075,"o":"m 593 392 l 593 124 l 290 124 l 290 -7 q 473 -3 403 -7 q 618 15 543 1 l 628 -62 q 465 -83 543 -78 q 256 -87 388 -87 l 190 -87 l 190 199 l 493 199 l 493 313 l 188 313 l 188 392 l 593 392 m 43 581 q 257 583 99 581 l 257 801 l 356 801 l 356 586 q 668 610 557 596 l 674 536 q 56 497 446 497 l 43 581 m 110 1043 l 613 1043 l 613 972 q 608 826 613 893 q 589 676 604 758 l 490 686 q 510 827 506 764 q 515 960 515 890 l 110 960 l 110 1043 m 669 392 l 1075 392 l 1075 -87 l 669 -87 l 669 392 m 726 1092 l 825 1092 l 825 818 l 975 818 l 975 1114 l 1075 1114 l 1075 456 l 975 456 l 975 732 l 825 732 l 825 463 l 726 463 l 726 1092 m 979 -7 l 979 313 l 767 313 l 767 -7 l 979 -7 z "},"괣":{"ha":1214,"x_min":0,"x_max":0,"o":""},"괤":{"ha":1214,"x_min":0,"x_max":0,"o":""},"괥":{"ha":1214,"x_min":0,"x_max":0,"o":""},"괦":{"ha":1214,"x_min":0,"x_max":0,"o":""},"괧":{"ha":1214,"x_min":0,"x_max":0,"o":""},"괨":{"ha":1214,"x_min":0,"x_max":0,"o":""},"괩":{"ha":1214,"x_min":42,"x_max":1075,"o":"m 613 1040 l 613 964 q 608 810 613 881 q 586 654 604 740 l 489 663 q 510 815 506 747 q 515 956 515 882 l 110 956 l 110 1040 l 613 1040 m 42 550 q 257 553 178 550 l 257 782 l 356 782 l 356 556 q 668 579 547 563 l 674 504 q 54 465 457 468 l 42 550 m 258 375 l 361 375 l 361 236 l 971 236 l 971 375 l 1075 375 l 1075 -85 l 258 -85 l 258 375 m 971 1 l 971 153 l 361 153 l 361 1 l 971 1 m 726 1092 l 825 1092 l 825 799 l 975 799 l 975 1114 l 1075 1114 l 1075 428 l 975 428 l 975 713 l 825 713 l 825 439 l 726 439 l 726 1092 z "},"괪":{"ha":1214,"x_min":0,"x_max":0,"o":""},"괫":{"ha":1214,"x_min":0,"x_max":0,"o":""},"괬":{"ha":1214,"x_min":44,"x_max":1165,"o":"m 614 1031 l 614 954 q 610 796 614 868 q 588 636 606 724 l 492 647 q 512 801 507 733 q 517 946 517 869 l 111 946 l 111 1031 l 614 1031 m 44 524 q 258 526 179 524 l 258 764 l 357 764 l 357 529 q 669 556 538 536 l 675 482 q 385 449 543 457 q 57 440 228 440 l 44 524 m 122 -8 q 303 115 236 31 q 369 297 369 200 l 369 340 l 469 340 l 469 297 q 515 133 469 214 q 643 4 560 53 q 772 135 726 54 q 818 297 818 215 l 818 340 l 918 340 l 918 297 q 985 113 918 199 q 1165 -8 1051 28 l 1114 -86 q 963 6 1025 -54 q 868 143 900 65 q 783 -1 839 63 q 644 -97 726 -64 q 504 -1 561 -62 q 419 140 447 61 q 324 5 386 64 q 175 -86 261 -54 l 122 -8 m 729 1092 l 826 1092 l 826 781 l 976 781 l 976 1114 l 1076 1114 l 1076 385 l 976 385 l 976 694 l 826 694 l 826 396 l 729 396 l 729 1092 z "},"괭":{"ha":1214,"x_min":43,"x_max":1075,"o":"m 613 1022 l 613 943 q 608 783 613 856 q 588 621 604 710 l 490 629 q 511 785 507 717 q 515 938 515 853 l 110 938 l 110 1022 l 613 1022 m 43 514 q 257 515 178 514 l 257 751 l 356 751 l 356 519 q 667 546 553 528 l 672 472 q 56 428 451 428 l 43 514 m 242 110 q 351 264 242 210 q 658 318 461 318 q 965 264 854 318 q 1075 110 1075 210 q 965 -45 1075 10 q 658 -100 854 -100 q 351 -45 461 -100 q 242 110 242 10 m 349 110 q 430 15 349 49 q 658 -18 511 -18 q 887 15 806 -18 q 968 110 968 49 q 887 203 968 171 q 658 236 806 236 q 430 203 511 236 q 349 110 349 171 m 726 1090 l 825 1090 l 825 781 l 975 781 l 975 1114 l 1075 1114 l 1075 344 l 975 344 l 975 694 l 825 694 l 825 382 l 726 382 l 726 1090 z "},"괮":{"ha":1214,"x_min":0,"x_max":0,"o":""},"괯":{"ha":1214,"x_min":0,"x_max":0,"o":""},"괰":{"ha":1214,"x_min":0,"x_max":0,"o":""},"괱":{"ha":1214,"x_min":0,"x_max":0,"o":""},"괲":{"ha":1214,"x_min":0,"x_max":0,"o":""},"괳":{"ha":1214,"x_min":0,"x_max":0,"o":""},"괴":{"ha":1214,"x_min":58,"x_max":1047,"o":"m 750 972 l 750 915 q 744 697 750 807 q 715 439 738 586 l 613 451 q 649 888 649 667 l 136 888 l 136 972 l 750 972 m 58 250 q 333 253 236 250 l 333 613 l 436 613 l 436 256 q 863 288 679 265 l 871 210 q 490 172 689 182 q 75 163 292 163 l 58 250 m 943 1115 l 1047 1115 l 1047 -103 l 943 -103 l 943 1115 z "},"괵":{"ha":1214,"x_min":57,"x_max":1047,"o":"m 736 1031 l 736 968 q 731 803 736 882 q 706 626 725 725 l 604 638 q 630 801 624 729 q 636 946 636 874 l 146 946 l 146 1031 l 736 1031 m 57 507 q 335 510 236 507 l 335 757 l 436 757 l 436 513 q 847 544 689 522 l 853 467 q 488 430 678 439 q 72 419 299 421 l 57 507 m 231 300 l 1047 300 l 1047 -101 l 944 -101 l 944 214 l 231 214 l 231 300 m 944 1114 l 1047 1114 l 1047 360 l 944 360 l 944 1114 z "},"괶":{"ha":1214,"x_min":0,"x_max":0,"o":""},"괷":{"ha":1214,"x_min":0,"x_max":0,"o":""},"괸":{"ha":1214,"x_min":56,"x_max":1085,"o":"m 744 1021 l 744 949 q 739 778 744 858 q 711 597 733 697 l 610 610 q 637 781 631 706 q 643 936 643 856 l 142 936 l 142 1021 l 744 1021 m 56 476 q 338 479 140 476 l 338 738 l 439 738 l 439 482 q 847 511 685 492 l 853 435 q 72 388 556 390 l 56 476 m 271 272 l 374 272 l 374 13 l 1085 13 l 1085 -74 l 271 -74 l 271 272 m 946 1114 l 1049 1114 l 1049 192 l 946 192 l 946 1114 z "},"괹":{"ha":1214,"x_min":0,"x_max":0,"o":""},"괺":{"ha":1214,"x_min":0,"x_max":0,"o":""},"괻":{"ha":1214,"x_min":0,"x_max":0,"o":""},"괼":{"ha":1214,"x_min":57,"x_max":1099,"o":"m 736 1047 l 736 989 q 731 840 736 913 q 704 676 725 767 l 604 686 q 635 963 635 826 l 144 963 l 144 1047 l 736 1047 m 57 578 q 336 581 139 578 l 336 810 l 438 810 l 438 583 q 847 615 690 593 l 854 540 q 480 503 675 513 q 72 493 285 493 l 57 578 m 246 394 l 1050 394 l 1050 124 l 351 124 l 351 -6 l 1099 -6 l 1099 -87 l 249 -87 l 249 199 l 949 199 l 949 315 l 246 315 l 246 394 m 946 1114 l 1050 1114 l 1050 451 l 946 451 l 946 1114 z "},"괽":{"ha":1214,"x_min":0,"x_max":0,"o":""},"괾":{"ha":1214,"x_min":0,"x_max":0,"o":""},"괿":{"ha":1214,"x_min":0,"x_max":0,"o":""},"굀":{"ha":1214,"x_min":0,"x_max":0,"o":""},"굁":{"ha":1214,"x_min":0,"x_max":0,"o":""},"굂":{"ha":1214,"x_min":0,"x_max":0,"o":""},"굃":{"ha":1214,"x_min":0,"x_max":0,"o":""},"굄":{"ha":1214,"x_min":57,"x_max":1047,"o":"m 1047 1114 l 1047 385 l 944 385 l 944 1114 l 1047 1114 m 57 535 q 335 538 235 535 l 335 764 l 436 764 l 436 540 q 846 574 675 550 l 853 500 q 487 460 676 469 q 71 449 297 450 l 57 535 m 146 1038 l 736 1038 l 736 972 q 731 815 736 889 q 708 650 726 742 l 606 660 q 635 951 635 801 l 146 951 l 146 1038 m 254 322 l 1047 322 l 1047 -85 l 254 -85 l 254 322 m 947 0 l 947 239 l 356 239 l 356 0 l 947 0 z "},"굅":{"ha":1214,"x_min":57,"x_max":1047,"o":"m 1047 1113 l 1047 431 l 944 431 l 944 1113 l 1047 1113 m 57 547 q 336 551 189 547 l 336 768 l 438 768 l 438 554 q 846 583 682 564 l 853 508 q 71 463 535 463 l 57 547 m 146 1043 l 736 1043 l 736 968 q 731 816 736 886 q 708 660 726 746 l 608 669 q 632 820 626 754 q 638 960 638 886 l 146 960 l 146 1043 m 249 374 l 351 374 l 351 233 l 946 233 l 946 374 l 1047 374 l 1047 -85 l 249 -85 l 249 374 m 946 0 l 946 150 l 351 150 l 351 0 l 946 0 z "},"굆":{"ha":1214,"x_min":0,"x_max":0,"o":""},"굇":{"ha":1214,"x_min":58,"x_max":1110,"o":"m 1049 1114 l 1049 263 l 946 263 l 946 1114 l 1049 1114 m 58 515 q 335 519 189 515 l 335 753 l 436 753 l 436 522 q 847 551 654 529 l 854 476 q 72 428 538 428 l 58 515 m 147 1033 l 738 1033 l 738 949 q 733 790 738 860 q 710 635 728 719 l 607 647 q 633 797 628 731 q 638 949 638 864 l 147 949 l 147 1033 m 192 -10 q 393 51 300 7 q 542 163 486 96 q 599 307 599 229 l 599 350 l 703 350 l 703 307 q 759 163 703 229 q 908 51 815 96 q 1110 -10 1001 7 l 1069 -90 q 816 -1 929 -67 q 651 161 703 65 q 485 -1 599 65 q 232 -90 372 -67 l 192 -10 z "},"굈":{"ha":1214,"x_min":0,"x_max":0,"o":""},"굉":{"ha":1214,"x_min":57,"x_max":1054,"o":"m 1047 1114 l 1047 349 l 944 349 l 944 1114 l 1047 1114 m 57 517 q 335 519 236 517 l 335 751 l 436 751 l 436 522 q 846 554 689 532 l 853 479 q 491 442 676 450 q 71 432 306 433 l 57 517 m 146 1036 l 736 1036 l 736 954 q 731 790 736 864 q 707 626 726 717 l 607 639 q 631 797 626 728 q 636 951 636 865 l 146 951 l 146 1036 m 240 119 q 349 279 240 222 q 649 336 457 336 q 947 279 839 336 q 1054 119 1054 222 q 947 -42 1054 15 q 649 -99 839 -99 q 349 -42 457 -99 q 240 119 240 15 m 347 119 q 428 19 347 56 q 649 -17 508 -17 q 867 19 788 -17 q 947 119 947 56 q 867 219 947 183 q 649 254 788 254 q 428 219 508 254 q 347 119 347 183 z "},"굊":{"ha":1214,"x_min":0,"x_max":0,"o":""},"굋":{"ha":1214,"x_min":0,"x_max":0,"o":""},"굌":{"ha":1214,"x_min":0,"x_max":0,"o":""},"굍":{"ha":1214,"x_min":0,"x_max":0,"o":""},"굎":{"ha":1214,"x_min":0,"x_max":0,"o":""},"굏":{"ha":1214,"x_min":0,"x_max":0,"o":""},"교":{"ha":1214,"x_min":56,"x_max":1154,"o":"m 1022 990 l 1022 856 q 1015 583 1022 699 q 979 318 1008 467 l 876 331 q 911 587 904 472 q 918 856 918 701 l 918 904 l 169 904 l 169 990 l 1022 990 m 56 160 l 329 160 l 329 563 l 432 563 l 432 160 l 631 160 l 631 563 l 733 563 l 733 160 l 1154 160 l 1154 72 l 56 72 l 56 160 z "},"굑":{"ha":1214,"x_min":0,"x_max":0,"o":""},"굒":{"ha":1214,"x_min":0,"x_max":0,"o":""},"굓":{"ha":1214,"x_min":0,"x_max":0,"o":""},"굔":{"ha":1214,"x_min":57,"x_max":1153,"o":"m 1019 1042 l 1019 947 q 1015 766 1019 844 q 992 592 1010 688 l 888 601 q 912 772 907 697 q 917 947 917 847 l 917 957 l 183 957 l 183 1042 l 1019 1042 m 57 494 l 342 494 l 342 750 l 443 750 l 443 494 l 646 494 l 646 750 l 747 750 l 747 494 l 1153 494 l 1153 410 l 57 410 l 57 494 m 197 288 l 301 288 l 301 10 l 1044 10 l 1044 -75 l 197 -75 l 197 288 z "},"굕":{"ha":1214,"x_min":0,"x_max":0,"o":""},"굖":{"ha":1214,"x_min":0,"x_max":0,"o":""},"굗":{"ha":1214,"x_min":0,"x_max":0,"o":""},"굘":{"ha":1214,"x_min":57,"x_max":1153,"o":"m 1019 1069 l 1019 985 q 1015 838 1019 901 q 996 699 1011 774 l 896 708 q 913 844 910 785 q 917 983 917 904 l 183 983 l 183 1069 l 1019 1069 m 57 621 l 343 621 l 343 843 l 444 843 l 444 621 l 643 621 l 643 843 l 744 843 l 744 621 l 1153 621 l 1153 536 l 57 536 l 57 621 m 186 426 l 1018 426 l 1018 138 l 293 138 l 293 -3 l 1049 -3 l 1049 -87 l 190 -87 l 190 214 l 915 214 l 915 342 l 186 342 l 186 426 z "},"굙":{"ha":1214,"x_min":0,"x_max":0,"o":""},"굚":{"ha":1214,"x_min":0,"x_max":0,"o":""},"굛":{"ha":1214,"x_min":0,"x_max":0,"o":""},"굜":{"ha":1214,"x_min":0,"x_max":0,"o":""},"굝":{"ha":1214,"x_min":0,"x_max":0,"o":""},"굞":{"ha":1214,"x_min":0,"x_max":0,"o":""},"굟":{"ha":1214,"x_min":0,"x_max":0,"o":""},"굠":{"ha":1214,"x_min":57,"x_max":1153,"o":"m 1017 340 l 1017 -86 l 190 -86 l 190 340 l 1017 340 m 57 554 l 342 554 l 342 788 l 443 788 l 443 554 l 646 554 l 646 788 l 747 788 l 747 554 l 1153 554 l 1153 469 l 57 469 l 57 554 m 183 1063 l 1019 1063 l 1019 975 q 1015 810 1019 883 q 992 649 1010 738 l 889 658 q 912 817 907 747 q 917 975 917 886 l 917 978 l 183 978 l 183 1063 m 915 0 l 915 257 l 293 257 l 293 0 l 915 0 z "},"굡":{"ha":1214,"x_min":58,"x_max":1153,"o":"m 1018 1065 l 1018 978 q 1013 815 1018 886 q 988 654 1008 743 l 886 668 q 910 822 906 754 q 915 978 915 890 l 915 979 l 182 979 l 182 1065 l 1018 1065 m 58 579 l 343 579 l 343 806 l 444 806 l 444 579 l 639 579 l 639 806 l 742 806 l 742 579 l 1153 579 l 1153 493 l 58 493 l 58 579 m 201 399 l 304 399 l 304 247 l 906 247 l 906 399 l 1007 399 l 1007 -86 l 201 -86 l 201 399 m 906 -1 l 906 165 l 304 165 l 304 -1 l 906 -1 z "},"굢":{"ha":1214,"x_min":0,"x_max":0,"o":""},"굣":{"ha":1214,"x_min":56,"x_max":1154,"o":"m 1025 1058 l 1025 953 q 1020 782 1025 853 q 996 626 1015 711 l 893 638 q 919 788 914 719 q 924 953 924 857 l 924 974 l 185 974 l 185 1058 l 1025 1058 m 56 533 l 344 533 l 344 785 l 446 785 l 446 533 l 642 533 l 642 785 l 743 785 l 743 533 l 1154 533 l 1154 447 l 56 447 l 56 533 m 136 -15 q 341 46 247 1 q 492 156 435 90 q 549 301 549 222 l 549 358 l 653 358 l 653 301 q 709 156 653 222 q 860 46 765 90 q 1064 -15 954 1 l 1025 -97 q 767 -7 881 -72 q 600 154 653 58 q 433 -7 547 58 q 176 -97 319 -72 l 136 -15 z "},"굤":{"ha":1214,"x_min":0,"x_max":0,"o":""},"굥":{"ha":1214,"x_min":57,"x_max":1153,"o":"m 1019 1054 l 1019 965 q 1015 799 1019 872 q 992 635 1010 726 l 889 644 q 912 805 907 735 q 917 965 917 875 l 917 969 l 183 969 l 183 1054 l 1019 1054 m 57 539 l 342 539 l 342 778 l 443 778 l 443 539 l 646 539 l 646 778 l 747 778 l 747 539 l 1153 539 l 1153 454 l 57 454 l 57 539 m 179 122 q 292 285 179 226 q 600 344 406 344 q 909 285 794 344 q 1024 122 1024 226 q 909 -41 1024 18 q 600 -100 794 -100 q 292 -41 406 -100 q 179 122 179 18 m 282 122 q 368 20 282 58 q 600 -18 454 -18 q 833 20 746 -18 q 919 122 919 58 q 833 226 919 188 q 600 264 746 264 q 368 226 454 264 q 282 122 282 188 z "},"굦":{"ha":1214,"x_min":0,"x_max":0,"o":""},"굧":{"ha":1214,"x_min":0,"x_max":0,"o":""},"굨":{"ha":1214,"x_min":0,"x_max":0,"o":""},"굩":{"ha":1214,"x_min":0,"x_max":0,"o":""},"굪":{"ha":1214,"x_min":0,"x_max":0,"o":""},"굫":{"ha":1214,"x_min":0,"x_max":0,"o":""},"구":{"ha":1214,"x_min":56,"x_max":1154,"o":"m 1008 1033 l 1008 928 q 1003 719 1008 810 q 974 511 997 628 l 1154 511 l 1154 424 l 656 424 l 656 -104 l 550 -104 l 550 424 l 56 424 l 56 511 l 868 511 q 899 718 893 626 q 906 928 906 810 l 906 949 l 196 949 l 196 1033 l 1008 1033 z "},"국":{"ha":1214,"x_min":56,"x_max":1157,"o":"m 1013 1054 l 1013 967 q 1008 793 1013 869 q 982 619 1003 717 l 1157 619 l 1157 533 l 657 533 l 657 306 l 1021 306 l 1021 -101 l 918 -101 l 918 221 l 171 221 l 171 306 l 554 306 l 554 533 l 56 533 l 56 619 l 878 619 q 906 794 900 717 q 911 967 911 871 l 911 969 l 197 969 l 197 1054 l 1013 1054 z "},"굮":{"ha":1214,"x_min":0,"x_max":0,"o":""},"굯":{"ha":1214,"x_min":0,"x_max":0,"o":""},"군":{"ha":1214,"x_min":56,"x_max":1157,"o":"m 1014 1049 l 1014 953 q 1008 764 1014 847 q 982 575 1003 681 l 1157 575 l 1157 490 l 663 490 l 663 194 l 558 194 l 558 490 l 56 490 l 56 575 l 878 575 q 906 764 900 681 q 911 953 911 847 l 911 963 l 197 963 l 197 1049 l 1014 1049 m 197 304 l 300 304 l 300 11 l 1039 11 l 1039 -75 l 197 -75 l 197 304 z "},"굱":{"ha":1214,"x_min":0,"x_max":0,"o":""},"굲":{"ha":1214,"x_min":0,"x_max":0,"o":""},"굳":{"ha":1214,"x_min":56,"x_max":1157,"o":"m 1013 1056 l 1013 967 q 1008 797 1013 872 q 983 626 1003 721 l 1157 626 l 1157 540 l 657 540 l 657 336 l 1021 336 l 1021 253 l 294 253 l 294 -1 l 1032 -1 l 1032 -86 l 192 -86 l 192 336 l 554 336 l 554 540 l 56 540 l 56 626 l 879 626 q 906 797 900 722 q 911 967 911 872 l 911 969 l 197 969 l 197 1056 l 1013 1056 z "},"굴":{"ha":1214,"x_min":56,"x_max":1157,"o":"m 1013 1064 l 1013 986 q 1008 830 1013 901 q 988 672 1004 758 l 1157 672 l 1157 588 l 656 588 l 656 429 l 1018 429 l 1018 136 l 293 136 l 293 -3 l 1049 -3 l 1049 -87 l 190 -87 l 190 213 l 915 213 l 915 344 l 186 344 l 186 429 l 553 429 l 553 588 l 56 588 l 56 672 l 883 672 q 906 830 901 760 q 911 979 911 900 l 197 979 l 197 1064 l 1013 1064 z "},"굵":{"ha":1214,"x_min":56,"x_max":1157,"o":"m 1013 1065 l 1013 988 q 1008 828 1013 901 q 986 667 1004 756 l 1157 667 l 1157 581 l 656 581 l 656 400 l 553 400 l 553 581 l 56 581 l 56 667 l 882 667 q 906 828 900 757 q 911 979 911 899 l 197 979 l 197 1065 l 1013 1065 m 174 393 l 576 393 l 576 122 l 278 122 l 278 -7 q 502 -1 419 -7 q 668 25 585 6 l 679 -56 q 499 -83 589 -76 q 251 -89 410 -89 l 178 -89 l 178 200 l 475 200 l 475 313 l 174 313 l 174 393 m 642 393 l 1026 393 l 1026 -94 l 925 -94 l 925 308 l 642 308 l 642 393 z "},"굶":{"ha":1214,"x_min":56,"x_max":1157,"o":"m 1013 1065 l 1013 988 q 1008 827 1013 900 q 986 664 1004 754 l 1157 664 l 1157 578 l 654 578 l 654 400 l 1031 400 l 1031 -87 l 640 -87 l 640 396 l 560 396 l 560 129 l 275 129 l 275 -7 q 456 -3 389 -7 q 590 14 522 1 l 600 -65 q 456 -84 525 -81 q 239 -87 386 -87 l 175 -87 l 175 204 l 460 204 l 460 321 l 172 321 l 172 400 l 553 400 l 553 578 l 56 578 l 56 664 l 882 664 q 906 826 900 754 q 911 979 911 899 l 197 979 l 197 1065 l 1013 1065 m 939 -8 l 939 322 l 731 322 l 731 -8 l 939 -8 z "},"굷":{"ha":1214,"x_min":0,"x_max":0,"o":""},"굸":{"ha":1214,"x_min":0,"x_max":0,"o":""},"굹":{"ha":1214,"x_min":0,"x_max":0,"o":""},"굺":{"ha":1214,"x_min":0,"x_max":0,"o":""},"굻":{"ha":1214,"x_min":56,"x_max":1157,"o":"m 1013 1067 l 1013 993 q 1008 832 1013 906 q 988 668 1004 758 l 1157 668 l 1157 582 l 653 582 l 653 404 l 549 404 l 549 582 l 56 582 l 56 668 l 883 668 q 906 831 901 758 q 911 982 911 903 l 197 982 l 197 1067 l 1013 1067 m 169 400 l 544 400 l 544 128 l 269 128 l 269 -3 q 458 1 390 -3 q 597 18 526 6 l 608 -60 q 457 -79 531 -75 q 238 -83 383 -83 l 172 -83 l 172 206 l 447 206 l 447 322 l 169 322 l 169 400 m 592 346 l 794 346 l 794 458 l 894 458 l 894 346 l 1100 346 l 1100 267 l 592 267 l 592 346 m 642 61 q 698 179 642 135 q 844 224 754 224 q 992 179 935 224 q 1049 61 1049 135 q 992 -58 1049 -14 q 844 -101 935 -101 q 698 -58 754 -101 q 642 61 642 -14 m 732 61 q 763 -6 732 19 q 844 -31 794 -31 q 927 -6 896 -31 q 958 61 958 19 q 927 127 958 103 q 844 151 896 151 q 763 127 794 151 q 732 61 732 103 z "},"굼":{"ha":1214,"x_min":56,"x_max":1157,"o":"m 1011 1058 l 1011 971 q 1006 800 1011 876 q 982 629 1001 724 l 1157 629 l 1157 543 l 656 543 l 656 335 l 1018 335 l 1018 -85 l 192 -85 l 192 335 l 553 335 l 553 543 l 56 543 l 56 629 l 878 629 q 904 801 899 726 q 910 971 910 876 l 910 974 l 194 974 l 194 1058 l 1011 1058 m 917 0 l 917 251 l 293 251 l 293 0 l 917 0 z "},"굽":{"ha":1214,"x_min":56,"x_max":1157,"o":"m 1011 1063 l 1011 975 q 1006 805 1011 881 q 982 636 1001 729 l 1157 636 l 1157 551 l 654 551 l 654 335 l 551 335 l 551 551 l 56 551 l 56 636 l 879 636 q 905 807 900 732 q 910 975 910 882 l 910 976 l 194 976 l 194 1063 l 1011 1063 m 199 406 l 303 406 l 303 249 l 908 249 l 908 406 l 1011 406 l 1011 -85 l 199 -85 l 199 406 m 908 0 l 908 165 l 303 165 l 303 0 l 908 0 z "},"굾":{"ha":1214,"x_min":0,"x_max":0,"o":""},"굿":{"ha":1214,"x_min":56,"x_max":1157,"o":"m 1013 1061 l 1013 981 q 1008 809 1013 888 q 983 632 1003 731 l 1157 632 l 1157 546 l 656 546 l 656 354 l 553 354 l 553 546 l 56 546 l 56 632 l 879 632 q 906 808 900 731 q 911 976 911 885 l 197 976 l 197 1061 l 1013 1061 m 142 -17 q 344 36 250 -3 q 494 133 438 75 q 551 258 551 190 l 551 303 l 656 303 l 656 258 q 712 131 656 189 q 863 35 768 74 q 1065 -17 957 -3 l 1031 -96 q 769 -18 885 -76 q 603 128 654 40 q 435 -19 550 40 q 178 -96 319 -78 l 142 -17 z "},"궀":{"ha":1214,"x_min":0,"x_max":0,"o":""},"궁":{"ha":1214,"x_min":56,"x_max":1157,"o":"m 1013 1058 l 1013 974 q 1007 799 1013 878 q 981 625 1001 721 l 1157 625 l 1157 539 l 656 539 l 656 346 q 926 281 829 339 q 1024 124 1024 222 q 913 -40 1024 18 q 603 -99 801 -99 q 294 -40 406 -99 q 183 124 183 18 q 281 281 183 222 q 553 346 379 339 l 553 539 l 56 539 l 56 625 l 878 625 q 906 801 900 724 q 911 974 911 878 l 911 975 l 197 975 l 197 1058 l 1013 1058 m 288 124 q 371 21 288 57 q 603 -15 454 -15 q 835 21 751 -15 q 919 124 919 57 q 835 226 919 190 q 603 263 751 263 q 371 226 454 263 q 288 124 288 190 z "},"궂":{"ha":1214,"x_min":56,"x_max":1157,"o":"m 1013 1057 l 1013 982 q 1008 814 1013 892 q 983 639 1003 736 l 1157 639 l 1157 553 l 657 553 l 657 356 l 1025 356 l 1025 271 l 661 271 q 725 137 667 197 q 875 38 783 76 q 1074 -15 967 -1 l 1036 -97 q 774 -10 890 -74 q 607 147 658 53 q 439 -10 556 53 q 176 -97 322 -74 l 139 -15 q 338 38 246 -1 q 488 137 429 76 q 551 271 546 197 l 186 271 l 186 356 l 553 356 l 553 553 l 56 553 l 56 639 l 881 639 q 906 813 900 736 q 911 972 911 889 l 197 972 l 197 1057 l 1013 1057 z "},"궃":{"ha":1214,"x_min":0,"x_max":0,"o":""},"궄":{"ha":1214,"x_min":0,"x_max":0,"o":""},"궅":{"ha":1214,"x_min":0,"x_max":0,"o":""},"궆":{"ha":1214,"x_min":0,"x_max":0,"o":""},"궇":{"ha":1214,"x_min":0,"x_max":0,"o":""},"궈":{"ha":1214,"x_min":44,"x_max":1050,"o":"m 1050 1114 l 1050 -103 l 944 -103 l 944 260 l 667 260 l 667 344 l 944 344 l 944 1114 l 1050 1114 m 44 546 q 583 560 401 549 q 608 756 603 669 q 614 929 614 842 l 149 929 l 149 1015 l 715 1015 l 715 947 q 710 765 715 851 q 688 565 706 678 q 849 581 747 569 l 856 503 q 481 469 704 482 l 481 -35 l 376 -35 l 376 465 q 58 460 226 460 l 44 546 z "},"궉":{"ha":1214,"x_min":44,"x_max":1051,"o":"m 1051 1114 l 1051 338 l 947 338 l 947 446 l 678 446 l 678 524 l 947 524 l 947 1114 l 1051 1114 m 44 675 q 589 689 404 678 q 618 971 618 826 l 163 971 l 163 1056 l 718 1056 l 718 996 q 714 851 718 921 q 693 694 710 782 l 833 707 l 842 631 q 475 599 686 611 l 475 339 l 372 339 l 372 594 q 58 589 222 589 l 44 675 m 229 286 l 1050 286 l 1050 -97 l 946 -97 l 946 203 l 229 203 l 229 286 z "},"궊":{"ha":1214,"x_min":0,"x_max":0,"o":""},"궋":{"ha":1214,"x_min":0,"x_max":0,"o":""},"권":{"ha":1214,"x_min":46,"x_max":1081,"o":"m 1050 1114 l 1050 196 l 946 196 l 946 368 l 678 368 l 678 451 l 946 451 l 946 1114 l 1050 1114 m 46 632 q 589 647 378 632 q 618 954 615 788 l 156 954 l 156 1039 l 721 1039 l 721 992 q 716 835 721 913 q 694 656 711 757 q 835 672 767 663 l 842 596 q 494 557 704 572 l 494 275 l 392 275 l 392 551 q 61 544 243 544 l 46 632 m 226 297 l 331 297 l 331 13 l 1081 13 l 1081 -74 l 226 -74 l 226 297 z "},"궍":{"ha":1214,"x_min":0,"x_max":0,"o":""},"궎":{"ha":1214,"x_min":0,"x_max":0,"o":""},"궏":{"ha":1214,"x_min":0,"x_max":0,"o":""},"궐":{"ha":1214,"x_min":49,"x_max":1097,"o":"m 1051 1114 l 1051 424 l 947 424 l 947 506 l 678 506 l 678 579 l 947 579 l 947 1114 l 1051 1114 m 49 713 q 589 728 378 713 q 618 976 613 847 l 168 976 l 168 1063 l 718 1063 l 718 1031 q 693 736 718 874 q 838 753 768 743 l 846 679 q 475 640 690 653 l 475 426 l 371 426 l 371 635 q 63 629 222 629 l 49 713 m 242 379 l 1051 379 l 1051 114 l 346 114 l 346 -7 l 1097 -7 l 1097 -87 l 244 -87 l 244 189 l 949 189 l 949 300 l 242 300 l 242 379 z "},"궑":{"ha":1214,"x_min":0,"x_max":0,"o":""},"궒":{"ha":1214,"x_min":0,"x_max":0,"o":""},"궓":{"ha":1214,"x_min":0,"x_max":0,"o":""},"궔":{"ha":1214,"x_min":0,"x_max":0,"o":""},"궕":{"ha":1214,"x_min":0,"x_max":0,"o":""},"궖":{"ha":1214,"x_min":0,"x_max":0,"o":""},"궗":{"ha":1214,"x_min":0,"x_max":0,"o":""},"궘":{"ha":1214,"x_min":0,"x_max":0,"o":""},"궙":{"ha":1214,"x_min":0,"x_max":0,"o":""},"궚":{"ha":1214,"x_min":0,"x_max":0,"o":""},"궛":{"ha":1214,"x_min":0,"x_max":0,"o":""},"궜":{"ha":1214,"x_min":46,"x_max":1151,"o":"m 1053 1114 l 1053 381 l 947 381 l 947 472 l 679 472 l 679 553 l 947 553 l 947 1114 l 1053 1114 m 46 697 q 342 701 218 699 q 593 714 465 704 q 619 978 619 851 l 164 978 l 164 1063 l 719 1063 l 719 1006 q 715 869 719 935 q 697 724 711 804 q 836 740 767 729 l 843 663 q 476 622 678 633 l 476 383 l 374 383 l 374 617 q 60 611 224 611 l 46 697 m 143 0 q 317 122 253 39 q 381 297 381 204 l 381 338 l 481 338 l 481 297 q 524 140 481 218 q 646 13 567 61 q 769 140 726 63 q 813 297 813 218 l 813 338 l 914 338 l 914 297 q 978 120 914 203 q 1151 0 1042 38 l 1100 -78 q 955 10 1015 -47 q 863 144 894 68 q 781 6 835 67 q 647 -87 726 -54 q 513 6 567 -54 q 431 144 458 67 q 338 12 399 69 q 194 -78 278 -46 l 143 0 z "},"궝":{"ha":1214,"x_min":47,"x_max":1063,"o":"m 1050 1114 l 1050 339 l 946 339 l 946 449 l 678 449 l 678 526 l 946 526 l 946 1114 l 1050 1114 m 47 671 q 341 675 218 672 q 590 688 464 678 q 619 971 619 824 l 164 971 l 164 1056 l 719 1056 l 719 994 q 715 850 719 918 q 694 696 711 782 q 836 713 768 703 l 843 638 q 475 597 682 611 l 475 353 l 371 353 l 371 593 q 61 586 232 586 l 47 671 m 249 117 q 356 275 249 219 q 657 331 464 331 q 956 275 849 331 q 1063 117 1063 219 q 955 -43 1063 14 q 657 -100 847 -100 q 356 -44 464 -100 q 249 117 249 13 m 354 117 q 434 17 354 53 q 657 -18 514 -18 q 878 17 799 -18 q 957 117 957 53 q 878 214 957 179 q 657 249 799 249 q 434 214 514 249 q 354 117 354 179 z "},"궞":{"ha":1214,"x_min":0,"x_max":0,"o":""},"궟":{"ha":1214,"x_min":0,"x_max":0,"o":""},"궠":{"ha":1214,"x_min":0,"x_max":0,"o":""},"궡":{"ha":1214,"x_min":0,"x_max":0,"o":""},"궢":{"ha":1214,"x_min":0,"x_max":0,"o":""},"궣":{"ha":1214,"x_min":0,"x_max":0,"o":""},"궤":{"ha":1214,"x_min":39,"x_max":1079,"o":"m 1079 1114 l 1079 -101 l 979 -101 l 979 1114 l 1079 1114 m 39 549 q 465 560 290 549 q 497 893 497 722 l 104 893 l 104 978 l 594 978 l 594 919 q 590 751 594 832 q 565 568 585 671 q 675 581 622 572 l 682 506 q 404 472 572 485 l 404 4 l 306 4 l 306 467 q 51 463 167 463 l 39 549 m 522 346 l 751 346 l 751 1086 l 850 1086 l 850 -33 l 751 -33 l 751 261 l 522 261 l 522 346 z "},"궥":{"ha":1214,"x_min":0,"x_max":0,"o":""},"궦":{"ha":1214,"x_min":0,"x_max":0,"o":""},"궧":{"ha":1214,"x_min":0,"x_max":0,"o":""},"궨":{"ha":1214,"x_min":0,"x_max":0,"o":""},"궩":{"ha":1214,"x_min":0,"x_max":0,"o":""},"궪":{"ha":1214,"x_min":0,"x_max":0,"o":""},"궫":{"ha":1214,"x_min":0,"x_max":0,"o":""},"궬":{"ha":1214,"x_min":0,"x_max":0,"o":""},"궭":{"ha":1214,"x_min":0,"x_max":0,"o":""},"궮":{"ha":1214,"x_min":0,"x_max":0,"o":""},"궯":{"ha":1214,"x_min":0,"x_max":0,"o":""},"궰":{"ha":1214,"x_min":0,"x_max":0,"o":""},"궱":{"ha":1214,"x_min":0,"x_max":0,"o":""},"궲":{"ha":1214,"x_min":0,"x_max":0,"o":""},"궳":{"ha":1214,"x_min":0,"x_max":0,"o":""},"궴":{"ha":1214,"x_min":44,"x_max":1074,"o":"m 1074 303 l 1074 -85 l 253 -85 l 253 303 l 1074 303 m 44 672 q 465 683 292 672 q 494 949 492 814 l 114 949 l 114 1033 l 592 1033 l 592 983 q 587 845 592 913 q 565 692 582 778 q 686 706 643 699 l 693 631 q 414 599 558 607 l 414 372 l 315 372 l 315 593 q 56 588 188 588 l 44 672 m 969 -1 l 969 221 l 356 221 l 356 -1 l 969 -1 m 525 535 l 749 535 l 749 1092 l 847 1092 l 847 371 l 749 371 l 749 456 l 525 456 l 525 535 m 974 1114 l 1074 1114 l 1074 361 l 974 361 l 974 1114 z "},"궵":{"ha":1214,"x_min":0,"x_max":0,"o":""},"궶":{"ha":1214,"x_min":0,"x_max":0,"o":""},"궷":{"ha":1214,"x_min":44,"x_max":1111,"o":"m 1075 1114 l 1075 233 l 974 233 l 974 1114 l 1075 1114 m 44 649 q 465 660 292 649 q 494 936 494 803 l 115 936 l 115 1021 l 592 1021 l 592 968 q 587 826 592 894 q 565 668 582 757 q 686 682 643 675 l 694 606 q 415 574 560 582 l 415 278 l 317 278 l 317 568 q 56 563 189 563 l 44 649 m 189 -18 q 395 37 301 -3 q 545 137 489 76 q 601 271 601 197 l 601 303 l 704 303 l 704 271 q 760 137 704 197 q 908 37 815 76 q 1111 -18 1001 -3 l 1074 -99 q 817 -17 931 -76 q 653 135 704 43 q 486 -17 600 43 q 228 -99 372 -76 l 189 -18 m 526 504 l 749 504 l 749 1090 l 847 1090 l 847 288 l 749 288 l 749 426 l 526 426 l 526 504 z "},"궸":{"ha":1214,"x_min":44,"x_max":1165,"o":"m 1075 1114 l 1075 361 l 975 361 l 975 1114 l 1075 1114 m 44 672 q 467 683 293 672 q 496 949 493 814 l 115 949 l 115 1033 l 593 1033 l 593 983 q 588 844 593 911 q 567 690 583 776 q 688 704 644 697 l 694 631 q 417 599 563 607 l 417 372 l 317 372 l 317 593 q 57 588 189 588 l 44 672 m 121 -8 q 301 109 233 28 q 368 283 368 190 l 368 317 l 469 317 l 469 283 q 514 126 469 204 q 642 1 558 49 q 771 127 725 50 q 817 283 817 204 l 817 317 l 917 317 l 917 283 q 984 108 917 189 q 1165 -8 1051 26 l 1114 -86 q 963 1 1026 -57 q 868 136 900 60 q 782 -3 839 58 q 643 -97 725 -64 q 503 -3 560 -64 q 418 135 447 57 q 322 2 385 60 q 172 -86 260 -56 l 121 -8 m 526 535 l 750 535 l 750 1092 l 849 1092 l 849 371 l 750 371 l 750 456 l 526 456 l 526 535 z "},"궹":{"ha":1214,"x_min":0,"x_max":0,"o":""},"궺":{"ha":1214,"x_min":0,"x_max":0,"o":""},"궻":{"ha":1214,"x_min":0,"x_max":0,"o":""},"궼":{"ha":1214,"x_min":0,"x_max":0,"o":""},"궽":{"ha":1214,"x_min":0,"x_max":0,"o":""},"궾":{"ha":1214,"x_min":0,"x_max":0,"o":""},"궿":{"ha":1214,"x_min":0,"x_max":0,"o":""},"귀":{"ha":1214,"x_min":47,"x_max":1056,"o":"m 1056 1114 l 1056 -101 l 951 -101 l 951 1114 l 1056 1114 m 47 532 q 582 543 401 535 q 619 933 617 733 l 153 933 l 153 1019 l 722 1019 l 722 972 q 716 780 722 878 q 686 550 710 682 q 864 565 801 558 l 871 488 q 494 454 690 463 l 494 -29 l 389 -29 l 389 449 q 61 443 235 443 l 47 532 z "},"귁":{"ha":1214,"x_min":47,"x_max":1040,"o":"m 1040 1114 l 1040 396 l 936 396 l 936 1114 l 1040 1114 m 47 632 q 337 634 213 632 q 588 646 461 636 q 610 813 606 739 q 615 965 615 886 l 164 965 l 164 1050 l 718 1050 l 718 974 q 714 815 718 888 q 693 654 710 743 q 843 672 790 665 l 850 596 q 496 557 686 568 l 496 331 l 1040 331 l 1040 -107 l 936 -107 l 936 244 l 224 244 l 224 331 l 392 331 l 392 551 q 61 544 243 544 l 47 632 z "},"귂":{"ha":1214,"x_min":0,"x_max":0,"o":""},"귃":{"ha":1214,"x_min":0,"x_max":0,"o":""},"귄":{"ha":1214,"x_min":53,"x_max":1078,"o":"m 53 601 q 601 615 385 601 q 629 944 626 779 l 165 944 l 165 1029 l 731 1029 l 731 989 q 704 624 731 794 l 747 628 q 794 633 764 629 q 846 640 824 636 l 854 567 q 528 528 704 542 l 528 254 l 424 254 l 424 522 q 68 514 271 514 l 53 601 m 232 293 l 335 293 l 335 13 l 1078 13 l 1078 -74 l 232 -74 l 232 293 m 938 1114 l 1040 1114 l 1040 203 l 938 203 l 938 1114 z "},"귅":{"ha":1214,"x_min":0,"x_max":0,"o":""},"귆":{"ha":1214,"x_min":0,"x_max":0,"o":""},"귇":{"ha":1214,"x_min":0,"x_max":0,"o":""},"귈":{"ha":1214,"x_min":56,"x_max":1089,"o":"m 1040 1114 l 1040 479 l 938 479 l 938 1114 l 1040 1114 m 56 681 q 594 692 379 681 q 621 975 618 833 l 168 975 l 168 1060 l 722 1060 l 722 1019 q 696 697 722 846 l 742 701 q 844 710 792 703 l 851 635 q 494 604 719 617 l 494 424 l 1040 424 l 1040 136 l 349 136 l 349 -4 l 1089 -4 l 1089 -87 l 246 -87 l 246 213 l 938 213 l 938 342 l 243 342 l 243 424 l 390 424 l 390 600 q 71 594 239 594 l 56 681 z "},"귉":{"ha":1214,"x_min":0,"x_max":0,"o":""},"귊":{"ha":1214,"x_min":0,"x_max":0,"o":""},"귋":{"ha":1214,"x_min":0,"x_max":0,"o":""},"귌":{"ha":1214,"x_min":0,"x_max":0,"o":""},"귍":{"ha":1214,"x_min":0,"x_max":0,"o":""},"귎":{"ha":1214,"x_min":0,"x_max":0,"o":""},"귏":{"ha":1214,"x_min":0,"x_max":0,"o":""},"귐":{"ha":1214,"x_min":47,"x_max":1040,"o":"m 1040 1114 l 1040 410 l 936 410 l 936 1114 l 1040 1114 m 47 621 q 592 636 379 621 q 611 799 607 728 q 615 958 615 871 l 164 958 l 164 1044 l 718 1044 l 718 963 q 715 803 718 875 q 697 644 711 732 q 843 663 792 656 l 850 586 q 497 546 710 561 l 497 338 l 1040 338 l 1040 -85 l 253 -85 l 253 338 l 393 338 l 393 540 q 61 533 244 533 l 47 621 m 939 0 l 939 256 l 354 256 l 354 0 l 939 0 z "},"귑":{"ha":1214,"x_min":47,"x_max":1040,"o":"m 1040 1114 l 1040 425 l 936 425 l 936 1114 l 1040 1114 m 47 667 q 592 679 408 669 q 615 835 610 767 q 619 976 619 903 l 164 976 l 164 1063 l 722 1063 l 722 993 q 718 843 722 913 q 697 686 714 774 q 842 700 794 694 l 849 624 q 494 590 703 603 l 494 375 l 390 375 l 390 586 q 60 581 233 581 l 47 667 m 244 371 l 346 371 l 346 233 l 938 233 l 938 371 l 1040 371 l 1040 -85 l 244 -85 l 244 371 m 938 0 l 938 151 l 346 151 l 346 0 l 938 0 z "},"귒":{"ha":1214,"x_min":0,"x_max":0,"o":""},"귓":{"ha":1214,"x_min":57,"x_max":1133,"o":"m 1042 1114 l 1042 253 l 938 253 l 938 1114 l 1042 1114 m 57 622 q 593 636 383 622 q 616 804 611 729 q 621 960 621 879 l 169 960 l 169 1047 l 724 1047 l 724 975 q 719 813 724 889 q 699 644 715 738 q 843 661 774 651 l 850 585 q 483 546 679 557 l 483 279 l 379 279 l 379 540 q 71 535 231 535 l 57 622 m 218 -15 q 422 44 328 1 q 572 153 515 88 q 628 296 628 218 l 628 350 l 732 350 l 732 296 q 788 153 732 218 q 935 44 843 88 q 1133 -15 1026 1 l 1093 -97 q 842 -8 953 -72 q 681 151 731 56 q 515 -8 628 56 q 258 -97 401 -72 l 218 -15 z "},"귔":{"ha":1214,"x_min":0,"x_max":0,"o":""},"귕":{"ha":1214,"x_min":56,"x_max":1046,"o":"m 1040 1114 l 1040 342 l 936 342 l 936 1114 l 1040 1114 m 56 615 q 342 617 219 615 q 590 629 465 619 q 614 800 608 725 q 619 957 619 875 l 168 957 l 168 1043 l 722 1043 l 722 971 q 718 808 722 885 q 697 638 714 732 q 842 654 772 644 l 849 576 q 482 538 678 549 l 482 333 q 642 346 553 346 q 939 288 832 346 q 1046 124 1046 229 q 939 -40 1046 18 q 642 -99 832 -99 q 342 -40 450 -99 q 235 124 235 18 q 272 230 235 183 q 378 304 308 276 l 378 533 q 69 528 229 528 l 56 615 m 340 124 q 421 21 340 58 q 642 -17 501 -17 q 861 21 781 -17 q 942 124 942 58 q 861 226 942 189 q 642 263 781 263 q 421 226 501 263 q 340 124 340 189 z "},"귖":{"ha":1214,"x_min":0,"x_max":0,"o":""},"귗":{"ha":1214,"x_min":0,"x_max":0,"o":""},"귘":{"ha":1214,"x_min":0,"x_max":0,"o":""},"귙":{"ha":1214,"x_min":0,"x_max":0,"o":""},"귚":{"ha":1214,"x_min":0,"x_max":0,"o":""},"귛":{"ha":1214,"x_min":0,"x_max":0,"o":""},"규":{"ha":1214,"x_min":56,"x_max":1154,"o":"m 1003 1033 l 1003 942 q 997 727 1003 825 q 965 501 990 629 l 1154 501 l 1154 417 l 861 417 l 861 -103 l 758 -103 l 758 417 l 447 417 l 447 -103 l 343 -103 l 343 417 l 56 417 l 56 501 l 860 501 q 893 726 886 628 q 900 942 900 825 l 900 947 l 197 947 l 197 1033 l 1003 1033 z "},"귝":{"ha":1214,"x_min":0,"x_max":0,"o":""},"귞":{"ha":1214,"x_min":0,"x_max":0,"o":""},"귟":{"ha":1214,"x_min":0,"x_max":0,"o":""},"균":{"ha":1214,"x_min":56,"x_max":1157,"o":"m 1014 1047 l 1014 956 q 1009 774 1014 854 q 985 590 1004 693 l 1157 590 l 1157 504 l 849 504 l 849 208 l 747 208 l 747 504 l 524 504 l 524 208 l 422 208 l 422 504 l 56 504 l 56 590 l 882 590 q 906 774 901 693 q 911 956 911 854 l 911 963 l 194 963 l 194 1047 l 1014 1047 m 190 306 l 294 306 l 294 11 l 1046 11 l 1046 -75 l 190 -75 l 190 306 z "},"귡":{"ha":1214,"x_min":0,"x_max":0,"o":""},"귢":{"ha":1214,"x_min":0,"x_max":0,"o":""},"귣":{"ha":1214,"x_min":0,"x_max":0,"o":""},"귤":{"ha":1214,"x_min":56,"x_max":1157,"o":"m 1013 1065 l 1013 988 q 1008 831 1013 901 q 988 675 1004 761 l 1157 675 l 1157 592 l 858 592 l 858 429 l 1018 429 l 1018 136 l 293 136 l 293 -3 l 1049 -3 l 1049 -87 l 190 -87 l 190 213 l 915 213 l 915 344 l 186 344 l 186 429 l 354 429 l 354 592 l 56 592 l 56 675 l 885 675 q 906 832 901 763 q 911 979 911 901 l 197 979 l 197 1065 l 1013 1065 m 756 429 l 756 592 l 457 592 l 457 429 l 756 429 z "},"귥":{"ha":1214,"x_min":0,"x_max":0,"o":""},"귦":{"ha":1214,"x_min":0,"x_max":0,"o":""},"귧":{"ha":1214,"x_min":0,"x_max":0,"o":""},"귨":{"ha":1214,"x_min":0,"x_max":0,"o":""},"귩":{"ha":1214,"x_min":0,"x_max":0,"o":""},"귪":{"ha":1214,"x_min":0,"x_max":0,"o":""},"귫":{"ha":1214,"x_min":0,"x_max":0,"o":""},"귬":{"ha":1214,"x_min":56,"x_max":1157,"o":"m 1011 1058 l 1011 971 q 1006 801 1011 878 q 982 631 1001 725 l 1157 631 l 1157 546 l 858 546 l 858 335 l 1018 335 l 1018 -85 l 192 -85 l 192 335 l 354 335 l 354 546 l 56 546 l 56 631 l 878 631 q 904 801 899 726 q 910 971 910 876 l 910 974 l 194 974 l 194 1058 l 1011 1058 m 917 0 l 917 251 l 293 251 l 293 0 l 917 0 m 756 335 l 756 546 l 457 546 l 457 335 l 756 335 z "},"귭":{"ha":1214,"x_min":0,"x_max":0,"o":""},"귮":{"ha":1214,"x_min":0,"x_max":0,"o":""},"귯":{"ha":1214,"x_min":0,"x_max":0,"o":""},"귰":{"ha":1214,"x_min":0,"x_max":0,"o":""},"귱":{"ha":1214,"x_min":0,"x_max":0,"o":""},"귲":{"ha":1214,"x_min":0,"x_max":0,"o":""},"귳":{"ha":1214,"x_min":0,"x_max":0,"o":""},"귴":{"ha":1214,"x_min":0,"x_max":0,"o":""},"귵":{"ha":1214,"x_min":0,"x_max":0,"o":""},"귶":{"ha":1214,"x_min":0,"x_max":0,"o":""},"귷":{"ha":1214,"x_min":0,"x_max":0,"o":""},"그":{"ha":1214,"x_min":56,"x_max":1154,"o":"m 1006 985 l 1006 865 q 998 578 1006 707 q 960 274 990 449 l 854 283 q 894 578 886 449 q 903 865 903 707 l 903 899 l 176 899 l 176 985 l 1006 985 m 56 165 l 1154 165 l 1154 78 l 56 78 l 56 165 z "},"극":{"ha":1214,"x_min":56,"x_max":1157,"o":"m 1013 1054 l 1013 971 q 1008 789 1013 872 q 982 600 1003 706 l 1157 600 l 1157 514 l 56 514 l 56 600 l 878 600 q 906 788 900 706 q 911 968 911 869 l 197 968 l 197 1054 l 1013 1054 m 172 328 l 1022 328 l 1022 -106 l 918 -106 l 918 244 l 172 244 l 172 328 z "},"귺":{"ha":1214,"x_min":0,"x_max":0,"o":""},"귻":{"ha":1214,"x_min":0,"x_max":0,"o":""},"근":{"ha":1214,"x_min":56,"x_max":1157,"o":"m 1014 1040 l 1014 947 q 1008 751 1014 839 q 982 553 1003 663 l 1157 553 l 1157 467 l 56 467 l 56 553 l 878 553 q 906 751 900 664 q 911 947 911 839 l 911 956 l 197 956 l 197 1040 l 1014 1040 m 201 328 l 306 328 l 306 13 l 1050 13 l 1050 -74 l 201 -74 l 201 328 z "},"귽":{"ha":1214,"x_min":0,"x_max":0,"o":""},"귾":{"ha":1214,"x_min":0,"x_max":0,"o":""},"귿":{"ha":1214,"x_min":56,"x_max":1157,"o":"m 1013 1050 l 1013 961 q 1007 783 1013 863 q 981 606 1001 704 l 1157 606 l 1157 521 l 56 521 l 56 606 l 876 606 q 906 784 900 706 q 911 961 911 863 l 911 965 l 196 965 l 196 1050 l 1013 1050 m 192 346 l 1021 346 l 1021 260 l 294 260 l 294 -1 l 1032 -1 l 1032 -86 l 192 -86 l 192 346 z "},"글":{"ha":1214,"x_min":56,"x_max":1157,"o":"m 1013 1063 l 1013 983 q 1008 824 1013 897 q 986 658 1004 750 l 1157 658 l 1157 574 l 56 574 l 56 658 l 882 658 q 906 822 900 749 q 911 976 911 896 l 197 976 l 197 1063 l 1013 1063 m 186 449 l 1018 449 l 1018 144 l 293 144 l 293 -3 l 1049 -3 l 1049 -87 l 190 -87 l 190 225 l 915 225 l 915 365 l 186 365 l 186 449 z "},"긁":{"ha":1214,"x_min":56,"x_max":1157,"o":"m 1013 1058 l 1013 976 q 1008 806 1013 883 q 982 632 1003 729 l 1157 632 l 1157 546 l 56 546 l 56 632 l 879 632 q 906 805 900 729 q 911 972 911 881 l 197 972 l 197 1058 l 1013 1058 m 174 407 l 576 407 l 576 129 l 278 129 l 278 -6 q 504 0 422 -6 q 668 25 586 6 l 679 -56 q 502 -81 590 -75 q 251 -87 414 -87 l 178 -87 l 178 206 l 475 206 l 475 326 l 174 326 l 174 407 m 642 407 l 1026 407 l 1026 -96 l 925 -96 l 925 322 l 642 322 l 642 407 z "},"긂":{"ha":1214,"x_min":56,"x_max":1157,"o":"m 560 414 l 560 135 l 275 135 l 275 -8 q 453 -3 385 -8 q 590 14 521 1 l 600 -65 q 451 -85 524 -81 q 239 -89 379 -89 l 175 -89 l 175 211 l 460 211 l 460 335 l 172 335 l 172 414 l 560 414 m 56 636 l 879 636 q 906 806 900 732 q 911 972 911 881 l 197 972 l 197 1058 l 1013 1058 l 1013 976 q 1008 808 1013 885 q 982 636 1003 732 l 1157 636 l 1157 550 l 56 550 l 56 636 m 640 414 l 1031 414 l 1031 -89 l 640 -89 l 640 414 m 939 -8 l 939 335 l 731 335 l 731 -8 l 939 -8 z "},"긃":{"ha":1214,"x_min":0,"x_max":0,"o":""},"긄":{"ha":1214,"x_min":0,"x_max":0,"o":""},"긅":{"ha":1214,"x_min":0,"x_max":0,"o":""},"긆":{"ha":1214,"x_min":0,"x_max":0,"o":""},"긇":{"ha":1214,"x_min":56,"x_max":1157,"o":"m 794 353 l 794 460 l 894 460 l 894 353 l 1100 353 l 1100 272 l 592 272 l 592 353 l 794 353 m 56 636 l 879 636 q 906 807 900 732 q 911 972 911 882 l 197 972 l 197 1057 l 1013 1057 l 1013 975 q 1008 808 1013 883 q 982 636 1003 732 l 1157 636 l 1157 550 l 56 550 l 56 636 m 169 417 l 544 417 l 544 136 l 269 136 l 269 -6 q 459 -1 390 -6 q 597 17 528 3 l 608 -62 q 457 -82 531 -78 q 238 -86 383 -86 l 172 -86 l 172 213 l 447 213 l 447 338 l 169 338 l 169 417 m 642 60 q 698 177 642 133 q 844 221 754 221 q 992 177 935 221 q 1049 60 1049 133 q 992 -56 1049 -12 q 844 -100 935 -100 q 698 -57 754 -100 q 642 60 642 -14 m 732 60 q 763 -6 732 18 q 844 -29 794 -29 q 927 -6 896 -29 q 958 60 958 18 q 927 124 958 101 q 844 147 896 147 q 763 124 793 147 q 732 60 732 101 z "},"금":{"ha":1214,"x_min":56,"x_max":1157,"o":"m 1013 1049 l 1013 960 q 1007 781 1013 860 q 979 600 1001 701 l 1157 600 l 1157 514 l 56 514 l 56 600 l 876 600 q 906 781 900 701 q 911 960 911 860 l 911 963 l 197 963 l 197 1049 l 1013 1049 m 192 344 l 1018 344 l 1018 -86 l 192 -86 l 192 344 m 917 -1 l 917 261 l 293 261 l 293 -1 l 917 -1 z "},"급":{"ha":1214,"x_min":56,"x_max":1157,"o":"m 303 418 l 303 254 l 910 254 l 910 418 l 1013 418 l 1013 -86 l 200 -86 l 200 418 l 303 418 m 56 617 l 876 617 q 906 794 900 717 q 911 969 911 872 l 911 972 l 197 972 l 197 1058 l 1013 1058 l 1013 969 q 1007 794 1013 872 q 981 617 1001 717 l 1157 617 l 1157 528 l 56 528 l 56 617 m 910 -1 l 910 172 l 303 172 l 303 -1 l 910 -1 z "},"긊":{"ha":1214,"x_min":0,"x_max":0,"o":""},"긋":{"ha":1214,"x_min":57,"x_max":1151,"o":"m 1008 1050 l 1008 963 q 1003 769 1008 857 q 974 567 997 682 l 1151 567 l 1151 481 l 57 481 l 57 567 l 871 567 q 901 769 894 681 q 907 963 907 857 l 907 964 l 190 964 l 190 1050 l 1008 1050 m 138 -15 q 342 47 247 1 q 492 160 436 92 q 549 307 549 228 l 549 365 l 653 365 l 653 307 q 709 160 653 228 q 859 47 765 92 q 1063 -15 953 1 l 1022 -99 q 767 -6 881 -74 q 600 158 653 61 q 433 -6 547 61 q 178 -99 319 -74 l 138 -15 z "},"긌":{"ha":1214,"x_min":0,"x_max":0,"o":""},"긍":{"ha":1214,"x_min":56,"x_max":1157,"o":"m 1013 1049 l 1013 958 q 1007 776 1013 857 q 979 592 1001 694 l 1157 592 l 1157 506 l 56 506 l 56 592 l 875 592 q 905 778 899 697 q 911 958 911 858 l 911 963 l 197 963 l 197 1049 l 1013 1049 m 183 129 q 295 296 183 236 q 603 356 407 356 q 912 296 800 356 q 1024 129 1024 236 q 912 -39 1024 21 q 603 -99 800 -99 q 295 -39 407 -99 q 183 129 183 21 m 288 129 q 372 25 288 63 q 603 -12 456 -12 q 835 25 751 -12 q 919 129 919 63 q 835 233 919 196 q 603 271 750 271 q 372 233 457 271 q 288 129 288 196 z "},"긎":{"ha":1214,"x_min":0,"x_max":0,"o":""},"긏":{"ha":1214,"x_min":0,"x_max":0,"o":""},"긐":{"ha":1214,"x_min":0,"x_max":0,"o":""},"긑":{"ha":1214,"x_min":0,"x_max":0,"o":""},"긒":{"ha":1214,"x_min":0,"x_max":0,"o":""},"긓":{"ha":1214,"x_min":56,"x_max":1157,"o":"m 553 379 l 553 499 l 657 499 l 657 379 l 1051 379 l 1051 297 l 158 297 l 158 379 l 553 379 m 56 658 l 882 658 q 906 822 900 749 q 911 976 911 896 l 197 976 l 197 1061 l 1013 1061 l 1013 983 q 1008 822 1013 896 q 986 658 1004 749 l 1157 658 l 1157 574 l 56 574 l 56 658 m 242 69 q 335 194 242 151 q 604 236 428 236 q 874 194 781 236 q 968 69 968 151 q 875 -56 968 -14 q 604 -99 782 -99 q 335 -56 428 -99 q 242 69 242 -14 m 349 69 q 415 -1 349 24 q 604 -25 481 -25 q 795 -1 729 -25 q 861 69 861 22 q 795 138 861 114 q 604 161 729 161 q 415 138 481 161 q 349 69 349 114 z "},"긔":{"ha":1214,"x_min":57,"x_max":1036,"o":"m 749 967 l 749 878 q 742 658 749 758 q 710 426 735 557 l 607 440 q 639 664 632 567 q 646 878 646 761 l 646 882 l 143 882 l 143 967 l 749 967 m 57 290 q 483 298 286 290 q 856 331 681 306 l 863 253 q 488 211 682 221 q 72 201 293 201 l 57 290 m 932 1114 l 1036 1114 l 1036 -101 l 932 -101 l 932 1114 z "},"긕":{"ha":1214,"x_min":0,"x_max":0,"o":""},"긖":{"ha":1214,"x_min":0,"x_max":0,"o":""},"긗":{"ha":1214,"x_min":0,"x_max":0,"o":""},"긘":{"ha":1214,"x_min":0,"x_max":0,"o":""},"긙":{"ha":1214,"x_min":0,"x_max":0,"o":""},"긚":{"ha":1214,"x_min":0,"x_max":0,"o":""},"긛":{"ha":1214,"x_min":0,"x_max":0,"o":""},"긜":{"ha":1214,"x_min":47,"x_max":1089,"o":"m 1040 1114 l 1040 483 l 938 483 l 938 1114 l 1040 1114 m 47 649 q 592 664 379 649 q 621 965 618 813 l 167 965 l 167 1050 l 722 1050 l 722 1007 q 696 672 722 826 q 844 690 796 683 l 851 614 q 478 573 672 583 q 63 561 285 563 l 47 649 m 243 424 l 1040 424 l 1040 136 l 349 136 l 349 -4 l 1089 -4 l 1089 -87 l 246 -87 l 246 213 l 938 213 l 938 342 l 243 342 l 243 424 z "},"긝":{"ha":1214,"x_min":0,"x_max":0,"o":""},"긞":{"ha":1214,"x_min":0,"x_max":0,"o":""},"긟":{"ha":1214,"x_min":0,"x_max":0,"o":""},"긠":{"ha":1214,"x_min":0,"x_max":0,"o":""},"긡":{"ha":1214,"x_min":0,"x_max":0,"o":""},"긢":{"ha":1214,"x_min":0,"x_max":0,"o":""},"긣":{"ha":1214,"x_min":0,"x_max":0,"o":""},"긤":{"ha":1214,"x_min":0,"x_max":0,"o":""},"긥":{"ha":1214,"x_min":0,"x_max":0,"o":""},"긦":{"ha":1214,"x_min":0,"x_max":0,"o":""},"긧":{"ha":1214,"x_min":0,"x_max":0,"o":""},"긨":{"ha":1214,"x_min":0,"x_max":0,"o":""},"긩":{"ha":1214,"x_min":0,"x_max":0,"o":""},"긪":{"ha":1214,"x_min":0,"x_max":0,"o":""},"긫":{"ha":1214,"x_min":0,"x_max":0,"o":""},"긬":{"ha":1214,"x_min":0,"x_max":0,"o":""},"긭":{"ha":1214,"x_min":0,"x_max":0,"o":""},"긮":{"ha":1214,"x_min":0,"x_max":0,"o":""},"긯":{"ha":1214,"x_min":0,"x_max":0,"o":""},"기":{"ha":1214,"x_min":71,"x_max":1050,"o":"m 1050 1114 l 1050 -101 l 946 -101 l 946 1114 l 1050 1114 m 71 211 q 441 501 313 326 q 586 897 569 675 l 125 897 l 125 983 l 692 983 q 555 490 692 708 q 126 128 418 271 l 71 211 z "},"긱":{"ha":1214,"x_min":69,"x_max":1049,"o":"m 690 1035 q 537 646 690 807 q 111 411 383 485 l 69 493 q 428 672 294 553 q 578 949 563 790 l 133 949 l 133 1035 l 690 1035 m 240 342 l 1049 342 l 1049 -104 l 944 -104 l 944 257 l 240 257 l 240 342 m 944 1114 l 1049 1114 l 1049 399 l 944 399 l 944 1114 z "},"긲":{"ha":1214,"x_min":0,"x_max":0,"o":""},"긳":{"ha":1214,"x_min":0,"x_max":0,"o":""},"긴":{"ha":1214,"x_min":75,"x_max":1079,"o":"m 1049 1114 l 1049 231 l 944 231 l 944 1114 l 1049 1114 m 75 447 q 433 644 299 517 q 585 935 568 771 l 139 935 l 139 1022 l 697 1022 q 542 619 697 790 q 117 363 388 447 l 75 447 m 265 301 l 368 301 l 368 13 l 1079 13 l 1079 -74 l 265 -74 l 265 301 z "},"긵":{"ha":1214,"x_min":0,"x_max":0,"o":""},"긶":{"ha":1214,"x_min":0,"x_max":0,"o":""},"긷":{"ha":1214,"x_min":71,"x_max":1076,"o":"m 685 1035 q 534 648 685 808 q 110 414 383 488 l 71 496 q 427 674 296 557 q 574 949 558 792 l 131 949 l 131 1035 l 685 1035 m 272 356 l 1056 356 l 1056 271 l 376 271 l 376 0 l 1076 0 l 1076 -85 l 272 -85 l 272 356 m 949 1114 l 1053 1114 l 1053 419 l 949 419 l 949 1114 z "},"길":{"ha":1214,"x_min":76,"x_max":1092,"o":"m 1050 1114 l 1050 493 l 944 493 l 944 1114 l 1050 1114 m 76 553 q 433 711 304 604 q 575 968 561 818 l 136 968 l 136 1054 l 689 1054 q 538 680 689 828 q 114 468 388 532 l 76 553 m 267 433 l 1050 433 l 1050 142 l 372 142 l 372 -7 l 1092 -7 l 1092 -89 l 271 -89 l 271 221 l 946 221 l 946 350 l 267 350 l 267 433 z "},"긹":{"ha":1214,"x_min":0,"x_max":0,"o":""},"긺":{"ha":1214,"x_min":75,"x_max":1049,"o":"m 1049 1114 l 1049 469 l 944 469 l 944 1114 l 1049 1114 m 75 547 q 431 707 301 599 q 575 965 561 815 l 133 965 l 133 1049 l 689 1049 q 538 675 689 825 q 114 463 386 525 l 75 547 m 208 408 l 597 408 l 597 133 l 310 133 l 310 -6 q 485 -1 418 -6 q 622 18 551 3 l 629 -64 q 479 -82 551 -78 q 275 -86 407 -86 l 211 -86 l 211 208 l 497 208 l 497 328 l 208 328 l 208 408 m 668 408 l 1049 408 l 1049 -86 l 668 -86 l 668 408 m 958 -7 l 958 329 l 760 329 l 760 -7 l 958 -7 z "},"긻":{"ha":1214,"x_min":0,"x_max":0,"o":""},"긼":{"ha":1214,"x_min":0,"x_max":0,"o":""},"긽":{"ha":1214,"x_min":0,"x_max":0,"o":""},"긾":{"ha":1214,"x_min":0,"x_max":0,"o":""},"긿":{"ha":1214,"x_min":0,"x_max":0,"o":""},"김":{"ha":1214,"x_min":69,"x_max":1049,"o":"m 689 1035 q 535 648 689 808 q 110 414 382 488 l 69 497 q 428 675 294 557 q 579 950 563 793 l 132 950 l 132 1035 l 689 1035 m 265 368 l 1049 368 l 1049 -83 l 265 -83 l 265 368 m 947 1 l 947 283 l 368 283 l 368 1 l 947 1 m 944 1114 l 1049 1114 l 1049 428 l 944 428 l 944 1114 z "},"깁":{"ha":1214,"x_min":74,"x_max":1049,"o":"m 1049 1114 l 1049 453 l 944 453 l 944 1114 l 1049 1114 m 74 528 q 435 692 307 582 q 578 957 564 803 l 133 957 l 133 1042 l 690 1042 q 541 663 690 815 q 111 444 392 511 l 74 528 m 267 400 l 369 400 l 369 244 l 946 244 l 946 400 l 1049 400 l 1049 -85 l 267 -85 l 267 400 m 946 0 l 946 161 l 369 161 l 369 0 l 946 0 z "},"깂":{"ha":1214,"x_min":0,"x_max":0,"o":""},"깃":{"ha":1214,"x_min":78,"x_max":1118,"o":"m 1047 1114 l 1047 296 l 944 296 l 944 1114 l 1047 1114 m 78 453 q 435 644 301 519 q 583 933 568 769 l 138 933 l 138 1018 l 694 1018 q 542 619 694 788 q 118 369 389 451 l 78 453 m 196 -15 q 397 53 304 4 q 547 174 490 101 q 604 333 604 247 l 604 382 l 713 382 l 713 333 q 769 175 713 247 q 917 53 825 103 q 1118 -15 1010 4 l 1075 -97 q 822 3 935 -69 q 658 179 710 75 q 492 3 606 75 q 236 -97 378 -69 l 196 -15 z "},"깄":{"ha":1214,"x_min":71,"x_max":1158,"o":"m 690 1035 q 537 648 690 808 q 111 414 383 488 l 71 497 q 430 675 296 557 q 581 950 564 793 l 133 950 l 133 1035 l 690 1035 m 115 -10 q 245 68 189 18 q 332 178 301 118 q 363 297 363 239 l 363 389 l 461 389 l 461 297 q 506 133 461 211 q 635 6 551 54 q 765 140 718 57 q 811 297 811 222 l 811 389 l 913 389 l 913 297 q 979 115 913 200 q 1158 -10 1046 31 l 1106 -86 q 955 6 1018 -54 q 861 146 892 67 q 774 2 831 67 q 636 -97 717 -62 q 494 -1 551 -64 q 410 143 438 61 q 315 6 378 67 q 168 -86 253 -54 l 115 -10 m 946 1115 l 1050 1115 l 1050 421 l 946 421 l 946 1115 z "},"깅":{"ha":1214,"x_min":68,"x_max":1053,"o":"m 1046 1114 l 1046 379 l 942 379 l 942 1114 l 1046 1114 m 68 464 q 425 653 289 529 q 578 938 561 776 l 133 938 l 133 1024 l 689 1024 q 533 628 689 796 q 111 383 376 461 l 68 464 m 239 136 q 348 308 239 246 q 646 369 457 369 q 944 308 835 369 q 1053 136 1053 246 q 944 -37 1053 25 q 646 -99 836 -99 q 348 -37 457 -99 q 239 136 239 25 m 343 136 q 424 26 343 67 q 646 -15 506 -15 q 867 26 786 -15 q 949 136 949 67 q 868 247 949 207 q 646 286 788 286 q 424 247 504 286 q 343 136 343 207 z "},"깆":{"ha":1214,"x_min":74,"x_max":1113,"o":"m 693 1033 q 540 649 693 807 q 113 421 386 492 l 74 504 q 433 678 300 563 q 581 949 565 794 l 133 949 l 133 1033 l 693 1033 m 224 -18 q 416 39 326 -3 q 560 141 506 81 q 614 269 614 201 l 614 272 l 271 272 l 271 357 l 1064 357 l 1064 272 l 718 272 l 718 269 q 772 141 718 201 q 917 39 826 81 q 1113 -18 1008 -3 l 1075 -97 q 828 -14 939 -76 q 667 138 718 49 q 506 -13 615 49 q 260 -97 396 -75 l 224 -18 m 943 1114 l 1047 1114 l 1047 429 l 943 429 l 943 1114 z "},"깇":{"ha":1214,"x_min":0,"x_max":0,"o":""},"깈":{"ha":1214,"x_min":0,"x_max":0,"o":""},"깉":{"ha":1214,"x_min":0,"x_max":0,"o":""},"깊":{"ha":1214,"x_min":78,"x_max":1082,"o":"m 700 1031 q 545 650 700 806 q 118 426 390 494 l 78 510 q 440 679 306 565 q 588 946 574 793 l 138 946 l 138 1031 l 700 1031 m 249 3 l 429 3 l 429 294 l 260 294 l 260 378 l 1068 378 l 1068 294 l 900 294 l 900 3 l 1082 3 l 1082 -82 l 249 -82 l 249 3 m 797 3 l 797 294 l 531 294 l 531 3 l 797 3 m 944 1114 l 1049 1114 l 1049 449 l 944 449 l 944 1114 z "},"깋":{"ha":1214,"x_min":0,"x_max":0,"o":""},"까":{"ha":1214,"x_min":53,"x_max":1193,"o":"m 1008 1114 l 1008 611 l 1193 611 l 1193 524 l 1008 524 l 1008 -101 l 906 -101 l 906 1114 l 1008 1114 m 53 233 q 324 896 303 490 l 90 896 l 90 982 l 421 982 q 356 542 421 746 q 136 174 290 339 l 53 233 m 400 151 q 654 896 639 425 l 460 896 l 460 982 l 753 982 q 696 499 753 725 q 485 93 639 274 l 400 151 z "},"깍":{"ha":1214,"x_min":65,"x_max":1179,"o":"m 997 1114 l 997 788 l 1179 788 l 1179 700 l 997 700 l 997 392 l 893 392 l 893 1114 l 997 1114 m 65 542 q 246 715 186 619 q 317 942 306 810 l 94 942 l 94 1026 l 417 1026 q 350 711 417 843 q 132 475 283 579 l 65 542 m 211 336 l 997 336 l 997 -104 l 893 -104 l 893 250 l 211 250 l 211 336 m 408 472 q 588 681 529 565 q 656 942 646 796 l 465 942 l 465 1026 l 754 1026 q 692 681 754 832 q 483 410 629 529 l 408 472 z "},"깎":{"ha":1214,"x_min":65,"x_max":1179,"o":"m 997 1114 l 997 804 l 1179 804 l 1179 717 l 997 717 l 997 414 l 893 414 l 893 1114 l 997 1114 m 65 551 q 245 724 185 631 q 317 947 306 817 l 94 947 l 94 1032 l 417 1032 q 350 719 417 850 q 133 486 283 589 l 65 551 m 171 350 l 561 350 l 561 -101 l 457 -101 l 457 264 l 171 264 l 171 350 m 408 488 q 588 691 529 579 q 656 947 646 803 l 465 947 l 465 1032 l 754 1032 q 692 692 754 840 q 485 426 629 543 l 408 488 m 619 350 l 997 350 l 997 -101 l 894 -101 l 894 264 l 619 264 l 619 350 z "},"깏":{"ha":1214,"x_min":0,"x_max":0,"o":""},"깐":{"ha":1214,"x_min":63,"x_max":1179,"o":"m 415 1010 q 349 673 415 819 q 132 411 282 526 l 63 476 q 244 674 183 565 q 317 924 306 782 l 94 924 l 94 1010 l 415 1010 m 238 296 l 342 296 l 342 13 l 1046 13 l 1046 -74 l 238 -74 l 238 296 m 404 419 q 587 643 528 518 q 656 924 646 768 l 463 924 l 463 1010 l 754 1010 q 691 643 754 806 q 475 353 628 481 l 404 419 m 893 1115 l 997 1115 l 997 726 l 1179 726 l 1179 639 l 997 639 l 997 224 l 893 224 l 893 1115 z "},"깑":{"ha":1214,"x_min":0,"x_max":0,"o":""},"깒":{"ha":1214,"x_min":0,"x_max":0,"o":""},"깓":{"ha":1214,"x_min":0,"x_max":0,"o":""},"깔":{"ha":1214,"x_min":64,"x_max":1179,"o":"m 997 1114 l 997 846 l 1179 846 l 1179 758 l 997 758 l 997 493 l 894 493 l 894 1114 l 997 1114 m 64 608 q 238 763 178 682 q 311 961 299 843 l 90 961 l 90 1046 l 411 1046 q 343 757 411 875 q 133 542 275 639 l 64 608 m 226 435 l 997 435 l 997 140 l 332 140 l 332 -1 l 1046 -1 l 1046 -85 l 231 -85 l 231 221 l 896 221 l 896 353 l 226 353 l 226 435 m 408 549 q 585 730 526 632 q 653 961 643 828 l 460 961 l 460 1046 l 753 1046 q 690 728 753 864 q 483 486 626 592 l 408 549 z "},"깕":{"ha":1214,"x_min":0,"x_max":0,"o":""},"깖":{"ha":1214,"x_min":65,"x_max":1179,"o":"m 997 1114 l 997 840 l 1179 840 l 1179 754 l 997 754 l 997 471 l 893 471 l 893 1114 l 997 1114 m 65 601 q 238 756 178 674 q 311 957 299 839 l 90 957 l 90 1042 l 413 1042 q 344 753 413 872 q 135 536 276 635 l 65 601 m 161 404 l 544 404 l 544 129 l 265 129 l 265 -8 q 436 -4 371 -8 q 571 15 501 0 l 581 -65 q 435 -84 504 -81 q 228 -87 365 -87 l 165 -87 l 165 206 l 443 206 l 443 324 l 161 324 l 161 404 m 408 532 q 585 719 526 617 q 654 957 643 821 l 460 957 l 460 1042 l 753 1042 q 690 719 753 857 q 483 471 628 581 l 408 532 m 619 404 l 997 404 l 997 -87 l 619 -87 l 619 404 m 906 -10 l 906 325 l 711 325 l 711 -10 l 906 -10 z "},"깗":{"ha":1214,"x_min":0,"x_max":0,"o":""},"깘":{"ha":1214,"x_min":0,"x_max":0,"o":""},"깙":{"ha":1214,"x_min":0,"x_max":0,"o":""},"깚":{"ha":1214,"x_min":0,"x_max":0,"o":""},"깛":{"ha":1214,"x_min":0,"x_max":0,"o":""},"깜":{"ha":1214,"x_min":65,"x_max":1179,"o":"m 417 1032 q 350 717 417 850 q 133 479 283 583 l 65 546 q 245 720 185 625 q 317 947 306 815 l 94 947 l 94 1032 l 417 1032 m 238 351 l 997 351 l 997 -85 l 238 -85 l 238 351 m 894 0 l 894 268 l 339 268 l 339 0 l 894 0 m 407 479 q 585 687 526 572 q 654 947 644 801 l 463 947 l 463 1032 l 753 1032 q 691 687 753 838 q 483 418 629 536 l 407 479 m 893 1114 l 997 1114 l 997 813 l 1179 813 l 1179 726 l 997 726 l 997 413 l 893 413 l 893 1114 z "},"깝":{"ha":1214,"x_min":67,"x_max":1179,"o":"m 417 1038 q 350 728 417 857 q 135 496 283 599 l 67 563 q 244 731 185 639 q 317 951 304 822 l 94 951 l 94 1038 l 417 1038 m 235 393 l 338 393 l 338 240 l 894 240 l 894 393 l 997 393 l 997 -86 l 235 -86 l 235 393 m 894 -1 l 894 157 l 338 157 l 338 -1 l 894 -1 m 410 497 q 585 699 528 589 q 654 951 643 808 l 463 951 l 463 1038 l 753 1038 q 691 700 753 847 q 486 436 629 553 l 410 497 m 893 1114 l 997 1114 l 997 835 l 1179 835 l 1179 747 l 997 747 l 997 454 l 893 454 l 893 1114 z "},"깞":{"ha":1214,"x_min":0,"x_max":0,"o":""},"깟":{"ha":1214,"x_min":67,"x_max":1179,"o":"m 414 1018 q 349 701 414 835 q 136 463 285 568 l 67 528 q 244 703 185 607 q 315 932 304 800 l 93 932 l 93 1018 l 414 1018 m 174 -12 q 375 53 282 6 q 524 172 468 101 q 581 328 581 243 l 581 363 l 683 363 l 683 328 q 740 172 683 243 q 891 53 797 101 q 1093 -12 985 6 l 1050 -94 q 799 1 911 -68 q 633 172 686 71 q 467 1 581 71 q 214 -94 353 -68 l 174 -12 m 407 458 q 585 669 526 553 q 654 932 644 785 l 463 932 l 463 1018 l 753 1018 q 691 669 753 822 q 483 396 629 517 l 407 458 m 893 1114 l 997 1114 l 997 772 l 1179 772 l 1179 686 l 997 686 l 997 303 l 893 303 l 893 1114 z "},"깠":{"ha":1214,"x_min":68,"x_max":1179,"o":"m 419 1031 q 353 716 419 849 q 136 479 286 583 l 68 546 q 249 719 189 625 q 319 946 308 814 l 97 946 l 97 1031 l 419 1031 m 106 -18 q 284 112 217 25 q 351 290 351 199 l 351 367 l 451 367 l 451 290 q 497 125 451 204 q 625 -3 542 46 q 755 131 708 49 q 801 290 801 214 l 801 367 l 903 367 l 903 290 q 968 107 903 192 q 1147 -18 1033 22 l 1094 -94 q 944 -2 1007 -62 q 850 138 882 58 q 765 -6 821 58 q 626 -106 708 -71 q 485 -10 542 -72 q 400 133 428 53 q 305 -3 367 57 q 158 -94 243 -62 l 106 -18 m 410 481 q 588 686 531 572 q 656 946 646 800 l 465 946 l 465 1031 l 756 1031 q 694 688 756 838 q 486 418 632 538 l 410 481 m 893 1114 l 997 1114 l 997 813 l 1179 813 l 1179 726 l 997 726 l 997 422 l 893 422 l 893 1114 z "},"깡":{"ha":1214,"x_min":65,"x_max":1179,"o":"m 417 1032 q 350 717 417 850 q 133 479 283 583 l 65 546 q 245 720 185 625 q 317 947 306 815 l 94 947 l 94 1032 l 417 1032 m 214 128 q 320 294 214 235 q 613 354 426 354 q 903 294 797 354 q 1010 128 1010 235 q 903 -39 1010 21 q 613 -99 797 -99 q 320 -39 426 -99 q 214 128 214 21 m 315 128 q 395 23 315 61 q 613 -15 475 -15 q 828 23 749 -15 q 907 128 907 61 q 828 232 907 194 q 613 269 750 269 q 395 232 475 269 q 315 128 315 194 m 408 485 q 585 690 526 578 q 654 947 643 803 l 463 947 l 463 1032 l 753 1032 q 691 691 753 840 q 485 424 629 542 l 408 485 m 893 1114 l 997 1114 l 997 808 l 1179 808 l 1179 721 l 997 721 l 997 396 l 893 396 l 893 1114 z "},"깢":{"ha":1214,"x_min":0,"x_max":0,"o":""},"깣":{"ha":1214,"x_min":0,"x_max":0,"o":""},"깤":{"ha":1214,"x_min":0,"x_max":0,"o":""},"깥":{"ha":1214,"x_min":64,"x_max":1179,"o":"m 411 1039 q 343 751 411 868 q 133 535 275 633 l 64 601 q 238 755 176 674 q 311 954 299 836 l 90 954 l 90 1039 l 411 1039 m 239 392 l 1004 392 l 1004 314 l 342 314 l 342 196 l 992 196 l 992 118 l 342 118 l 342 -7 l 1033 -7 l 1033 -85 l 239 -85 l 239 392 m 408 542 q 584 724 526 625 q 653 954 642 822 l 460 954 l 460 1039 l 753 1039 q 690 722 753 857 q 483 481 626 586 l 408 542 m 893 1114 l 997 1114 l 997 831 l 1179 831 l 1179 743 l 997 743 l 997 458 l 893 458 l 893 1114 z "},"깦":{"ha":1214,"x_min":0,"x_max":0,"o":""},"깧":{"ha":1214,"x_min":0,"x_max":0,"o":""},"깨":{"ha":1214,"x_min":60,"x_max":1099,"o":"m 1099 1115 l 1099 -100 l 999 -100 l 999 535 l 846 535 l 846 -40 l 747 -40 l 747 1088 l 846 1088 l 846 619 l 999 619 l 999 1115 l 1099 1115 m 60 253 q 213 540 165 382 q 267 881 260 699 l 85 881 l 85 965 l 356 965 q 310 552 356 744 q 142 201 264 360 l 60 253 m 344 164 q 502 490 460 308 q 549 881 544 671 l 396 881 l 396 965 l 640 965 q 599 503 640 718 q 429 115 558 289 l 344 164 z "},"깩":{"ha":1214,"x_min":58,"x_max":1085,"o":"m 1085 1114 l 1085 397 l 986 397 l 986 719 l 835 719 l 835 406 l 736 406 l 736 1092 l 835 1092 l 835 806 l 986 806 l 986 1114 l 1085 1114 m 58 536 q 207 716 160 621 q 263 943 254 811 l 86 943 l 86 1028 l 360 1028 q 310 717 360 847 q 136 475 261 586 l 58 536 m 257 339 l 1085 339 l 1085 -101 l 982 -101 l 982 253 l 257 253 l 257 339 m 342 458 q 493 676 446 558 q 549 943 540 793 l 393 943 l 393 1028 l 646 1028 q 598 681 646 832 q 426 403 550 529 l 342 458 z "},"깪":{"ha":1214,"x_min":0,"x_max":0,"o":""},"깫":{"ha":1214,"x_min":0,"x_max":0,"o":""},"깬":{"ha":1214,"x_min":61,"x_max":1124,"o":"m 1086 1114 l 1086 211 l 988 211 l 988 660 l 835 660 l 835 251 l 736 251 l 736 1092 l 835 1092 l 835 746 l 988 746 l 988 1114 l 1086 1114 m 61 504 q 210 693 163 593 q 267 928 258 793 l 85 928 l 85 1014 l 363 1014 q 314 694 363 828 q 139 444 265 560 l 61 504 m 278 307 l 382 307 l 382 13 l 1124 13 l 1124 -74 l 278 -74 l 278 307 m 347 431 q 496 653 450 532 q 550 928 542 774 l 394 928 l 394 1014 l 646 1014 q 599 660 646 815 q 431 376 553 506 l 347 431 z "},"깭":{"ha":1214,"x_min":0,"x_max":0,"o":""},"깮":{"ha":1214,"x_min":0,"x_max":0,"o":""},"깯":{"ha":1214,"x_min":64,"x_max":1108,"o":"m 1096 343 l 1096 258 l 360 258 l 360 0 l 1108 0 l 1108 -85 l 257 -85 l 257 343 l 1096 343 m 64 551 q 210 727 164 635 q 264 950 256 819 l 83 950 l 83 1035 l 361 1035 q 313 727 361 854 q 140 490 264 600 l 64 551 m 349 475 q 495 688 450 574 q 549 950 540 801 l 394 950 l 394 1035 l 646 1035 q 600 692 646 840 q 433 419 554 543 l 349 475 m 736 1092 l 835 1092 l 835 804 l 988 804 l 988 1114 l 1086 1114 l 1086 417 l 988 417 l 988 718 l 835 718 l 835 424 l 736 424 l 736 1092 z "},"깰":{"ha":1214,"x_min":64,"x_max":1132,"o":"m 1086 1114 l 1086 483 l 988 483 l 988 749 l 836 749 l 836 492 l 736 492 l 736 1092 l 836 1092 l 836 835 l 988 835 l 988 1114 l 1086 1114 m 64 596 q 209 753 163 671 q 265 956 256 835 l 86 956 l 86 1042 l 361 1042 q 312 753 361 869 q 139 535 263 636 l 64 596 m 286 425 l 1086 425 l 1086 138 l 394 138 l 394 -1 l 1132 -1 l 1132 -85 l 289 -85 l 289 215 l 983 215 l 983 342 l 286 342 l 286 425 m 346 526 q 495 717 449 615 q 549 956 542 819 l 393 956 l 393 1042 l 647 1042 q 599 720 647 857 q 425 468 550 583 l 346 526 z "},"깱":{"ha":1214,"x_min":0,"x_max":0,"o":""},"깲":{"ha":1214,"x_min":0,"x_max":0,"o":""},"깳":{"ha":1214,"x_min":0,"x_max":0,"o":""},"깴":{"ha":1214,"x_min":0,"x_max":0,"o":""},"깵":{"ha":1214,"x_min":0,"x_max":0,"o":""},"깶":{"ha":1214,"x_min":0,"x_max":0,"o":""},"깷":{"ha":1214,"x_min":0,"x_max":0,"o":""},"깸":{"ha":1214,"x_min":64,"x_max":1085,"o":"m 1085 1114 l 1085 417 l 986 417 l 986 718 l 835 718 l 835 424 l 736 424 l 736 1093 l 835 1093 l 835 804 l 986 804 l 986 1114 l 1085 1114 m 64 551 q 210 727 164 635 q 264 950 256 819 l 83 950 l 83 1035 l 361 1035 q 313 727 361 854 q 140 490 264 600 l 64 551 m 286 358 l 1085 358 l 1085 -83 l 286 -83 l 286 358 m 349 475 q 495 688 450 574 q 549 950 540 801 l 393 950 l 393 1035 l 644 1035 q 599 692 644 840 q 433 419 553 543 l 349 475 m 985 1 l 985 275 l 388 275 l 388 1 l 985 1 z "},"깹":{"ha":1214,"x_min":65,"x_max":1085,"o":"m 1085 1114 l 1085 451 l 986 451 l 986 732 l 836 732 l 836 460 l 738 460 l 738 1090 l 836 1090 l 836 817 l 986 817 l 986 1114 l 1085 1114 m 65 567 q 213 741 165 650 q 268 960 260 832 l 86 960 l 86 1044 l 365 1044 q 315 740 365 865 q 140 507 265 615 l 65 567 m 289 396 l 392 396 l 392 249 l 983 249 l 983 396 l 1085 396 l 1085 -86 l 289 -86 l 289 396 m 356 497 q 498 704 454 594 q 550 960 542 814 l 396 960 l 396 1044 l 646 1044 q 603 709 646 851 q 440 444 560 567 l 356 497 m 983 -1 l 983 165 l 392 165 l 392 -1 l 983 -1 z "},"깺":{"ha":1214,"x_min":0,"x_max":0,"o":""},"깻":{"ha":1214,"x_min":67,"x_max":1153,"o":"m 1086 1114 l 1086 322 l 988 322 l 988 713 l 838 713 l 838 425 l 738 425 l 738 1090 l 838 1090 l 838 800 l 988 800 l 988 1114 l 1086 1114 m 67 515 q 211 703 165 603 q 265 939 257 803 l 85 939 l 85 1024 l 361 1024 q 314 705 361 839 q 144 457 267 571 l 67 515 m 221 -15 q 422 51 326 3 q 576 169 517 100 q 635 318 635 239 l 635 374 l 739 374 l 739 318 q 798 169 739 239 q 952 51 857 99 q 1153 -15 1047 3 l 1113 -97 q 856 1 972 -71 q 686 174 740 72 q 517 1 633 72 q 261 -97 401 -71 l 221 -15 m 347 435 q 497 660 451 539 q 550 939 542 782 l 394 939 l 394 1024 l 646 1024 q 599 669 646 824 q 431 382 553 514 l 347 435 z "},"깼":{"ha":1214,"x_min":67,"x_max":1178,"o":"m 1086 1113 l 1086 410 l 988 410 l 988 718 l 838 718 l 838 421 l 739 421 l 739 1090 l 838 1090 l 838 804 l 988 804 l 988 1113 l 1086 1113 m 67 546 q 212 722 165 629 q 267 943 258 815 l 86 943 l 86 1028 l 364 1028 q 315 722 364 849 q 143 488 267 596 l 67 546 m 138 -11 q 267 65 211 15 q 353 176 322 115 q 383 294 383 236 l 383 361 l 485 361 l 485 294 q 528 130 485 208 q 656 3 572 51 q 784 137 738 54 q 831 294 831 219 l 831 361 l 932 361 l 932 294 q 999 113 932 199 q 1178 -11 1065 26 l 1128 -87 q 976 6 1039 -56 q 881 146 913 67 q 795 1 851 65 q 657 -99 739 -64 q 517 -3 574 -65 q 432 139 460 58 q 335 3 397 63 q 189 -89 274 -57 l 138 -11 m 353 478 q 497 686 453 575 q 550 943 542 797 l 394 943 l 394 1028 l 646 1028 q 601 691 646 836 q 435 422 556 546 l 353 478 z "},"깽":{"ha":1214,"x_min":47,"x_max":1083,"o":"m 1068 1089 l 1068 347 l 969 347 l 969 676 l 819 676 l 819 390 l 721 390 l 721 1067 l 819 1067 l 819 763 l 969 763 l 969 1089 l 1068 1089 m 47 506 q 193 682 147 589 q 247 906 239 775 l 67 906 l 67 992 l 344 992 q 297 684 344 811 q 125 447 249 557 l 47 506 m 256 101 q 367 265 256 206 q 669 324 478 324 q 972 265 861 324 q 1083 101 1083 206 q 972 -64 1083 -4 q 669 -124 861 -124 q 366 -64 476 -124 q 256 101 256 -4 m 329 435 q 477 645 431 532 q 532 906 524 758 l 376 906 l 376 992 l 628 992 q 581 651 628 799 q 411 379 533 504 l 329 435 m 360 101 q 442 -3 360 35 q 669 -40 525 -40 q 895 -3 813 -40 q 978 101 978 35 q 895 206 978 168 q 669 243 813 243 q 443 206 526 243 q 360 101 360 168 z "},"깾":{"ha":1214,"x_min":0,"x_max":0,"o":""},"깿":{"ha":1214,"x_min":0,"x_max":0,"o":""},"꺀":{"ha":1214,"x_min":0,"x_max":0,"o":""},"꺁":{"ha":1214,"x_min":0,"x_max":0,"o":""},"꺂":{"ha":1214,"x_min":0,"x_max":0,"o":""},"꺃":{"ha":1214,"x_min":0,"x_max":0,"o":""},"꺄":{"ha":1214,"x_min":53,"x_max":1193,"o":"m 1008 1114 l 1008 786 l 1193 786 l 1193 699 l 1008 699 l 1008 422 l 1193 422 l 1193 333 l 1008 333 l 1008 -101 l 906 -101 l 906 1114 l 1008 1114 m 53 233 q 324 896 303 490 l 90 896 l 90 982 l 421 982 q 356 542 421 746 q 136 174 290 339 l 53 233 m 400 151 q 654 896 639 425 l 460 896 l 460 982 l 753 982 q 696 499 753 725 q 485 93 639 274 l 400 151 z "},"꺅":{"ha":1214,"x_min":65,"x_max":1176,"o":"m 997 1114 l 997 928 l 1176 928 l 1176 840 l 997 840 l 997 674 l 1176 674 l 1176 586 l 997 586 l 997 392 l 893 392 l 893 1114 l 997 1114 m 65 542 q 246 715 186 619 q 317 942 306 810 l 94 942 l 94 1026 l 417 1026 q 350 711 417 843 q 132 475 283 579 l 65 542 m 211 336 l 997 336 l 997 -104 l 893 -104 l 893 250 l 211 250 l 211 336 m 408 472 q 588 681 529 565 q 656 942 646 796 l 465 942 l 465 1026 l 754 1026 q 692 681 754 832 q 483 410 629 529 l 408 472 z "},"꺆":{"ha":1214,"x_min":50,"x_max":1172,"o":"m 401 1031 q 337 716 401 849 q 126 478 272 583 l 50 546 q 226 719 167 626 q 297 943 285 813 l 78 943 l 78 1031 l 401 1031 m 154 357 l 556 357 l 556 -106 l 451 -106 l 451 271 l 154 271 l 154 357 m 400 475 q 570 684 514 571 q 638 943 626 797 l 447 943 l 447 1031 l 742 1031 q 682 688 742 839 q 485 414 622 536 l 400 475 m 615 357 l 1004 357 l 1004 -106 l 899 -106 l 899 271 l 615 271 l 615 357 m 901 1114 l 1004 1114 l 1004 928 l 1172 928 l 1172 839 l 1004 839 l 1004 660 l 1172 660 l 1172 571 l 1004 571 l 1004 400 l 901 400 l 901 1114 z "},"꺇":{"ha":1214,"x_min":0,"x_max":0,"o":""},"꺈":{"ha":1214,"x_min":0,"x_max":0,"o":""},"꺉":{"ha":1214,"x_min":0,"x_max":0,"o":""},"꺊":{"ha":1214,"x_min":0,"x_max":0,"o":""},"꺋":{"ha":1214,"x_min":0,"x_max":0,"o":""},"꺌":{"ha":1214,"x_min":64,"x_max":1175,"o":"m 997 1114 l 997 963 l 1175 963 l 1175 878 l 997 878 l 997 739 l 1175 739 l 1175 654 l 997 654 l 997 493 l 894 493 l 894 1114 l 997 1114 m 64 608 q 238 763 178 682 q 311 961 299 843 l 90 961 l 90 1046 l 411 1046 q 343 757 411 875 q 133 542 275 639 l 64 608 m 226 435 l 997 435 l 997 140 l 332 140 l 332 -1 l 1046 -1 l 1046 -85 l 231 -85 l 231 221 l 896 221 l 896 353 l 226 353 l 226 435 m 408 549 q 585 730 526 632 q 653 961 643 828 l 460 961 l 460 1046 l 753 1046 q 690 728 753 864 q 483 486 626 592 l 408 549 z "},"꺍":{"ha":1214,"x_min":57,"x_max":1172,"o":"m 1004 413 l 1004 -100 l 897 -100 l 897 326 l 622 326 l 622 413 l 1004 413 m 57 613 q 227 763 167 683 q 303 957 288 842 l 83 957 l 83 1044 l 408 1044 q 339 760 408 876 q 131 546 269 643 l 57 613 m 164 413 l 568 413 l 568 128 l 271 128 l 271 -11 q 481 -6 401 -11 q 647 15 561 -1 l 657 -69 q 471 -90 561 -85 q 239 -96 381 -96 l 167 -96 l 167 206 l 465 206 l 465 328 l 164 328 l 164 413 m 414 550 q 579 729 524 633 q 647 957 635 825 l 457 957 l 457 1044 l 751 1044 q 692 731 751 865 q 501 489 632 597 l 414 550 m 901 1114 l 1004 1114 l 1004 953 l 1172 953 l 1172 865 l 1004 865 l 1004 715 l 1172 715 l 1172 629 l 1004 629 l 1004 476 l 901 476 l 901 1114 z "},"꺎":{"ha":1214,"x_min":0,"x_max":0,"o":""},"꺏":{"ha":1214,"x_min":0,"x_max":0,"o":""},"꺐":{"ha":1214,"x_min":0,"x_max":0,"o":""},"꺑":{"ha":1214,"x_min":0,"x_max":0,"o":""},"꺒":{"ha":1214,"x_min":0,"x_max":0,"o":""},"꺓":{"ha":1214,"x_min":0,"x_max":0,"o":""},"꺔":{"ha":1214,"x_min":0,"x_max":0,"o":""},"꺕":{"ha":1214,"x_min":0,"x_max":0,"o":""},"꺖":{"ha":1214,"x_min":0,"x_max":0,"o":""},"꺗":{"ha":1214,"x_min":0,"x_max":0,"o":""},"꺘":{"ha":1214,"x_min":0,"x_max":0,"o":""},"꺙":{"ha":1214,"x_min":0,"x_max":0,"o":""},"꺚":{"ha":1214,"x_min":0,"x_max":0,"o":""},"꺛":{"ha":1214,"x_min":0,"x_max":0,"o":""},"꺜":{"ha":1214,"x_min":0,"x_max":0,"o":""},"꺝":{"ha":1214,"x_min":0,"x_max":0,"o":""},"꺞":{"ha":1214,"x_min":0,"x_max":0,"o":""},"꺟":{"ha":1214,"x_min":0,"x_max":0,"o":""},"꺠":{"ha":1214,"x_min":53,"x_max":1093,"o":"m 351 965 q 305 552 351 744 q 135 203 258 360 l 53 250 q 207 538 160 381 q 261 878 254 694 l 79 878 l 79 965 l 351 965 m 343 161 q 546 878 532 421 l 393 878 l 393 965 l 638 965 q 593 510 638 729 q 425 114 549 290 l 343 161 m 743 1086 l 840 1086 l 840 813 l 997 813 l 997 1114 l 1093 1114 l 1093 -107 l 997 -107 l 997 368 l 840 368 l 840 -39 l 743 -39 l 743 1086 m 997 458 l 997 724 l 840 724 l 840 458 l 997 458 z "},"꺡":{"ha":1214,"x_min":0,"x_max":0,"o":""},"꺢":{"ha":1214,"x_min":0,"x_max":0,"o":""},"꺣":{"ha":1214,"x_min":0,"x_max":0,"o":""},"꺤":{"ha":1214,"x_min":0,"x_max":0,"o":""},"꺥":{"ha":1214,"x_min":0,"x_max":0,"o":""},"꺦":{"ha":1214,"x_min":0,"x_max":0,"o":""},"꺧":{"ha":1214,"x_min":0,"x_max":0,"o":""},"꺨":{"ha":1214,"x_min":0,"x_max":0,"o":""},"꺩":{"ha":1214,"x_min":0,"x_max":0,"o":""},"꺪":{"ha":1214,"x_min":0,"x_max":0,"o":""},"꺫":{"ha":1214,"x_min":0,"x_max":0,"o":""},"꺬":{"ha":1214,"x_min":0,"x_max":0,"o":""},"꺭":{"ha":1214,"x_min":0,"x_max":0,"o":""},"꺮":{"ha":1214,"x_min":0,"x_max":0,"o":""},"꺯":{"ha":1214,"x_min":0,"x_max":0,"o":""},"꺰":{"ha":1214,"x_min":0,"x_max":0,"o":""},"꺱":{"ha":1214,"x_min":0,"x_max":0,"o":""},"꺲":{"ha":1214,"x_min":0,"x_max":0,"o":""},"꺳":{"ha":1214,"x_min":0,"x_max":0,"o":""},"꺴":{"ha":1214,"x_min":0,"x_max":0,"o":""},"꺵":{"ha":1214,"x_min":0,"x_max":0,"o":""},"꺶":{"ha":1214,"x_min":0,"x_max":0,"o":""},"꺷":{"ha":1214,"x_min":0,"x_max":0,"o":""},"꺸":{"ha":1214,"x_min":0,"x_max":0,"o":""},"꺹":{"ha":1214,"x_min":0,"x_max":0,"o":""},"꺺":{"ha":1214,"x_min":0,"x_max":0,"o":""},"꺻":{"ha":1214,"x_min":0,"x_max":0,"o":""},"꺼":{"ha":1214,"x_min":51,"x_max":1047,"o":"m 1047 1114 l 1047 -101 l 943 -101 l 943 550 l 703 550 q 479 93 636 278 l 394 151 q 650 896 635 426 l 456 896 l 456 982 l 747 982 q 721 636 747 796 l 943 636 l 943 1114 l 1047 1114 m 51 233 q 322 896 301 490 l 89 896 l 89 982 l 418 982 q 353 542 418 746 q 135 174 289 339 l 51 233 z "},"꺽":{"ha":1214,"x_min":60,"x_max":1049,"o":"m 1049 336 l 1049 -101 l 944 -101 l 944 250 l 238 250 l 238 336 l 1049 336 m 60 540 q 239 716 179 621 q 310 943 299 811 l 90 943 l 90 1028 l 410 1028 q 344 711 410 844 q 129 474 278 578 l 60 540 m 401 469 q 578 680 521 564 q 646 943 636 796 l 454 943 l 454 1028 l 746 1028 q 721 794 746 896 l 944 794 l 944 1114 l 1049 1114 l 1049 392 l 944 392 l 944 708 l 694 708 q 475 407 629 536 l 401 469 z "},"꺾":{"ha":1214,"x_min":60,"x_max":1049,"o":"m 1049 1114 l 1049 401 l 944 401 l 944 708 l 692 708 q 476 421 626 543 l 403 482 q 579 689 522 576 q 646 947 636 801 l 454 947 l 454 1032 l 746 1032 q 719 794 746 904 l 944 794 l 944 1114 l 1049 1114 m 60 547 q 239 721 179 626 q 310 947 299 815 l 90 947 l 90 1032 l 410 1032 q 344 718 410 850 q 129 482 278 586 l 60 547 m 203 347 l 599 347 l 599 -101 l 496 -101 l 496 261 l 203 261 l 203 347 m 660 347 l 1049 347 l 1049 -101 l 944 -101 l 944 261 l 660 261 l 660 347 z "},"꺿":{"ha":1214,"x_min":0,"x_max":0,"o":""},"껀":{"ha":1214,"x_min":69,"x_max":1079,"o":"m 1049 1111 l 1049 222 l 944 222 l 944 660 l 694 660 q 478 360 629 488 l 406 425 q 585 647 528 524 q 650 925 642 769 l 461 925 l 461 1013 l 750 1013 q 721 744 750 863 l 944 744 l 944 1111 l 1049 1111 m 69 488 q 247 681 189 575 q 315 925 304 786 l 96 925 l 96 1013 l 415 1013 q 351 679 415 822 q 139 421 288 536 l 69 488 m 268 290 l 371 290 l 371 13 l 1079 13 l 1079 -74 l 268 -74 l 268 290 z "},"껁":{"ha":1214,"x_min":0,"x_max":0,"o":""},"껂":{"ha":1214,"x_min":0,"x_max":0,"o":""},"껃":{"ha":1214,"x_min":0,"x_max":0,"o":""},"껄":{"ha":1214,"x_min":67,"x_max":1086,"o":"m 413 1050 q 344 763 413 881 q 136 550 276 646 l 67 615 q 239 768 179 689 q 311 964 299 847 l 96 964 l 96 1050 l 413 1050 m 263 429 l 1047 429 l 1047 138 l 367 138 l 367 -8 l 1086 -8 l 1086 -92 l 265 -92 l 265 217 l 944 217 l 944 346 l 263 346 l 263 429 m 408 550 q 581 732 524 633 q 649 964 638 831 l 456 964 l 456 1050 l 750 1050 q 722 824 750 922 l 944 824 l 944 1114 l 1047 1114 l 1047 489 l 944 489 l 944 739 l 692 739 q 482 488 626 596 l 408 550 z "},"껅":{"ha":1214,"x_min":0,"x_max":0,"o":""},"껆":{"ha":1214,"x_min":0,"x_max":0,"o":""},"껇":{"ha":1214,"x_min":0,"x_max":0,"o":""},"껈":{"ha":1214,"x_min":0,"x_max":0,"o":""},"껉":{"ha":1214,"x_min":0,"x_max":0,"o":""},"껊":{"ha":1214,"x_min":0,"x_max":0,"o":""},"껋":{"ha":1214,"x_min":0,"x_max":0,"o":""},"껌":{"ha":1214,"x_min":60,"x_max":1049,"o":"m 410 1031 q 344 717 410 850 q 129 481 278 585 l 60 547 q 239 722 179 628 q 310 946 299 815 l 90 946 l 90 1031 l 410 1031 m 260 367 l 1049 367 l 1049 -83 l 260 -83 l 260 367 m 946 1 l 946 282 l 361 282 l 361 1 l 946 1 m 404 481 q 579 687 522 574 q 646 946 636 800 l 456 946 l 456 1031 l 746 1031 q 719 797 746 904 l 944 797 l 944 1113 l 1049 1113 l 1049 425 l 944 425 l 944 711 l 693 711 q 479 419 628 544 l 404 481 z "},"껍":{"ha":1214,"x_min":64,"x_max":1049,"o":"m 1049 1114 l 1049 463 l 944 463 l 944 721 l 696 721 q 483 439 631 560 l 410 500 q 583 702 526 592 q 649 956 639 813 l 458 956 l 458 1040 l 749 1040 q 722 806 749 913 l 944 806 l 944 1114 l 1049 1114 m 64 565 q 242 734 182 642 q 313 956 301 826 l 96 956 l 96 1040 l 413 1040 q 347 731 413 860 q 133 499 281 601 l 64 565 m 267 400 l 369 400 l 369 246 l 946 246 l 946 400 l 1049 400 l 1049 -85 l 267 -85 l 267 400 m 946 0 l 946 163 l 369 163 l 369 0 l 946 0 z "},"껎":{"ha":1214,"x_min":0,"x_max":0,"o":""},"껏":{"ha":1214,"x_min":64,"x_max":1115,"o":"m 1049 1114 l 1049 281 l 944 281 l 944 676 l 690 676 q 482 397 625 517 l 407 460 q 583 669 526 554 q 650 933 640 785 l 460 933 l 460 1019 l 749 1019 q 718 761 749 872 l 944 761 l 944 1114 l 1049 1114 m 64 531 q 242 706 182 610 q 314 933 303 801 l 96 933 l 96 1019 l 414 1019 q 348 702 414 835 q 132 464 282 569 l 64 531 m 197 -15 q 399 53 306 4 q 550 176 493 103 q 607 336 607 250 l 607 386 l 710 386 l 710 336 q 766 178 710 251 q 915 56 822 106 q 1115 -12 1008 7 l 1072 -94 q 823 3 935 -68 q 658 178 711 75 q 492 2 606 74 q 239 -97 379 -69 l 197 -15 z "},"껐":{"ha":1214,"x_min":63,"x_max":1158,"o":"m 411 1032 q 346 717 411 849 q 131 482 281 585 l 63 549 q 242 722 182 626 q 313 947 301 817 l 92 947 l 92 1032 l 411 1032 m 118 -11 q 247 65 192 15 q 333 176 303 115 q 364 296 364 238 l 364 375 l 464 375 l 464 296 q 508 131 464 210 q 635 3 553 51 q 765 138 718 56 q 811 296 811 221 l 811 375 l 913 375 l 913 296 q 979 113 913 199 q 1158 -11 1046 28 l 1106 -87 q 954 6 1017 -54 q 861 146 892 67 q 775 2 832 67 q 638 -99 718 -62 q 496 -1 553 -64 q 411 142 439 61 q 316 5 378 65 q 169 -87 254 -56 l 118 -11 m 407 489 q 581 692 525 582 q 647 947 638 803 l 457 947 l 457 1032 l 747 1032 q 719 790 747 897 l 946 790 l 946 1113 l 1050 1113 l 1050 414 l 946 414 l 946 704 l 690 704 q 481 428 626 547 l 407 489 z "},"껑":{"ha":1214,"x_min":60,"x_max":1054,"o":"m 1049 1113 l 1049 371 l 944 371 l 944 693 l 685 693 q 476 421 621 539 l 403 482 q 578 687 521 574 q 646 946 636 800 l 454 946 l 454 1031 l 746 1031 q 715 779 746 896 l 944 779 l 944 1113 l 1049 1113 m 60 546 q 239 721 179 626 q 310 946 299 815 l 90 946 l 90 1031 l 410 1031 q 344 716 410 849 q 128 479 278 583 l 60 546 m 246 132 q 354 302 246 240 q 650 364 463 364 q 946 302 838 364 q 1054 132 1054 240 q 946 -37 1054 24 q 650 -99 838 -99 q 354 -37 463 -99 q 246 132 246 24 m 349 132 q 430 24 349 64 q 650 -17 511 -17 q 870 24 789 -17 q 951 132 951 64 q 870 241 951 201 q 650 281 789 281 q 430 241 511 281 q 349 132 349 201 z "},"껒":{"ha":1214,"x_min":0,"x_max":0,"o":""},"껓":{"ha":1214,"x_min":64,"x_max":1121,"o":"m 411 1043 q 346 740 411 864 q 133 515 281 617 l 64 582 q 240 744 181 656 q 311 957 299 833 l 90 957 l 90 1043 l 411 1043 m 208 -18 q 399 33 308 -6 q 549 124 490 71 q 614 236 608 178 l 257 236 l 257 317 l 615 317 l 615 446 l 719 446 l 719 317 l 1078 317 l 1078 236 l 721 236 q 783 126 726 179 q 931 33 840 72 q 1121 -18 1021 -6 l 1085 -97 q 833 -17 947 -78 q 667 128 719 43 q 498 -17 614 43 q 243 -97 382 -78 l 208 -18 m 410 522 q 581 714 525 610 q 647 957 636 818 l 457 957 l 457 1043 l 747 1043 q 719 811 747 913 l 944 811 l 944 1113 l 1049 1113 l 1049 418 l 944 418 l 944 726 l 692 726 q 483 461 628 575 l 410 522 z "},"껔":{"ha":1214,"x_min":0,"x_max":0,"o":""},"껕":{"ha":1214,"x_min":51,"x_max":1081,"o":"m 396 1047 q 330 759 396 878 q 125 542 264 640 l 51 610 q 219 762 161 682 q 292 958 278 842 l 78 958 l 78 1047 l 396 1047 m 238 410 l 1057 410 l 1057 329 l 340 329 l 340 200 l 1043 200 l 1043 122 l 340 122 l 340 -8 l 1081 -8 l 1081 -89 l 238 -89 l 238 410 m 394 544 q 559 727 504 629 q 625 958 614 825 l 433 958 l 433 1047 l 731 1047 q 706 833 731 932 l 942 833 l 942 1114 l 1046 1114 l 1046 476 l 942 476 l 942 746 l 678 746 q 478 483 618 599 l 394 544 z "},"껖":{"ha":1214,"x_min":0,"x_max":0,"o":""},"껗":{"ha":1214,"x_min":0,"x_max":0,"o":""},"께":{"ha":1214,"x_min":60,"x_max":1089,"o":"m 353 967 q 308 547 353 743 q 142 189 263 350 l 60 239 q 211 533 165 372 q 264 881 257 693 l 83 881 l 83 967 l 353 967 m 328 158 q 484 486 442 304 q 532 881 526 668 l 393 881 l 393 967 l 621 967 q 603 635 621 774 l 767 635 l 767 1082 l 864 1082 l 864 -37 l 767 -37 l 767 549 l 590 549 q 411 108 543 288 l 328 158 m 989 1114 l 1089 1114 l 1089 -101 l 989 -101 l 989 1114 z "},"껙":{"ha":1214,"x_min":67,"x_max":1083,"o":"m 1083 1114 l 1083 394 l 985 394 l 985 1114 l 1083 1114 m 67 539 q 210 718 164 624 q 265 943 256 813 l 86 943 l 86 1028 l 361 1028 q 313 720 361 850 q 143 479 264 590 l 67 539 m 253 336 l 1083 336 l 1083 -101 l 981 -101 l 981 251 l 253 251 l 253 336 m 336 460 q 485 676 439 560 q 539 943 531 793 l 393 943 l 393 1028 l 635 1028 q 618 800 635 896 l 767 800 l 767 1088 l 864 1088 l 864 404 l 767 404 l 767 714 l 597 714 q 419 406 549 539 l 336 460 z "},"껚":{"ha":1214,"x_min":0,"x_max":0,"o":""},"껛":{"ha":1214,"x_min":0,"x_max":0,"o":""},"껜":{"ha":1214,"x_min":63,"x_max":1118,"o":"m 382 304 l 382 25 l 1118 25 l 1118 -61 l 279 -61 l 279 304 l 382 304 m 63 501 q 210 692 163 592 q 265 929 257 793 l 88 929 l 88 1017 l 361 1017 q 313 694 361 829 q 140 444 264 560 l 63 501 m 336 424 q 485 650 440 528 q 539 929 531 772 l 393 929 l 393 1017 l 635 1017 q 614 761 635 872 l 768 761 l 768 1089 l 865 1089 l 865 239 l 768 239 l 768 675 l 594 675 q 418 369 543 500 l 336 424 m 986 1113 l 1085 1113 l 1085 210 l 986 210 l 986 1113 z "},"껝":{"ha":1214,"x_min":0,"x_max":0,"o":""},"껞":{"ha":1214,"x_min":0,"x_max":0,"o":""},"껟":{"ha":1214,"x_min":0,"x_max":0,"o":""},"껠":{"ha":1214,"x_min":0,"x_max":0,"o":""},"껡":{"ha":1214,"x_min":0,"x_max":0,"o":""},"껢":{"ha":1214,"x_min":0,"x_max":0,"o":""},"껣":{"ha":1214,"x_min":0,"x_max":0,"o":""},"껤":{"ha":1214,"x_min":0,"x_max":0,"o":""},"껥":{"ha":1214,"x_min":0,"x_max":0,"o":""},"껦":{"ha":1214,"x_min":0,"x_max":0,"o":""},"껧":{"ha":1214,"x_min":0,"x_max":0,"o":""},"껨":{"ha":1214,"x_min":65,"x_max":1083,"o":"m 1083 1113 l 1083 414 l 985 414 l 985 1113 l 1083 1113 m 65 544 q 210 724 164 629 q 265 949 257 818 l 86 949 l 86 1033 l 360 1033 q 311 726 360 854 q 142 488 263 597 l 65 544 m 286 358 l 1083 358 l 1083 -83 l 286 -83 l 286 358 m 338 471 q 485 685 439 571 q 539 949 531 800 l 392 949 l 392 1033 l 633 1033 q 614 793 633 900 l 767 793 l 767 1089 l 864 1089 l 864 425 l 767 425 l 767 708 l 593 708 q 418 418 542 542 l 338 471 m 982 1 l 982 275 l 389 275 l 389 1 l 982 1 z "},"껩":{"ha":1214,"x_min":0,"x_max":0,"o":""},"껪":{"ha":1214,"x_min":0,"x_max":0,"o":""},"껫":{"ha":1214,"x_min":64,"x_max":1150,"o":"m 1085 1113 l 1085 300 l 986 300 l 986 1113 l 1085 1113 m 64 521 q 210 706 164 608 q 265 936 257 803 l 88 936 l 88 1022 l 361 1022 q 313 707 361 839 q 143 464 265 575 l 64 521 m 213 -10 q 414 56 318 8 q 569 174 510 104 q 628 324 628 243 l 628 369 l 735 369 l 735 324 q 794 174 735 243 q 949 56 853 104 q 1150 -10 1044 8 l 1110 -92 q 851 6 968 -65 q 682 179 735 78 q 512 6 629 78 q 254 -92 394 -65 l 213 -10 m 339 442 q 485 663 440 543 q 539 936 531 782 l 394 936 l 394 1022 l 635 1022 q 618 788 635 888 l 767 788 l 767 1088 l 865 1088 l 865 410 l 767 410 l 767 701 l 599 701 q 421 388 550 522 l 339 442 z "},"껬":{"ha":1214,"x_min":0,"x_max":0,"o":""},"껭":{"ha":1214,"x_min":65,"x_max":1094,"o":"m 1083 1113 l 1083 372 l 985 372 l 985 1113 l 1083 1113 m 65 536 q 211 715 165 621 q 265 939 257 808 l 89 939 l 89 1025 l 361 1025 q 313 716 361 844 q 143 476 264 588 l 65 536 m 242 124 q 354 288 242 229 q 668 346 467 346 q 982 288 869 346 q 1094 124 1094 229 q 982 -41 1094 17 q 668 -99 869 -99 q 354 -41 467 -99 q 242 124 242 17 m 340 458 q 486 674 442 558 q 539 939 531 789 l 393 939 l 393 1025 l 635 1025 q 617 788 635 885 l 767 788 l 767 1088 l 864 1088 l 864 415 l 767 415 l 767 701 l 596 701 q 422 404 547 536 l 340 458 m 347 124 q 433 20 347 57 q 668 -17 518 -17 q 903 20 818 -17 q 988 124 988 57 q 903 226 988 189 q 668 263 818 263 q 433 226 518 263 q 347 124 347 189 z "},"껮":{"ha":1214,"x_min":0,"x_max":0,"o":""},"껯":{"ha":1214,"x_min":0,"x_max":0,"o":""},"껰":{"ha":1214,"x_min":0,"x_max":0,"o":""},"껱":{"ha":1214,"x_min":0,"x_max":0,"o":""},"껲":{"ha":1214,"x_min":0,"x_max":0,"o":""},"껳":{"ha":1214,"x_min":0,"x_max":0,"o":""},"껴":{"ha":1214,"x_min":44,"x_max":1047,"o":"m 1047 1114 l 1047 -101 l 943 -101 l 943 374 l 639 374 q 474 94 578 218 l 386 150 q 643 896 625 426 l 451 896 l 451 982 l 742 982 q 733 782 742 885 l 943 782 l 943 1114 l 1047 1114 m 44 238 q 317 896 294 497 l 85 896 l 85 982 l 415 982 q 125 178 415 483 l 44 238 m 943 458 l 943 696 l 724 696 q 669 458 703 564 l 943 458 z "},"껵":{"ha":1214,"x_min":0,"x_max":0,"o":""},"껶":{"ha":1214,"x_min":0,"x_max":0,"o":""},"껷":{"ha":1214,"x_min":0,"x_max":0,"o":""},"껸":{"ha":1214,"x_min":69,"x_max":1079,"o":"m 944 581 l 944 789 l 724 789 q 639 556 699 663 q 475 360 579 450 l 401 424 q 578 647 521 524 q 643 925 635 771 l 458 925 l 458 1013 l 743 1013 q 736 874 743 950 l 944 874 l 944 1111 l 1049 1111 l 1049 217 l 944 217 l 944 496 l 699 496 l 699 581 l 944 581 m 69 488 q 245 681 188 576 q 314 925 303 786 l 96 925 l 96 1013 l 414 1013 q 351 679 414 822 q 140 421 288 536 l 69 488 m 268 289 l 371 289 l 371 13 l 1079 13 l 1079 -74 l 268 -74 l 268 289 z "},"껹":{"ha":1214,"x_min":0,"x_max":0,"o":""},"껺":{"ha":1214,"x_min":0,"x_max":0,"o":""},"껻":{"ha":1214,"x_min":0,"x_max":0,"o":""},"껼":{"ha":1214,"x_min":67,"x_max":1086,"o":"m 944 704 l 944 856 l 726 856 q 642 656 701 746 q 481 490 582 567 l 407 551 q 578 733 522 635 q 646 964 635 831 l 454 964 l 454 1050 l 746 1050 q 740 936 746 985 l 944 936 l 944 1114 l 1047 1114 l 1047 489 l 944 489 l 944 622 l 710 622 l 710 704 l 944 704 m 67 618 q 239 768 179 689 q 311 964 299 847 l 96 964 l 96 1050 l 413 1050 q 345 765 413 881 q 136 551 278 649 l 67 618 m 263 429 l 1047 429 l 1047 138 l 367 138 l 367 -8 l 1086 -8 l 1086 -92 l 265 -92 l 265 217 l 944 217 l 944 346 l 263 346 l 263 429 z "},"껽":{"ha":1214,"x_min":0,"x_max":0,"o":""},"껾":{"ha":1214,"x_min":0,"x_max":0,"o":""},"껿":{"ha":1214,"x_min":0,"x_max":0,"o":""},"꼀":{"ha":1214,"x_min":0,"x_max":0,"o":""},"꼁":{"ha":1214,"x_min":0,"x_max":0,"o":""},"꼂":{"ha":1214,"x_min":0,"x_max":0,"o":""},"꼃":{"ha":1214,"x_min":0,"x_max":0,"o":""},"꼄":{"ha":1214,"x_min":0,"x_max":0,"o":""},"꼅":{"ha":1214,"x_min":0,"x_max":0,"o":""},"꼆":{"ha":1214,"x_min":0,"x_max":0,"o":""},"꼇":{"ha":1214,"x_min":64,"x_max":1115,"o":"m 944 617 l 944 794 l 724 794 q 481 396 671 557 l 406 458 q 580 669 524 554 q 646 933 636 785 l 458 933 l 458 1019 l 746 1019 q 738 881 746 947 l 944 881 l 944 1114 l 1049 1114 l 1049 278 l 944 278 l 944 529 l 706 529 l 706 617 l 944 617 m 64 531 q 242 706 182 610 q 314 933 303 801 l 96 933 l 96 1019 l 414 1019 q 348 702 414 835 q 132 464 282 569 l 64 531 m 197 -15 q 399 53 306 4 q 550 174 493 101 q 607 332 607 246 l 607 372 l 710 372 l 710 332 q 766 176 710 247 q 915 56 822 104 q 1115 -12 1007 7 l 1074 -94 q 823 3 935 -67 q 658 175 711 72 q 494 1 607 72 q 239 -97 381 -69 l 197 -15 z "},"꼈":{"ha":1214,"x_min":63,"x_max":1158,"o":"m 946 647 l 946 824 l 724 824 q 640 609 699 707 q 479 428 581 511 l 406 489 q 578 692 522 582 q 644 947 635 803 l 457 947 l 457 1032 l 744 1032 q 738 908 744 958 l 946 908 l 946 1113 l 1050 1113 l 1050 414 l 946 414 l 946 561 l 708 561 l 708 647 l 946 647 m 63 549 q 242 722 182 626 q 313 947 301 817 l 92 947 l 92 1032 l 411 1032 q 346 717 411 849 q 131 482 281 585 l 63 549 m 118 -11 q 247 65 192 15 q 333 176 303 115 q 364 296 364 238 l 364 375 l 464 375 l 464 296 q 508 131 464 210 q 635 3 553 51 q 765 138 718 56 q 811 296 811 221 l 811 375 l 913 375 l 913 296 q 979 113 913 199 q 1158 -11 1046 28 l 1106 -87 q 954 6 1017 -54 q 861 146 892 67 q 775 2 832 67 q 638 -99 718 -62 q 496 -1 553 -64 q 411 142 439 61 q 316 5 378 65 q 169 -87 254 -56 l 118 -11 z "},"꼉":{"ha":1214,"x_min":60,"x_max":1054,"o":"m 1049 1113 l 1049 371 l 944 371 l 944 561 l 704 561 l 704 647 l 944 647 l 944 813 l 724 813 q 476 421 669 578 l 403 482 q 578 687 521 574 q 646 946 636 800 l 454 946 l 454 1031 l 746 1031 q 739 899 746 971 l 944 899 l 944 1113 l 1049 1113 m 60 546 q 239 721 179 626 q 310 946 299 815 l 90 946 l 90 1031 l 410 1031 q 344 716 410 849 q 128 479 278 583 l 60 546 m 246 132 q 354 302 246 240 q 650 364 463 364 q 946 302 838 364 q 1054 132 1054 240 q 946 -37 1054 24 q 650 -99 838 -99 q 354 -37 463 -99 q 246 132 246 24 m 349 132 q 430 24 349 64 q 650 -17 511 -17 q 870 24 789 -17 q 951 132 951 64 q 870 241 951 201 q 650 281 789 281 q 430 241 511 281 q 349 132 349 201 z "},"꼊":{"ha":1214,"x_min":0,"x_max":0,"o":""},"꼋":{"ha":1214,"x_min":0,"x_max":0,"o":""},"꼌":{"ha":1214,"x_min":0,"x_max":0,"o":""},"꼍":{"ha":1214,"x_min":65,"x_max":1075,"o":"m 1053 394 l 1053 314 l 371 314 l 371 196 l 1035 196 l 1035 118 l 371 118 l 371 -4 l 1075 -4 l 1075 -85 l 268 -85 l 268 394 l 1053 394 m 65 571 q 242 738 183 646 q 313 958 301 831 l 96 958 l 96 1043 l 413 1043 q 347 735 413 863 q 133 504 282 607 l 65 571 m 390 507 q 567 707 510 597 q 636 958 625 817 l 456 958 l 456 1043 l 735 1043 q 728 919 735 986 l 944 919 l 944 1114 l 1049 1114 l 1049 453 l 944 453 l 944 592 l 704 592 l 704 675 l 944 675 l 944 836 l 714 836 q 628 624 689 721 q 464 446 568 528 l 390 507 z "},"꼎":{"ha":1214,"x_min":0,"x_max":0,"o":""},"꼏":{"ha":1214,"x_min":0,"x_max":0,"o":""},"꼐":{"ha":1214,"x_min":60,"x_max":1089,"o":"m 353 967 q 308 547 353 743 q 142 189 263 350 l 60 239 q 211 533 165 372 q 264 881 257 693 l 83 881 l 83 967 l 353 967 m 328 158 q 484 486 442 304 q 532 881 526 668 l 393 881 l 393 967 l 621 967 q 617 779 621 879 l 768 779 l 768 1082 l 867 1082 l 867 -37 l 768 -37 l 768 383 l 549 383 q 411 108 499 228 l 328 158 m 768 468 l 768 693 l 610 693 q 572 468 597 567 l 768 468 m 989 1114 l 1089 1114 l 1089 -101 l 989 -101 l 989 1114 z "},"꼑":{"ha":1214,"x_min":0,"x_max":0,"o":""},"꼒":{"ha":1214,"x_min":0,"x_max":0,"o":""},"꼓":{"ha":1214,"x_min":0,"x_max":0,"o":""},"꼔":{"ha":1214,"x_min":0,"x_max":0,"o":""},"꼕":{"ha":1214,"x_min":0,"x_max":0,"o":""},"꼖":{"ha":1214,"x_min":0,"x_max":0,"o":""},"꼗":{"ha":1214,"x_min":0,"x_max":0,"o":""},"꼘":{"ha":1214,"x_min":0,"x_max":0,"o":""},"꼙":{"ha":1214,"x_min":0,"x_max":0,"o":""},"꼚":{"ha":1214,"x_min":0,"x_max":0,"o":""},"꼛":{"ha":1214,"x_min":0,"x_max":0,"o":""},"꼜":{"ha":1214,"x_min":0,"x_max":0,"o":""},"꼝":{"ha":1214,"x_min":0,"x_max":0,"o":""},"꼞":{"ha":1214,"x_min":0,"x_max":0,"o":""},"꼟":{"ha":1214,"x_min":0,"x_max":0,"o":""},"꼠":{"ha":1214,"x_min":0,"x_max":0,"o":""},"꼡":{"ha":1214,"x_min":0,"x_max":0,"o":""},"꼢":{"ha":1214,"x_min":0,"x_max":0,"o":""},"꼣":{"ha":1214,"x_min":0,"x_max":0,"o":""},"꼤":{"ha":1214,"x_min":0,"x_max":0,"o":""},"꼥":{"ha":1214,"x_min":0,"x_max":0,"o":""},"꼦":{"ha":1214,"x_min":0,"x_max":0,"o":""},"꼧":{"ha":1214,"x_min":0,"x_max":0,"o":""},"꼨":{"ha":1214,"x_min":0,"x_max":0,"o":""},"꼩":{"ha":1214,"x_min":0,"x_max":0,"o":""},"꼪":{"ha":1214,"x_min":0,"x_max":0,"o":""},"꼫":{"ha":1214,"x_min":0,"x_max":0,"o":""},"꼬":{"ha":1214,"x_min":56,"x_max":1153,"o":"m 518 989 l 518 949 q 504 694 518 831 q 440 363 490 557 l 336 379 q 415 904 413 649 l 142 904 l 142 989 l 518 989 m 56 165 l 578 165 l 578 560 l 681 560 l 681 165 l 1153 165 l 1153 79 l 56 79 l 56 165 m 617 989 l 1028 989 l 1028 906 q 1019 651 1028 772 q 978 365 1011 531 l 874 379 q 915 653 907 535 q 924 904 924 772 l 617 904 l 617 989 z "},"꼭":{"ha":1214,"x_min":57,"x_max":1153,"o":"m 1028 1058 l 1028 1008 q 1022 835 1028 921 q 993 639 1015 749 l 892 650 q 926 974 924 806 l 621 974 l 621 1058 l 1028 1058 m 57 532 l 576 532 l 576 779 l 679 779 l 679 532 l 1153 532 l 1153 446 l 57 446 l 57 532 m 151 1058 l 519 1058 l 519 1018 q 510 844 519 933 q 464 638 500 754 l 363 653 q 418 974 415 824 l 151 974 l 151 1058 m 176 315 l 1015 315 l 1015 -96 l 910 -96 l 910 229 l 176 229 l 176 315 z "},"꼮":{"ha":1214,"x_min":0,"x_max":0,"o":""},"꼯":{"ha":1214,"x_min":0,"x_max":0,"o":""},"꼰":{"ha":1214,"x_min":57,"x_max":1153,"o":"m 1028 1050 l 1028 997 q 1022 816 1028 906 q 993 610 1015 726 l 892 622 q 926 965 926 797 l 621 965 l 621 1050 l 1028 1050 m 57 508 l 576 508 l 576 754 l 679 754 l 679 508 l 1153 508 l 1153 424 l 57 424 l 57 508 m 151 1050 l 519 1050 l 519 1006 q 510 823 519 917 q 463 607 500 729 l 361 625 q 418 965 415 803 l 151 965 l 151 1050 m 203 301 l 307 301 l 307 11 l 1039 11 l 1039 -75 l 203 -75 l 203 301 z "},"꼱":{"ha":1214,"x_min":0,"x_max":0,"o":""},"꼲":{"ha":1214,"x_min":57,"x_max":1153,"o":"m 758 339 l 758 446 l 860 446 l 860 339 l 1081 339 l 1081 258 l 535 258 l 535 339 l 758 339 m 57 585 l 576 585 l 576 803 l 679 803 l 679 585 l 1153 585 l 1153 500 l 57 500 l 57 585 m 151 1061 l 519 1061 l 519 1017 q 510 853 519 936 q 464 664 500 769 l 363 681 q 418 978 415 838 l 151 978 l 151 1061 m 186 358 l 288 358 l 288 17 q 549 53 418 19 l 564 -33 q 244 -71 411 -71 l 186 -71 l 186 358 m 596 57 q 656 172 596 128 q 808 215 717 215 q 961 172 901 215 q 1021 57 1021 128 q 961 -56 1021 -14 q 808 -99 901 -99 q 656 -56 715 -99 q 596 57 596 -14 m 621 1061 l 1028 1061 l 1028 1014 q 1022 851 1028 932 q 993 664 1015 769 l 893 676 q 926 978 924 825 l 621 978 l 621 1061 m 686 57 q 720 -3 686 19 q 808 -26 754 -26 q 897 -3 863 -26 q 931 57 931 19 q 897 119 931 96 q 808 143 863 143 q 720 119 754 143 q 686 57 686 96 z "},"꼳":{"ha":1214,"x_min":57,"x_max":1153,"o":"m 1028 1060 l 1028 1010 q 1022 840 1028 925 q 993 647 1015 756 l 892 658 q 926 974 924 811 l 621 974 l 621 1060 l 1028 1060 m 57 553 l 576 553 l 576 792 l 679 792 l 679 553 l 1153 553 l 1153 465 l 57 465 l 57 553 m 151 1060 l 519 1060 l 519 1018 q 510 849 519 938 q 464 647 500 761 l 363 663 q 418 974 411 818 l 151 974 l 151 1060 m 194 319 l 1011 319 l 1011 233 l 299 233 l 299 1 l 1029 1 l 1029 -85 l 194 -85 l 194 319 z "},"꼴":{"ha":1214,"x_min":57,"x_max":1153,"o":"m 1028 1074 l 1028 1029 q 1022 874 1028 951 q 994 697 1017 796 l 893 710 q 926 989 924 854 l 621 989 l 621 1074 l 1028 1074 m 57 618 l 576 618 l 576 831 l 679 831 l 679 618 l 1153 618 l 1153 533 l 57 533 l 57 618 m 151 1074 l 519 1074 l 519 1031 q 510 874 519 953 q 464 694 500 794 l 363 710 q 418 989 413 850 l 151 989 l 151 1074 m 194 419 l 1013 419 l 1013 135 l 301 135 l 301 -3 l 1056 -3 l 1056 -87 l 197 -87 l 197 215 l 910 215 l 910 336 l 194 336 l 194 419 z "},"꼵":{"ha":1214,"x_min":0,"x_max":0,"o":""},"꼶":{"ha":1214,"x_min":0,"x_max":0,"o":""},"꼷":{"ha":1214,"x_min":0,"x_max":0,"o":""},"꼸":{"ha":1214,"x_min":0,"x_max":0,"o":""},"꼹":{"ha":1214,"x_min":0,"x_max":0,"o":""},"꼺":{"ha":1214,"x_min":0,"x_max":0,"o":""},"꼻":{"ha":1214,"x_min":0,"x_max":0,"o":""},"꼼":{"ha":1214,"x_min":57,"x_max":1153,"o":"m 1028 1061 l 1028 1010 q 1022 840 1028 925 q 993 644 1015 754 l 892 656 q 926 976 924 811 l 621 976 l 621 1061 l 1028 1061 m 57 554 l 576 554 l 576 788 l 679 788 l 679 554 l 1153 554 l 1153 468 l 57 468 l 57 554 m 151 1061 l 519 1061 l 519 1019 q 510 848 519 938 q 464 644 500 758 l 363 660 q 418 976 415 829 l 151 976 l 151 1061 m 194 332 l 1015 332 l 1015 -86 l 194 -86 l 194 332 m 914 0 l 914 249 l 296 249 l 296 0 l 914 0 z "},"꼽":{"ha":1214,"x_min":57,"x_max":1153,"o":"m 1028 1063 l 1028 1013 q 1022 844 1028 928 q 993 651 1015 760 l 892 664 q 926 978 924 817 l 621 978 l 621 1063 l 1028 1063 m 57 571 l 576 571 l 576 793 l 679 793 l 679 571 l 1153 571 l 1153 486 l 57 486 l 57 571 m 151 1063 l 519 1063 l 519 1024 q 510 852 519 940 q 464 650 500 764 l 363 665 q 418 978 413 822 l 151 978 l 151 1063 m 204 390 l 307 390 l 307 246 l 906 246 l 906 390 l 1008 390 l 1008 -86 l 204 -86 l 204 390 m 906 0 l 906 164 l 307 164 l 307 0 l 906 0 z "},"꼾":{"ha":1214,"x_min":0,"x_max":0,"o":""},"꼿":{"ha":1214,"x_min":57,"x_max":1153,"o":"m 1028 1053 l 1028 1000 q 1022 826 1028 913 q 993 628 1015 739 l 890 640 q 926 967 924 797 l 621 967 l 621 1053 l 1028 1053 m 57 536 l 576 536 l 576 771 l 679 771 l 679 536 l 1153 536 l 1153 451 l 57 451 l 57 536 m 139 -14 q 343 46 249 1 q 494 158 438 90 q 551 306 551 225 l 551 365 l 656 365 l 656 306 q 713 158 656 225 q 865 46 769 90 q 1069 -14 960 1 l 1031 -99 q 772 -8 886 -74 q 604 157 657 58 q 437 -8 551 58 q 178 -99 322 -74 l 139 -14 m 151 1053 l 519 1053 l 519 1011 q 510 836 519 926 q 464 628 500 746 l 363 643 q 418 967 415 815 l 151 967 l 151 1053 z "},"꽀":{"ha":1214,"x_min":0,"x_max":0,"o":""},"꽁":{"ha":1214,"x_min":57,"x_max":1153,"o":"m 603 354 q 910 294 799 354 q 1022 126 1022 235 q 910 -40 1022 19 q 603 -100 799 -100 q 294 -40 406 -100 q 183 126 183 19 q 294 294 183 235 q 603 354 406 354 m 57 546 l 576 546 l 576 782 l 679 782 l 679 546 l 1153 546 l 1153 460 l 57 460 l 57 546 m 151 1058 l 519 1058 l 519 1018 q 510 846 519 935 q 464 642 500 757 l 363 657 q 418 975 415 828 l 151 975 l 151 1058 m 289 126 q 373 21 289 58 q 603 -17 457 -17 q 833 22 749 -17 q 917 126 917 60 q 833 233 917 194 q 603 271 749 271 q 373 233 457 271 q 289 126 289 194 m 621 1058 l 1028 1058 l 1028 1008 q 1022 837 1028 922 q 993 643 1015 751 l 892 654 q 926 975 924 811 l 621 975 l 621 1058 z "},"꽂":{"ha":1214,"x_min":57,"x_max":1153,"o":"m 1028 1060 l 1028 1010 q 1022 840 1028 925 q 993 647 1015 756 l 892 658 q 926 976 924 814 l 621 976 l 621 1060 l 1028 1060 m 57 556 l 576 556 l 576 790 l 679 790 l 679 556 l 1153 556 l 1153 471 l 57 471 l 57 556 m 139 -14 q 408 81 292 8 q 547 254 524 153 l 189 254 l 189 338 l 1025 338 l 1025 254 l 665 254 q 805 79 689 151 q 1072 -15 921 7 l 1032 -97 q 773 -8 888 -74 q 606 157 658 58 q 438 -7 554 58 q 179 -96 322 -72 l 139 -14 m 151 1060 l 519 1060 l 519 1021 q 510 849 519 938 q 464 646 500 761 l 363 663 q 418 976 411 819 l 151 976 l 151 1060 z "},"꽃":{"ha":1214,"x_min":57,"x_max":1153,"o":"m 1028 1065 l 1028 1018 q 1022 854 1028 936 q 993 667 1015 772 l 893 679 q 926 981 924 825 l 621 981 l 621 1065 l 1028 1065 m 57 590 l 576 590 l 576 801 l 679 801 l 679 590 l 1153 590 l 1153 504 l 57 504 l 57 590 m 150 -15 q 338 35 249 -3 q 485 131 428 74 q 550 250 543 188 l 200 250 l 200 333 l 551 333 l 551 458 l 656 458 l 656 333 l 1007 333 l 1007 250 l 657 250 q 722 130 664 186 q 869 35 779 74 q 1057 -15 958 -3 l 1018 -94 q 769 -12 882 -74 q 604 138 656 49 q 438 -12 551 49 q 188 -94 325 -74 l 150 -15 m 151 1065 l 519 1065 l 519 1021 q 510 856 519 939 q 464 667 500 774 l 363 683 q 418 981 415 840 l 151 981 l 151 1065 z "},"꽄":{"ha":1214,"x_min":0,"x_max":0,"o":""},"꽅":{"ha":1214,"x_min":57,"x_max":1153,"o":"m 1028 1074 l 1028 1029 q 1022 873 1028 951 q 994 694 1017 794 l 893 707 q 926 989 924 843 l 621 989 l 621 1074 l 1028 1074 m 57 606 l 576 606 l 576 821 l 679 821 l 679 606 l 1153 606 l 1153 521 l 57 521 l 57 606 m 151 1074 l 519 1074 l 519 1031 q 510 872 519 953 q 464 690 500 792 l 363 707 q 418 989 413 849 l 151 989 l 151 1074 m 194 397 l 1022 397 l 1022 315 l 299 315 l 299 197 l 992 197 l 992 119 l 299 119 l 299 -6 l 1031 -6 l 1031 -85 l 194 -85 l 194 397 z "},"꽆":{"ha":1214,"x_min":0,"x_max":0,"o":""},"꽇":{"ha":1214,"x_min":0,"x_max":0,"o":""},"꽈":{"ha":1214,"x_min":46,"x_max":1182,"o":"m 361 974 l 361 897 q 350 680 361 783 q 297 439 339 576 l 201 458 q 253 684 242 588 q 264 888 264 781 l 82 888 l 82 974 l 361 974 m 46 250 q 401 257 243 250 l 401 613 l 500 613 l 500 261 q 815 289 685 271 l 822 211 q 60 163 522 163 l 46 250 m 433 974 l 751 974 l 751 897 q 746 683 751 785 q 721 450 740 582 l 625 463 q 649 688 643 589 q 654 888 654 786 l 433 888 l 433 974 m 890 1114 l 993 1114 l 993 601 l 1182 601 l 1182 515 l 993 515 l 993 -101 l 890 -101 l 890 1114 z "},"꽉":{"ha":1214,"x_min":47,"x_max":1167,"o":"m 360 1031 l 360 985 q 351 813 360 900 q 311 611 343 725 l 213 626 q 260 946 257 789 l 88 946 l 88 1031 l 360 1031 m 47 504 q 393 510 228 504 l 393 746 l 490 746 l 490 513 q 808 539 668 522 l 815 464 q 459 427 647 436 q 58 418 271 418 l 47 504 m 190 301 l 994 301 l 994 -93 l 892 -93 l 892 217 l 190 217 l 190 301 m 426 1031 l 736 1031 l 736 964 q 730 794 736 875 q 700 613 724 714 l 600 625 q 631 796 624 721 q 638 946 638 871 l 426 946 l 426 1031 m 892 1114 l 994 1114 l 994 765 l 1167 765 l 1167 679 l 994 679 l 994 358 l 892 358 l 892 1114 z "},"꽊":{"ha":1214,"x_min":0,"x_max":0,"o":""},"꽋":{"ha":1214,"x_min":0,"x_max":0,"o":""},"꽌":{"ha":1214,"x_min":0,"x_max":0,"o":""},"꽍":{"ha":1214,"x_min":0,"x_max":0,"o":""},"꽎":{"ha":1214,"x_min":0,"x_max":0,"o":""},"꽏":{"ha":1214,"x_min":0,"x_max":0,"o":""},"꽐":{"ha":1214,"x_min":47,"x_max":1167,"o":"m 360 1044 l 360 1004 q 351 849 360 929 q 313 667 343 769 l 214 682 q 260 960 257 829 l 88 960 l 88 1044 l 360 1044 m 47 576 q 393 582 228 576 l 393 790 l 490 790 l 490 586 q 814 613 646 592 l 819 538 q 58 492 532 492 l 47 576 m 203 400 l 994 400 l 994 126 l 311 126 l 311 -6 l 1039 -6 l 1039 -87 l 207 -87 l 207 203 l 892 203 l 892 321 l 203 321 l 203 400 m 426 1044 l 736 1044 l 736 985 q 731 833 736 906 q 704 669 725 761 l 606 683 q 638 960 638 822 l 426 960 l 426 1044 m 892 1114 l 994 1114 l 994 817 l 1167 817 l 1167 731 l 994 731 l 994 456 l 892 456 l 892 1114 z "},"꽑":{"ha":1214,"x_min":0,"x_max":0,"o":""},"꽒":{"ha":1214,"x_min":0,"x_max":0,"o":""},"꽓":{"ha":1214,"x_min":0,"x_max":0,"o":""},"꽔":{"ha":1214,"x_min":0,"x_max":0,"o":""},"꽕":{"ha":1214,"x_min":0,"x_max":0,"o":""},"꽖":{"ha":1214,"x_min":0,"x_max":0,"o":""},"꽗":{"ha":1214,"x_min":0,"x_max":0,"o":""},"꽘":{"ha":1214,"x_min":0,"x_max":0,"o":""},"꽙":{"ha":1214,"x_min":0,"x_max":0,"o":""},"꽚":{"ha":1214,"x_min":0,"x_max":0,"o":""},"꽛":{"ha":1214,"x_min":0,"x_max":0,"o":""},"꽜":{"ha":1214,"x_min":47,"x_max":1167,"o":"m 360 1035 l 360 990 q 351 818 360 906 q 311 618 343 731 l 213 633 q 260 950 257 794 l 88 950 l 88 1035 l 360 1035 m 47 514 q 393 518 269 514 l 393 751 l 490 751 l 490 522 q 808 550 675 532 l 815 475 q 461 438 646 446 q 58 429 276 429 l 47 514 m 106 -8 q 275 114 214 31 q 336 289 336 197 l 336 338 l 436 338 l 436 289 q 481 130 436 208 q 610 3 526 51 q 740 131 693 51 q 786 289 786 210 l 786 338 l 888 338 l 888 289 q 948 112 888 194 q 1117 -8 1008 29 l 1065 -86 q 924 3 982 -54 q 835 135 865 60 q 750 -3 807 58 q 611 -97 693 -64 q 472 -3 529 -64 q 385 133 414 57 q 297 3 354 60 q 157 -86 239 -54 l 106 -8 m 426 1035 l 736 1035 l 736 969 q 730 801 736 881 q 701 619 724 721 l 603 632 q 631 801 624 726 q 638 950 638 875 l 426 950 l 426 1035 m 892 1114 l 994 1114 l 994 789 l 1167 789 l 1167 701 l 994 701 l 994 388 l 892 388 l 892 1114 z "},"꽝":{"ha":1214,"x_min":47,"x_max":1167,"o":"m 607 331 q 901 274 794 331 q 1007 118 1007 218 q 901 -40 1007 17 q 607 -96 794 -96 q 314 -40 419 -96 q 208 118 208 17 q 314 274 208 218 q 607 331 419 331 m 47 515 q 393 521 268 515 l 393 754 l 490 754 l 490 525 q 808 554 682 535 l 815 478 q 456 439 644 449 q 58 429 268 429 l 47 515 m 88 1035 l 360 1035 l 360 990 q 351 818 360 906 q 311 618 343 731 l 213 633 q 260 950 257 794 l 88 950 l 88 1035 m 313 118 q 390 21 313 56 q 607 -14 468 -14 q 824 21 746 -14 q 901 118 901 56 q 824 215 901 181 q 607 250 746 250 q 390 215 468 250 q 313 118 313 181 m 426 1035 l 736 1035 l 736 971 q 730 803 736 882 q 700 624 724 724 l 600 635 q 631 801 624 728 q 638 950 638 875 l 426 950 l 426 1035 m 892 1114 l 994 1114 l 994 781 l 1167 781 l 1167 694 l 994 694 l 994 351 l 892 351 l 892 1114 z "},"꽞":{"ha":1214,"x_min":0,"x_max":0,"o":""},"꽟":{"ha":1214,"x_min":0,"x_max":0,"o":""},"꽠":{"ha":1214,"x_min":0,"x_max":0,"o":""},"꽡":{"ha":1214,"x_min":0,"x_max":0,"o":""},"꽢":{"ha":1214,"x_min":0,"x_max":0,"o":""},"꽣":{"ha":1214,"x_min":0,"x_max":0,"o":""},"꽤":{"ha":1214,"x_min":43,"x_max":1083,"o":"m 435 601 l 435 286 q 697 308 586 293 l 704 233 q 57 190 471 190 l 43 278 q 344 282 233 278 l 344 601 l 435 601 m 72 972 l 315 972 l 315 917 q 307 715 315 815 q 265 481 299 614 l 172 493 q 224 886 224 694 l 72 886 l 72 972 m 376 972 l 654 972 l 654 882 q 650 679 654 765 q 628 481 646 593 l 536 494 q 559 690 554 604 q 564 882 564 776 l 564 886 l 376 886 l 376 972 m 750 1086 l 847 1086 l 847 606 l 985 606 l 985 1114 l 1083 1114 l 1083 -101 l 985 -101 l 985 518 l 847 518 l 847 -40 l 750 -40 l 750 1086 z "},"꽥":{"ha":1214,"x_min":47,"x_max":1082,"o":"m 438 760 l 438 522 q 694 543 581 529 l 701 468 q 60 428 467 428 l 47 513 q 347 518 201 513 l 347 760 l 438 760 m 75 1035 l 317 1035 l 317 996 q 308 826 317 913 q 271 628 300 739 l 182 649 q 228 947 221 796 l 75 947 l 75 1035 m 257 308 l 1082 308 l 1082 -103 l 979 -103 l 979 222 l 257 222 l 257 308 m 375 1035 l 656 1035 l 656 969 q 651 805 656 882 q 629 631 646 728 l 539 639 q 567 947 567 789 l 375 947 l 375 1035 m 753 1090 l 851 1090 l 851 779 l 983 779 l 983 1114 l 1082 1114 l 1082 363 l 983 363 l 983 693 l 851 693 l 851 371 l 753 371 l 753 1090 z "},"꽦":{"ha":1214,"x_min":0,"x_max":0,"o":""},"꽧":{"ha":1214,"x_min":0,"x_max":0,"o":""},"꽨":{"ha":1214,"x_min":0,"x_max":0,"o":""},"꽩":{"ha":1214,"x_min":0,"x_max":0,"o":""},"꽪":{"ha":1214,"x_min":0,"x_max":0,"o":""},"꽫":{"ha":1214,"x_min":0,"x_max":0,"o":""},"꽬":{"ha":1214,"x_min":0,"x_max":0,"o":""},"꽭":{"ha":1214,"x_min":0,"x_max":0,"o":""},"꽮":{"ha":1214,"x_min":0,"x_max":0,"o":""},"꽯":{"ha":1214,"x_min":0,"x_max":0,"o":""},"꽰":{"ha":1214,"x_min":0,"x_max":0,"o":""},"꽱":{"ha":1214,"x_min":0,"x_max":0,"o":""},"꽲":{"ha":1214,"x_min":0,"x_max":0,"o":""},"꽳":{"ha":1214,"x_min":0,"x_max":0,"o":""},"꽴":{"ha":1214,"x_min":0,"x_max":0,"o":""},"꽵":{"ha":1214,"x_min":0,"x_max":0,"o":""},"꽶":{"ha":1214,"x_min":0,"x_max":0,"o":""},"꽷":{"ha":1214,"x_min":0,"x_max":0,"o":""},"꽸":{"ha":1214,"x_min":47,"x_max":1174,"o":"m 439 760 l 439 524 q 697 544 585 531 l 704 468 q 61 428 478 431 l 47 514 q 349 519 203 514 l 349 760 l 439 760 m 78 1033 l 318 1033 l 318 994 q 310 826 318 913 q 271 628 301 739 l 183 649 q 229 947 226 808 l 78 947 l 78 1033 m 135 -28 q 313 92 247 8 q 379 269 379 175 l 379 318 l 479 318 l 479 269 q 524 109 479 188 q 653 -17 569 31 q 782 110 736 31 q 828 269 828 189 l 828 318 l 931 318 l 931 269 q 996 91 931 174 q 1174 -28 1061 8 l 1122 -106 q 974 -17 1036 -75 q 879 117 911 42 q 794 -22 851 39 q 653 -117 736 -83 q 514 -22 571 -83 q 428 117 457 39 q 334 -17 396 42 q 186 -106 272 -75 l 135 -28 m 376 1033 l 657 1033 l 657 969 q 652 805 657 882 q 631 631 647 728 l 540 639 q 568 947 568 789 l 376 947 l 376 1033 m 754 1090 l 853 1090 l 853 778 l 985 778 l 985 1114 l 1083 1114 l 1083 363 l 985 363 l 985 692 l 853 692 l 853 378 l 754 378 l 754 1090 z "},"꽹":{"ha":1214,"x_min":47,"x_max":1090,"o":"m 1082 1114 l 1082 351 l 983 351 l 983 692 l 851 692 l 851 392 l 753 392 l 753 1090 l 851 1090 l 851 778 l 983 778 l 983 1114 l 1082 1114 m 47 515 q 347 521 199 515 l 347 761 l 438 761 l 438 525 q 694 550 582 533 l 701 474 q 60 429 465 429 l 47 515 m 75 1035 l 317 1035 l 317 996 q 308 827 317 914 q 271 629 300 740 l 182 650 q 228 949 225 808 l 75 949 l 75 1035 m 254 121 q 365 282 254 225 q 672 339 475 339 q 980 282 869 339 q 1090 121 1090 225 q 980 -42 1090 17 q 672 -100 869 -100 q 365 -42 475 -100 q 254 121 254 17 m 361 121 q 444 19 361 56 q 672 -18 526 -18 q 901 19 818 -18 q 985 121 985 56 q 901 222 985 185 q 672 258 818 258 q 444 222 526 258 q 361 121 361 185 m 375 1035 l 656 1035 l 656 971 q 651 806 656 883 q 629 631 646 728 l 539 640 q 567 949 567 790 l 375 949 l 375 1035 z "},"꽺":{"ha":1214,"x_min":0,"x_max":0,"o":""},"꽻":{"ha":1214,"x_min":0,"x_max":0,"o":""},"꽼":{"ha":1214,"x_min":0,"x_max":0,"o":""},"꽽":{"ha":1214,"x_min":0,"x_max":0,"o":""},"꽾":{"ha":1214,"x_min":0,"x_max":0,"o":""},"꽿":{"ha":1214,"x_min":0,"x_max":0,"o":""},"꾀":{"ha":1214,"x_min":58,"x_max":1043,"o":"m 374 974 l 374 911 q 364 692 374 800 q 317 439 354 583 l 219 456 q 265 689 254 588 q 276 888 276 790 l 92 888 l 92 974 l 374 974 m 58 250 q 425 256 294 250 l 425 618 l 522 618 l 522 260 q 860 290 707 268 l 867 213 q 490 172 686 182 q 69 163 294 163 l 58 250 m 454 974 l 782 974 l 782 897 q 776 681 782 783 q 750 447 771 579 l 654 460 q 679 685 674 586 q 685 888 685 785 l 454 888 l 454 974 m 939 1114 l 1043 1114 l 1043 -101 l 939 -101 l 939 1114 z "},"꾁":{"ha":1214,"x_min":0,"x_max":0,"o":""},"꾂":{"ha":1214,"x_min":0,"x_max":0,"o":""},"꾃":{"ha":1214,"x_min":0,"x_max":0,"o":""},"꾄":{"ha":1214,"x_min":58,"x_max":1086,"o":"m 524 722 l 524 485 q 858 513 717 494 l 865 436 q 488 398 686 408 q 68 386 290 388 l 58 474 q 425 481 264 474 l 425 722 l 524 722 m 108 1010 l 388 1010 l 388 964 q 378 791 388 879 q 336 590 369 703 l 238 604 q 290 924 288 764 l 108 924 l 108 1010 m 253 275 l 357 275 l 357 13 l 1086 13 l 1086 -74 l 253 -74 l 253 275 m 460 1010 l 793 1010 l 793 943 q 787 774 793 854 q 758 592 781 693 l 661 603 q 690 772 683 697 q 697 924 697 847 l 460 924 l 460 1010 m 944 1114 l 1049 1114 l 1049 211 l 944 211 l 944 1114 z "},"꾅":{"ha":1214,"x_min":0,"x_max":0,"o":""},"꾆":{"ha":1214,"x_min":0,"x_max":0,"o":""},"꾇":{"ha":1214,"x_min":0,"x_max":0,"o":""},"꾈":{"ha":1214,"x_min":53,"x_max":1092,"o":"m 385 1047 l 385 1006 q 376 849 385 929 q 339 667 368 769 l 242 681 q 289 963 286 831 l 106 963 l 106 1047 l 385 1047 m 53 572 q 424 578 250 572 l 424 796 l 521 796 l 521 582 q 857 611 696 590 l 864 538 q 68 488 550 488 l 53 572 m 236 394 l 1049 394 l 1049 121 l 343 121 l 343 -6 l 1092 -6 l 1092 -87 l 239 -87 l 239 197 l 946 197 l 946 314 l 236 314 l 236 394 m 458 1047 l 790 1047 l 790 986 q 785 834 790 907 q 758 669 779 761 l 663 682 q 694 963 694 815 l 458 963 l 458 1047 m 944 1114 l 1049 1114 l 1049 449 l 944 449 l 944 1114 z "},"꾉":{"ha":1214,"x_min":0,"x_max":0,"o":""},"꾊":{"ha":1214,"x_min":0,"x_max":0,"o":""},"꾋":{"ha":1214,"x_min":0,"x_max":0,"o":""},"꾌":{"ha":1214,"x_min":0,"x_max":0,"o":""},"꾍":{"ha":1214,"x_min":0,"x_max":0,"o":""},"꾎":{"ha":1214,"x_min":0,"x_max":0,"o":""},"꾏":{"ha":1214,"x_min":0,"x_max":0,"o":""},"꾐":{"ha":1214,"x_min":58,"x_max":1047,"o":"m 1047 1114 l 1047 388 l 944 388 l 944 1114 l 1047 1114 m 58 518 q 425 525 207 518 l 425 758 l 522 758 l 522 529 q 860 558 729 542 l 865 481 q 67 432 565 435 l 58 518 m 107 1026 l 386 1026 l 386 983 q 378 819 386 903 q 338 628 369 735 l 240 640 q 289 942 286 793 l 107 942 l 107 1026 m 253 322 l 1047 322 l 1047 -85 l 253 -85 l 253 322 m 946 0 l 946 239 l 356 239 l 356 0 l 946 0 m 458 1026 l 793 1026 l 793 964 q 787 802 793 879 q 756 628 781 725 l 661 639 q 689 800 682 729 q 696 942 696 871 l 458 942 l 458 1026 z "},"꾑":{"ha":1214,"x_min":58,"x_max":1047,"o":"m 350 375 l 350 236 l 944 236 l 944 375 l 1047 375 l 1047 -85 l 247 -85 l 247 375 l 350 375 m 58 535 q 425 543 229 535 l 425 771 l 522 771 l 522 547 q 860 575 689 556 l 865 499 q 67 447 557 450 l 58 535 m 107 1035 l 386 1035 l 386 992 q 378 826 386 910 q 338 635 369 742 l 240 649 q 289 950 286 801 l 107 950 l 107 1035 m 944 0 l 944 154 l 350 154 l 350 0 l 944 0 m 458 1035 l 793 1035 l 793 971 q 787 810 793 886 q 756 636 781 733 l 661 647 q 689 808 682 736 q 696 950 696 879 l 458 950 l 458 1035 m 944 1114 l 1047 1114 l 1047 417 l 944 417 l 944 1114 z "},"꾒":{"ha":1214,"x_min":0,"x_max":0,"o":""},"꾓":{"ha":1214,"x_min":0,"x_max":0,"o":""},"꾔":{"ha":1214,"x_min":0,"x_max":0,"o":""},"꾕":{"ha":1214,"x_min":58,"x_max":1054,"o":"m 649 342 q 947 284 839 342 q 1054 122 1054 226 q 947 -40 1054 18 q 649 -99 839 -99 q 351 -40 458 -99 q 244 122 244 18 q 351 284 244 226 q 649 342 458 342 m 58 514 q 425 521 263 514 l 425 756 l 522 756 l 522 525 q 860 554 699 533 l 867 476 q 67 428 564 431 l 58 514 m 107 1025 l 386 1025 l 386 981 q 378 815 386 900 q 338 624 369 731 l 242 638 q 289 939 286 790 l 107 939 l 107 1025 m 347 122 q 427 20 347 57 q 649 -17 507 -17 q 870 20 790 -17 q 950 122 950 57 q 870 224 950 188 q 649 260 790 260 q 428 223 508 260 q 347 122 347 186 m 458 1025 l 793 1025 l 793 960 q 787 799 793 876 q 756 626 781 722 l 661 636 q 690 797 683 726 q 697 939 697 868 l 458 939 l 458 1025 m 944 1114 l 1047 1114 l 1047 360 l 944 360 l 944 1114 z "},"꾖":{"ha":1214,"x_min":0,"x_max":0,"o":""},"꾗":{"ha":1214,"x_min":0,"x_max":0,"o":""},"꾘":{"ha":1214,"x_min":0,"x_max":0,"o":""},"꾙":{"ha":1214,"x_min":0,"x_max":0,"o":""},"꾚":{"ha":1214,"x_min":0,"x_max":0,"o":""},"꾛":{"ha":1214,"x_min":0,"x_max":0,"o":""},"꾜":{"ha":1214,"x_min":56,"x_max":1153,"o":"m 475 989 l 475 932 q 460 680 475 807 q 389 368 446 553 l 289 396 q 357 673 340 551 q 374 903 374 794 l 125 903 l 125 989 l 475 989 m 56 164 l 454 164 l 454 542 l 557 542 l 557 164 l 715 164 l 715 542 l 815 542 l 815 164 l 1153 164 l 1153 78 l 56 78 l 56 164 m 585 989 l 1031 989 l 1031 904 q 1022 651 1031 772 q 981 364 1014 529 l 879 378 q 919 653 911 533 q 928 903 928 772 l 585 903 l 585 989 z "},"꾝":{"ha":1214,"x_min":0,"x_max":0,"o":""},"꾞":{"ha":1214,"x_min":0,"x_max":0,"o":""},"꾟":{"ha":1214,"x_min":0,"x_max":0,"o":""},"꾠":{"ha":1214,"x_min":0,"x_max":0,"o":""},"꾡":{"ha":1214,"x_min":0,"x_max":0,"o":""},"꾢":{"ha":1214,"x_min":0,"x_max":0,"o":""},"꾣":{"ha":1214,"x_min":0,"x_max":0,"o":""},"꾤":{"ha":1214,"x_min":46,"x_max":1146,"o":"m 481 599 l 481 801 l 582 801 l 582 599 l 726 599 l 726 801 l 829 801 l 829 599 l 1146 599 l 1146 511 l 46 511 l 46 599 l 481 599 m 138 1072 l 488 1072 l 488 1039 q 478 881 488 964 q 431 693 468 797 l 325 714 q 381 985 375 858 l 138 985 l 138 1072 m 194 397 l 1013 397 l 1013 124 l 301 124 l 301 -4 l 1056 -4 l 1056 -87 l 197 -87 l 197 201 l 910 201 l 910 314 l 194 314 l 194 397 m 596 1072 l 1022 1072 l 1022 1031 q 1017 876 1022 956 q 992 696 1011 796 l 889 710 q 917 985 914 843 l 596 985 l 596 1072 z "},"꾥":{"ha":1214,"x_min":0,"x_max":0,"o":""},"꾦":{"ha":1214,"x_min":0,"x_max":0,"o":""},"꾧":{"ha":1214,"x_min":0,"x_max":0,"o":""},"꾨":{"ha":1214,"x_min":0,"x_max":0,"o":""},"꾩":{"ha":1214,"x_min":0,"x_max":0,"o":""},"꾪":{"ha":1214,"x_min":0,"x_max":0,"o":""},"꾫":{"ha":1214,"x_min":0,"x_max":0,"o":""},"꾬":{"ha":1214,"x_min":0,"x_max":0,"o":""},"꾭":{"ha":1214,"x_min":0,"x_max":0,"o":""},"꾮":{"ha":1214,"x_min":0,"x_max":0,"o":""},"꾯":{"ha":1214,"x_min":0,"x_max":0,"o":""},"꾰":{"ha":1214,"x_min":0,"x_max":0,"o":""},"꾱":{"ha":1214,"x_min":0,"x_max":0,"o":""},"꾲":{"ha":1214,"x_min":0,"x_max":0,"o":""},"꾳":{"ha":1214,"x_min":0,"x_max":0,"o":""},"꾴":{"ha":1214,"x_min":0,"x_max":0,"o":""},"꾵":{"ha":1214,"x_min":0,"x_max":0,"o":""},"꾶":{"ha":1214,"x_min":0,"x_max":0,"o":""},"꾷":{"ha":1214,"x_min":0,"x_max":0,"o":""},"꾸":{"ha":1214,"x_min":56,"x_max":1153,"o":"m 372 519 q 435 942 432 739 l 144 942 l 144 1028 l 536 1028 l 536 990 q 526 782 536 893 q 479 519 517 671 l 879 519 q 928 942 928 736 l 626 942 l 626 1028 l 1029 1028 l 1029 975 q 1022 768 1029 874 q 983 519 1014 663 l 1153 519 l 1153 433 l 656 433 l 656 -103 l 553 -103 l 553 433 l 56 433 l 56 519 l 372 519 z "},"꾹":{"ha":1214,"x_min":56,"x_max":1157,"o":"m 550 1057 l 550 1025 q 542 844 550 940 q 501 621 533 747 l 879 621 q 925 971 922 794 l 643 971 l 643 1057 l 1026 1057 l 1026 1011 q 1019 833 1026 924 q 983 621 1011 742 l 1157 621 l 1157 536 l 656 536 l 656 315 l 1014 315 l 1014 -99 l 908 -99 l 908 229 l 179 229 l 179 315 l 553 315 l 553 536 l 56 536 l 56 621 l 396 621 q 450 971 443 793 l 163 971 l 163 1057 l 550 1057 z "},"꾺":{"ha":1214,"x_min":46,"x_max":1146,"o":"m 536 1063 l 536 999 q 530 818 536 906 q 499 617 524 731 l 879 617 q 914 976 914 800 l 638 976 l 638 1063 l 1022 1063 l 1022 1008 q 1017 826 1022 917 q 990 617 1011 736 l 1146 617 l 1146 529 l 649 529 l 649 308 l 1014 308 l 1014 -101 l 910 -101 l 910 222 l 622 222 l 622 293 l 568 293 l 568 -101 l 465 -101 l 465 222 l 151 222 l 151 308 l 542 308 l 542 529 l 46 529 l 46 617 l 385 617 q 420 809 411 724 q 429 976 429 894 l 153 976 l 153 1063 l 536 1063 z "},"꾻":{"ha":1214,"x_min":0,"x_max":0,"o":""},"꾼":{"ha":1214,"x_min":56,"x_max":1157,"o":"m 393 575 q 450 953 443 761 l 163 953 l 163 1038 l 550 1038 l 550 1006 q 541 815 550 917 q 499 575 532 713 l 876 575 q 925 953 922 761 l 643 953 l 643 1038 l 1026 1038 l 1026 992 q 1019 801 1026 899 q 982 575 1011 704 l 1157 575 l 1157 490 l 668 490 l 668 192 l 565 192 l 565 490 l 56 490 l 56 575 l 393 575 m 203 307 l 307 307 l 307 11 l 1035 11 l 1035 -75 l 203 -75 l 203 307 z "},"꾽":{"ha":1214,"x_min":0,"x_max":0,"o":""},"꾾":{"ha":1214,"x_min":0,"x_max":0,"o":""},"꾿":{"ha":1214,"x_min":0,"x_max":0,"o":""},"꿀":{"ha":1214,"x_min":56,"x_max":1157,"o":"m 403 681 q 450 983 443 828 l 163 983 l 163 1069 l 550 1069 l 550 1032 q 542 871 550 954 q 507 681 535 788 l 883 681 q 925 983 922 838 l 643 983 l 643 1069 l 1026 1069 l 1026 1028 q 1019 867 1026 949 q 988 681 1013 786 l 1157 681 l 1157 594 l 656 594 l 656 440 l 1015 440 l 1015 139 l 293 139 l 293 -3 l 1054 -3 l 1054 -87 l 190 -87 l 190 219 l 913 219 l 913 356 l 188 356 l 188 440 l 553 440 l 553 594 l 56 594 l 56 681 l 403 681 z "},"꿁":{"ha":1214,"x_min":0,"x_max":0,"o":""},"꿂":{"ha":1214,"x_min":0,"x_max":0,"o":""},"꿃":{"ha":1214,"x_min":0,"x_max":0,"o":""},"꿄":{"ha":1214,"x_min":0,"x_max":0,"o":""},"꿅":{"ha":1214,"x_min":0,"x_max":0,"o":""},"꿆":{"ha":1214,"x_min":0,"x_max":0,"o":""},"꿇":{"ha":1214,"x_min":54,"x_max":1156,"o":"m 401 674 q 450 982 447 835 l 163 982 l 163 1067 l 550 1067 l 550 1028 q 542 866 550 950 q 507 674 535 782 l 882 674 q 925 982 922 832 l 643 982 l 643 1067 l 1026 1067 l 1026 1026 q 1019 864 1026 946 q 988 674 1013 782 l 1156 674 l 1156 589 l 653 589 l 653 408 l 549 408 l 549 589 l 54 589 l 54 674 l 401 674 m 167 400 l 551 400 l 551 128 l 268 128 l 268 -4 q 462 0 392 -4 q 606 18 532 4 l 617 -61 q 461 -82 536 -78 q 236 -86 386 -86 l 169 -86 l 169 204 l 453 204 l 453 321 l 167 321 l 167 400 m 593 342 l 797 342 l 797 456 l 897 456 l 897 342 l 1103 342 l 1103 263 l 593 263 l 593 342 m 644 60 q 701 175 644 132 q 849 218 758 218 q 994 175 938 218 q 1051 60 1051 132 q 994 -56 1051 -12 q 849 -99 936 -99 q 701 -56 758 -99 q 644 60 644 -12 m 733 60 q 765 -3 733 19 q 849 -26 797 -26 q 931 -3 900 -26 q 961 60 961 19 q 931 123 961 100 q 849 146 900 146 q 765 123 797 146 q 733 60 733 100 z "},"꿈":{"ha":1214,"x_min":56,"x_max":1157,"o":"m 551 1056 l 551 1024 q 543 849 551 942 q 506 635 535 756 l 883 635 q 925 969 922 801 l 643 969 l 643 1056 l 1026 1056 l 1026 1010 q 1019 838 1026 925 q 988 635 1013 750 l 1157 635 l 1157 550 l 656 550 l 656 339 l 1015 339 l 1015 -85 l 194 -85 l 194 339 l 551 339 l 551 550 l 56 550 l 56 635 l 401 635 q 450 969 444 803 l 163 969 l 163 1056 l 551 1056 m 914 0 l 914 256 l 296 256 l 296 0 l 914 0 z "},"꿉":{"ha":1214,"x_min":56,"x_max":1157,"o":"m 551 1061 l 551 1031 q 507 650 551 835 l 883 650 q 925 976 922 811 l 643 976 l 643 1061 l 1026 1061 l 1026 1018 q 1020 849 1026 936 q 989 650 1014 763 l 1157 650 l 1157 564 l 654 564 l 654 338 l 551 338 l 551 564 l 56 564 l 56 650 l 401 650 q 450 976 443 813 l 163 976 l 163 1061 l 551 1061 m 199 406 l 301 406 l 301 247 l 907 247 l 907 406 l 1011 406 l 1011 -86 l 199 -86 l 199 406 m 907 0 l 907 164 l 301 164 l 301 0 l 907 0 z "},"꿊":{"ha":1214,"x_min":0,"x_max":0,"o":""},"꿋":{"ha":1214,"x_min":56,"x_max":1157,"o":"m 399 622 q 450 967 443 793 l 163 967 l 163 1053 l 551 1053 l 551 1022 q 543 842 551 938 q 503 622 535 747 l 881 622 q 925 967 922 793 l 643 967 l 643 1053 l 1026 1053 l 1026 1007 q 1019 831 1026 921 q 986 622 1013 740 l 1157 622 l 1157 536 l 654 536 l 654 346 l 553 346 l 553 536 l 56 536 l 56 622 l 399 622 m 136 -15 q 340 33 244 -4 q 492 127 435 71 q 550 250 550 183 l 550 296 l 656 296 l 656 250 q 713 126 656 182 q 864 33 769 69 q 1068 -15 958 -4 l 1031 -97 q 770 -22 886 -79 q 603 122 654 36 q 434 -22 550 36 q 175 -97 318 -79 l 136 -15 z "},"꿌":{"ha":1214,"x_min":0,"x_max":0,"o":""},"꿍":{"ha":1214,"x_min":56,"x_max":1157,"o":"m 551 1050 l 551 1018 q 543 840 551 935 q 504 622 535 746 l 882 622 q 925 964 922 793 l 643 964 l 643 1050 l 1026 1050 l 1026 1004 q 1019 828 1026 918 q 986 622 1013 739 l 1157 622 l 1157 538 l 656 538 l 656 361 q 923 293 826 353 q 1019 133 1019 233 q 908 -35 1019 25 q 603 -96 797 -96 q 296 -35 407 -96 q 185 133 185 25 q 282 294 185 233 q 551 361 379 354 l 551 538 l 56 538 l 56 622 l 400 622 q 450 964 443 794 l 163 964 l 163 1050 l 551 1050 m 289 133 q 372 27 289 65 q 603 -11 456 -11 q 833 27 750 -11 q 917 133 917 65 q 833 240 917 201 q 603 278 750 278 q 372 240 456 278 q 289 133 289 201 z "},"꿎":{"ha":1214,"x_min":56,"x_max":1157,"o":"m 401 631 q 450 969 444 801 l 163 969 l 163 1054 l 551 1054 l 551 1022 q 543 847 551 940 q 506 631 535 754 l 883 631 q 925 969 922 800 l 643 969 l 643 1054 l 1026 1054 l 1026 1010 q 1019 835 1026 924 q 988 631 1013 747 l 1157 631 l 1157 544 l 657 544 l 657 350 l 1025 350 l 1025 265 l 664 265 q 801 85 685 160 q 1072 -11 918 11 l 1029 -93 q 772 -2 886 -68 q 606 163 657 64 q 440 -2 554 64 q 182 -92 325 -68 l 139 -10 q 410 86 293 13 q 549 265 528 160 l 189 265 l 189 350 l 554 350 l 554 544 l 56 544 l 56 631 l 401 631 z "},"꿏":{"ha":1214,"x_min":0,"x_max":0,"o":""},"꿐":{"ha":1214,"x_min":0,"x_max":0,"o":""},"꿑":{"ha":1214,"x_min":0,"x_max":0,"o":""},"꿒":{"ha":1214,"x_min":0,"x_max":0,"o":""},"꿓":{"ha":1214,"x_min":0,"x_max":0,"o":""},"꿔":{"ha":1214,"x_min":38,"x_max":1049,"o":"m 1049 1113 l 1049 -103 l 944 -103 l 944 258 l 663 258 l 663 343 l 944 343 l 944 1113 l 1049 1113 m 38 540 q 272 543 108 540 q 309 749 300 658 q 318 925 318 839 l 114 925 l 114 1011 l 418 1011 l 418 947 q 411 758 418 851 q 376 546 404 665 q 633 557 490 547 q 667 750 660 665 q 674 925 674 835 l 479 925 l 479 1011 l 774 1011 l 774 939 q 767 759 774 844 q 739 565 761 674 q 860 576 779 568 l 865 497 q 501 464 717 476 l 501 -49 l 397 -49 l 397 458 q 53 453 235 453 l 38 540 z "},"꿕":{"ha":1214,"x_min":0,"x_max":0,"o":""},"꿖":{"ha":1214,"x_min":0,"x_max":0,"o":""},"꿗":{"ha":1214,"x_min":0,"x_max":0,"o":""},"꿘":{"ha":1214,"x_min":46,"x_max":1090,"o":"m 424 1025 l 424 965 q 417 797 424 879 q 386 610 411 714 q 647 618 518 613 q 679 938 679 772 l 481 938 l 481 1025 l 781 1025 l 781 956 q 776 796 781 872 q 751 625 771 719 q 846 632 786 626 l 851 553 q 482 524 672 532 l 482 251 l 375 251 l 375 519 q 60 515 213 515 l 46 607 q 283 608 201 607 q 325 938 325 772 l 121 938 l 121 1025 l 424 1025 m 221 274 l 328 274 l 328 -1 l 1090 -1 l 1090 -89 l 221 -89 l 221 274 m 678 435 l 957 435 l 957 1114 l 1058 1114 l 1058 185 l 957 185 l 957 356 l 678 356 l 678 435 z "},"꿙":{"ha":1214,"x_min":0,"x_max":0,"o":""},"꿚":{"ha":1214,"x_min":0,"x_max":0,"o":""},"꿛":{"ha":1214,"x_min":0,"x_max":0,"o":""},"꿜":{"ha":1214,"x_min":47,"x_max":1090,"o":"m 1046 1114 l 1046 432 l 942 432 l 942 506 l 678 506 l 678 582 l 942 582 l 942 1114 l 1046 1114 m 47 715 q 278 718 117 715 q 317 972 314 850 l 125 972 l 125 1057 l 417 1057 l 417 1018 q 410 881 417 951 q 382 721 404 810 q 624 731 463 722 q 658 972 656 851 l 472 972 l 472 1057 l 757 1057 l 757 1013 q 752 883 757 947 q 728 738 747 818 q 838 747 799 743 l 846 674 q 475 642 661 650 l 475 433 l 371 433 l 371 638 q 61 632 225 632 l 47 715 m 236 386 l 1046 386 l 1046 117 l 342 117 l 342 -7 l 1090 -7 l 1090 -87 l 239 -87 l 239 192 l 943 192 l 943 307 l 236 307 l 236 386 z "},"꿝":{"ha":1214,"x_min":0,"x_max":0,"o":""},"꿞":{"ha":1214,"x_min":0,"x_max":0,"o":""},"꿟":{"ha":1214,"x_min":0,"x_max":0,"o":""},"꿠":{"ha":1214,"x_min":0,"x_max":0,"o":""},"꿡":{"ha":1214,"x_min":0,"x_max":0,"o":""},"꿢":{"ha":1214,"x_min":0,"x_max":0,"o":""},"꿣":{"ha":1214,"x_min":0,"x_max":0,"o":""},"꿤":{"ha":1214,"x_min":0,"x_max":0,"o":""},"꿥":{"ha":1214,"x_min":0,"x_max":0,"o":""},"꿦":{"ha":1214,"x_min":0,"x_max":0,"o":""},"꿧":{"ha":1214,"x_min":0,"x_max":0,"o":""},"꿨":{"ha":1214,"x_min":49,"x_max":1164,"o":"m 1049 1114 l 1049 361 l 944 361 l 944 456 l 679 456 l 679 533 l 944 533 l 944 1114 l 1049 1114 m 49 672 q 278 674 196 672 q 318 956 315 819 l 126 956 l 126 1042 l 418 1042 l 418 1000 q 412 850 418 926 q 383 676 406 774 q 622 689 503 681 q 658 956 656 822 l 474 956 l 474 1042 l 758 1042 l 758 993 q 753 854 758 924 q 726 697 747 785 q 839 711 800 706 l 847 638 q 475 597 703 613 l 475 371 l 372 371 l 372 593 q 63 586 233 586 l 49 672 m 121 -8 q 301 112 235 28 q 368 292 368 196 l 368 326 l 468 326 l 468 292 q 513 130 468 210 q 642 3 558 50 q 771 131 725 50 q 817 292 817 211 l 817 326 l 917 326 l 917 292 q 983 111 917 194 q 1164 -8 1050 28 l 1113 -86 q 963 3 1025 -56 q 867 139 900 61 q 781 -2 839 60 q 642 -97 724 -64 q 503 -3 560 -64 q 417 138 447 58 q 322 3 385 61 q 172 -86 258 -56 l 121 -8 z "},"꿩":{"ha":1214,"x_min":47,"x_max":1051,"o":"m 1044 1114 l 1044 340 l 940 340 l 940 449 l 678 449 l 678 528 l 940 528 l 940 1114 l 1044 1114 m 47 671 q 275 672 194 671 q 317 960 314 821 l 125 960 l 125 1046 l 417 1046 l 417 1003 q 410 851 417 928 q 381 675 404 774 q 618 688 501 679 q 657 960 654 824 l 471 960 l 471 1046 l 756 1046 l 756 997 q 750 856 756 926 q 724 697 744 786 q 835 710 781 701 l 843 635 q 475 596 674 607 l 475 354 l 371 354 l 371 592 q 61 585 232 585 l 47 671 m 239 117 q 346 274 239 218 q 646 329 453 329 q 944 274 836 329 q 1051 117 1051 218 q 944 -42 1051 14 q 646 -99 836 -99 q 346 -42 453 -99 q 239 117 239 14 m 343 117 q 424 17 343 53 q 646 -18 504 -18 q 867 17 788 -18 q 947 117 947 53 q 867 214 947 179 q 646 249 788 249 q 424 214 504 249 q 343 117 343 179 z "},"꿪":{"ha":1214,"x_min":0,"x_max":0,"o":""},"꿫":{"ha":1214,"x_min":0,"x_max":0,"o":""},"꿬":{"ha":1214,"x_min":0,"x_max":0,"o":""},"꿭":{"ha":1214,"x_min":0,"x_max":0,"o":""},"꿮":{"ha":1214,"x_min":0,"x_max":0,"o":""},"꿯":{"ha":1214,"x_min":0,"x_max":0,"o":""},"꿰":{"ha":1214,"x_min":28,"x_max":1079,"o":"m 1079 1114 l 1079 -101 l 979 -101 l 979 1114 l 1079 1114 m 28 546 q 194 549 75 546 q 240 899 240 728 l 82 899 l 82 985 l 333 985 l 333 926 q 326 749 333 836 q 293 551 319 663 q 493 563 429 557 q 524 740 517 661 q 532 899 532 819 l 378 899 l 378 985 l 625 985 l 625 919 q 619 752 625 832 q 590 569 613 672 l 697 582 l 704 507 q 413 474 574 485 l 413 -1 l 314 -1 l 314 467 q 42 460 190 460 l 28 546 m 529 356 l 754 356 l 754 1086 l 853 1086 l 853 -33 l 754 -33 l 754 271 l 529 271 l 529 356 z "},"꿱":{"ha":1214,"x_min":42,"x_max":1074,"o":"m 1074 1114 l 1074 344 l 974 344 l 974 1114 l 1074 1114 m 42 663 q 214 664 150 663 q 250 939 247 801 l 96 939 l 96 1024 l 339 1024 l 339 979 q 333 833 339 907 q 306 665 328 760 q 514 676 447 671 q 540 814 533 753 q 546 939 546 875 l 389 939 l 389 1024 l 635 1024 l 635 958 q 631 822 635 885 q 608 685 626 760 q 699 696 640 688 l 707 622 q 428 588 586 599 l 428 354 l 328 354 l 328 582 q 54 578 226 578 l 42 663 m 224 293 l 1074 293 l 1074 -97 l 969 -97 l 969 208 l 224 208 l 224 293 m 540 521 l 757 521 l 757 1092 l 856 1092 l 856 349 l 757 349 l 757 444 l 540 444 l 540 521 z "},"꿲":{"ha":1214,"x_min":0,"x_max":0,"o":""},"꿳":{"ha":1214,"x_min":0,"x_max":0,"o":""}}}
